<?xml version="1.0" encoding="UTF-8" standalone="no"?>
<!-- Created with Inkscape (http://www.inkscape.org/) -->

<svg
   xmlns:dc="http://purl.org/dc/elements/1.1/"
   xmlns:cc="http://creativecommons.org/ns#"
   xmlns:rdf="http://www.w3.org/1999/02/22-rdf-syntax-ns#"
   xmlns:svg="http://www.w3.org/2000/svg"
   xmlns="http://www.w3.org/2000/svg"
   version="1.1"
   width="737.09448"
   height="540"
   id="svg3004"
   xml:space="preserve"><metadata
     id="metadata3010"><rdf:RDF><cc:Work
         rdf:about=""><dc:format>image/svg+xml</dc:format><dc:type
           rdf:resource="http://purl.org/dc/dcmitype/StillImage" /><dc:title></dc:title></cc:Work></rdf:RDF></metadata><defs
     id="defs3008"><clipPath
       id="clipPath3024"><path
         d="m 76.434,388.801 446.402,0 0,-345.602 -446.402,0 0,345.602 z"
         id="path3026" /></clipPath><clipPath
       id="clipPath3032"><path
         d="m 75,42 448,0 0,247 -448,0 0,-247 z"
         id="path3034" /></clipPath><clipPath
       id="clipPath3048"><path
         d="m 75,42 448,0 0,342 -448,0 0,-342 z"
         id="path3050" /></clipPath><clipPath
       id="clipPath3064"><path
         d="m 75,264 507,0 0,2 -507,0 0,-2 z"
         id="path3066" /></clipPath></defs><g
     transform="matrix(1.25,0,0,-1.25,0,540)"
     id="g3012"><g
       id="g3014"><path
         d="m 4.434,432 576,0 0,-432 -576,0 0,432 z"
         id="path3016"
         style="fill:#ffffff;fill-opacity:1;fill-rule:nonzero;stroke:none" /><path
         d="m -220.352,448.352 446.402,0 0,-345.598 -446.402,0 0,345.598 z"
         id="path3018"
         style="fill:#ffffff;fill-opacity:1;fill-rule:nonzero;stroke:none" /></g><g
       id="g3020"><g
         clip-path="url(#clipPath3024)"
         id="g3022"><g
           id="g3028"><g
             id="g3030" /><g
             id="g3036"><g
               clip-path="url(#clipPath3032)"
               id="g3038"><g
                 id="g3040"><path
                   d="m 76.434,43.199 4.464,12.039 4.465,11.453 4.465,10.895 4.465,10.363 4.461,9.856 4.465,9.375 4.465,8.922 4.464,8.48 4.465,8.07 4.461,7.68 4.465,7.301 4.465,6.945 5.355,7.891 5.36,7.429 5.355,6.997 5.356,6.589 5.359,6.207 5.356,5.848 5.355,5.504 5.359,5.184 5.356,4.882 5.355,4.598 5.36,4.328 5.355,4.078 6.25,4.457 6.25,4.157 6.25,3.878 6.25,3.614 6.246,3.367 6.25,3.144 7.145,3.329 7.14,3.078 7.145,2.836 8.035,2.933 8.035,2.684 8.035,2.449 8.926,2.477 8.93,2.238 9.82,2.219 9.82,1.988 10.715,1.934 10.715,1.714 11.606,1.641 12.5,1.543 13.39,1.43 14.285,1.304 16.071,1.243 16.961,1.085 18.75,0.985 21.425,0.902 24.11,0.785 27.676,0.672 8.925,0.18"
                   id="path3042"
                   style="fill:none;stroke:#0000ff;stroke-width:1;stroke-linecap:square;stroke-linejoin:round;stroke-miterlimit:10;stroke-opacity:1;stroke-dasharray:none" /></g></g></g></g><g
           id="g3044"><g
             id="g3046" /><g
             id="g3052"><g
               clip-path="url(#clipPath3048)"
               id="g3054"><g
                 id="g3056"><path
                   d="m 76.434,43.199 6.25,12.739 7.144,14.019 7.141,13.469 7.144,12.941 7.141,12.434 7.144,11.949 7.141,11.477 7.145,11.027 7.14,10.598 7.141,10.179 7.144,9.781 7.141,9.399 7.145,9.027 7.14,8.676 7.145,8.336 7.14,8.008 7.145,7.695 7.14,7.391 7.145,7.105 8.035,7.656 8.035,7.321 8.035,7 8.036,6.691 8.035,6.395 8.035,6.117 8.035,5.844 8.035,5.589 8.926,5.922 8.93,5.633 8.925,5.36 8.93,5.097 8.926,4.848 8.93,4.613 9.82,4.813 9.82,4.554 9.821,4.313 9.824,4.082 10.711,4.203 10.715,3.961 10.714,3.727 11.606,3.796 11.605,3.555 11.606,3.332 12.5,3.356 12.5,3.125 13.39,3.117 13.395,2.89 14.285,2.856 15.176,2.793 5.355,0.93"
                   id="path3058"
                   style="fill:none;stroke:#008000;stroke-width:1;stroke-linecap:square;stroke-linejoin:round;stroke-miterlimit:10;stroke-opacity:1;stroke-dasharray:none" /></g></g></g></g><g
           id="g3060"><g
             id="g3062" /><g
             id="g3068"><g
               clip-path="url(#clipPath3064)"
               id="g3070"><g
                 id="g3072"><path
                   d="m 76.434,265.371 505,0"
                   id="path3074"
                   style="fill:none;stroke:#ff0000;stroke-width:1;stroke-linecap:square;stroke-linejoin:round;stroke-miterlimit:10;stroke-opacity:1;stroke-dasharray:none" /></g></g></g></g></g></g><g
       id="g3076"><path
         d="m 76.434,388.801 446.402,0"
         id="path3078"
         style="fill:none;stroke:#000000;stroke-width:1;stroke-linecap:square;stroke-linejoin:miter;stroke-miterlimit:10;stroke-opacity:1;stroke-dasharray:none" /><path
         d="m 522.836,43.199 0,345.602"
         id="path3080"
         style="fill:none;stroke:#000000;stroke-width:1;stroke-linecap:square;stroke-linejoin:miter;stroke-miterlimit:10;stroke-opacity:1;stroke-dasharray:none" /><path
         d="m 76.434,43.199 446.402,0"
         id="path3082"
         style="fill:none;stroke:#000000;stroke-width:1;stroke-linecap:square;stroke-linejoin:miter;stroke-miterlimit:10;stroke-opacity:1;stroke-dasharray:none" /><path
         d="m 76.434,43.199 0,345.602"
         id="path3084"
         style="fill:none;stroke:#000000;stroke-width:1;stroke-linecap:square;stroke-linejoin:miter;stroke-miterlimit:10;stroke-opacity:1;stroke-dasharray:none" /><path
         d="m 76.434,43.199 0,4"
         id="path3086"
         style="fill:none;stroke:#000000;stroke-width:0.5;stroke-linecap:butt;stroke-linejoin:round;stroke-miterlimit:10;stroke-opacity:1;stroke-dasharray:none" /><path
         d="m 76.434,388.801 0,-4"
         id="path3088"
         style="fill:none;stroke:#000000;stroke-width:0.5;stroke-linecap:butt;stroke-linejoin:round;stroke-miterlimit:10;stroke-opacity:1;stroke-dasharray:none" /><text
         transform="matrix(1,0,0,-1,73.412075,30.075)"
         id="text3090"><tspan
           x="0"
           y="0"
           id="tspan3092"
           style="font-size:12px;font-variant:normal;font-weight:normal;writing-mode:lr-tb;fill:#000000;fill-opacity:1;fill-rule:nonzero;stroke:none;font-family:CharterBT;-inkscape-font-specification:CharterBT-Roman">0</tspan></text>
<path
         d="m 165.715,43.199 0,4"
         id="path3094"
         style="fill:none;stroke:#000000;stroke-width:0.5;stroke-linecap:butt;stroke-linejoin:round;stroke-miterlimit:10;stroke-opacity:1;stroke-dasharray:none" /><path
         d="m 165.715,388.801 0,-4"
         id="path3096"
         style="fill:none;stroke:#000000;stroke-width:0.5;stroke-linecap:butt;stroke-linejoin:round;stroke-miterlimit:10;stroke-opacity:1;stroke-dasharray:none" /><text
         transform="matrix(1,0,0,-1,163.10613,30.075)"
         id="text3098"><tspan
           x="0"
           y="0"
           id="tspan3100"
           style="font-size:12px;font-variant:normal;font-weight:normal;writing-mode:lr-tb;fill:#000000;fill-opacity:1;fill-rule:nonzero;stroke:none;font-family:CharterBT;-inkscape-font-specification:CharterBT-Roman">1</tspan></text>
<path
         d="m 254.996,43.199 0,4"
         id="path3102"
         style="fill:none;stroke:#000000;stroke-width:0.5;stroke-linecap:butt;stroke-linejoin:round;stroke-miterlimit:10;stroke-opacity:1;stroke-dasharray:none" /><path
         d="m 254.996,388.801 0,-4"
         id="path3104"
         style="fill:none;stroke:#000000;stroke-width:0.5;stroke-linecap:butt;stroke-linejoin:round;stroke-miterlimit:10;stroke-opacity:1;stroke-dasharray:none" /><text
         transform="matrix(1,0,0,-1,252.21426,30.075)"
         id="text3106"><tspan
           x="0"
           y="0"
           id="tspan3108"
           style="font-size:12px;font-variant:normal;font-weight:normal;writing-mode:lr-tb;fill:#000000;fill-opacity:1;fill-rule:nonzero;stroke:none;font-family:CharterBT;-inkscape-font-specification:CharterBT-Roman">2</tspan></text>
<path
         d="m 344.277,43.199 0,4"
         id="path3110"
         style="fill:none;stroke:#000000;stroke-width:0.5;stroke-linecap:butt;stroke-linejoin:round;stroke-miterlimit:10;stroke-opacity:1;stroke-dasharray:none" /><path
         d="m 344.277,388.801 0,-4"
         id="path3112"
         style="fill:none;stroke:#000000;stroke-width:0.5;stroke-linecap:butt;stroke-linejoin:round;stroke-miterlimit:10;stroke-opacity:1;stroke-dasharray:none" /><text
         transform="matrix(1,0,0,-1,341.40051,30.075)"
         id="text3114"><tspan
           x="0"
           y="0"
           id="tspan3116"
           style="font-size:12px;font-variant:normal;font-weight:normal;writing-mode:lr-tb;fill:#000000;fill-opacity:1;fill-rule:nonzero;stroke:none;font-family:CharterBT;-inkscape-font-specification:CharterBT-Roman">3</tspan></text>
<path
         d="m 433.555,43.199 0,4"
         id="path3118"
         style="fill:none;stroke:#000000;stroke-width:0.5;stroke-linecap:butt;stroke-linejoin:round;stroke-miterlimit:10;stroke-opacity:1;stroke-dasharray:none" /><path
         d="m 433.555,388.801 0,-4"
         id="path3120"
         style="fill:none;stroke:#000000;stroke-width:0.5;stroke-linecap:butt;stroke-linejoin:round;stroke-miterlimit:10;stroke-opacity:1;stroke-dasharray:none" /><text
         transform="matrix(1,0,0,-1,430.36801,30.075)"
         id="text3122"><tspan
           x="0"
           y="0"
           id="tspan3124"
           style="font-size:12px;font-variant:normal;font-weight:normal;writing-mode:lr-tb;fill:#000000;fill-opacity:1;fill-rule:nonzero;stroke:none;font-family:CharterBT;-inkscape-font-specification:CharterBT-Roman">4</tspan></text>
<path
         d="m 522.836,43.199 0,4"
         id="path3126"
         style="fill:none;stroke:#000000;stroke-width:0.5;stroke-linecap:butt;stroke-linejoin:round;stroke-miterlimit:10;stroke-opacity:1;stroke-dasharray:none" /><path
         d="m 522.836,388.801 0,-4"
         id="path3128"
         style="fill:none;stroke:#000000;stroke-width:0.5;stroke-linecap:butt;stroke-linejoin:round;stroke-miterlimit:10;stroke-opacity:1;stroke-dasharray:none" /><text
         transform="matrix(1,0,0,-1,519.99957,30.075)"
         id="text3130"><tspan
           x="0"
           y="0"
           id="tspan3132"
           style="font-size:12px;font-variant:normal;font-weight:normal;writing-mode:lr-tb;fill:#000000;fill-opacity:1;fill-rule:nonzero;stroke:none;font-family:CharterBT;-inkscape-font-specification:CharterBT-Roman">5</tspan></text>
<path
         d="m 76.434,43.199 4,0"
         id="path3134"
         style="fill:none;stroke:#000000;stroke-width:0.5;stroke-linecap:butt;stroke-linejoin:round;stroke-miterlimit:10;stroke-opacity:1;stroke-dasharray:none" /><path
         d="m 522.836,43.199 -4,0"
         id="path3136"
         style="fill:none;stroke:#000000;stroke-width:0.5;stroke-linecap:butt;stroke-linejoin:round;stroke-miterlimit:10;stroke-opacity:1;stroke-dasharray:none" /><text
         transform="matrix(1,0,0,-1,54.935513,39.8875)"
         id="text3138"><tspan
           x="0 7.632 11.448"
           y="0"
           id="tspan3140"
           style="font-size:12px;font-variant:normal;font-weight:normal;writing-mode:lr-tb;fill:#000000;fill-opacity:1;fill-rule:nonzero;stroke:none;font-family:CharterBT;-inkscape-font-specification:CharterBT-Roman">0.0</tspan></text>
<path
         d="m 76.434,92.57 4,0"
         id="path3142"
         style="fill:none;stroke:#000000;stroke-width:0.5;stroke-linecap:butt;stroke-linejoin:round;stroke-miterlimit:10;stroke-opacity:1;stroke-dasharray:none" /><path
         d="m 522.836,92.57 -4,0"
         id="path3144"
         style="fill:none;stroke:#000000;stroke-width:0.5;stroke-linecap:butt;stroke-linejoin:round;stroke-miterlimit:10;stroke-opacity:1;stroke-dasharray:none" /><text
         transform="matrix(1,0,0,-1,55.341763,89.258929)"
         id="text3146"><tspan
           x="0 7.632 11.448"
           y="0"
           id="tspan3148"
           style="font-size:12px;font-variant:normal;font-weight:normal;writing-mode:lr-tb;fill:#000000;fill-opacity:1;fill-rule:nonzero;stroke:none;font-family:CharterBT;-inkscape-font-specification:CharterBT-Roman">0.2</tspan></text>
<path
         d="m 76.434,141.941 4,0"
         id="path3150"
         style="fill:none;stroke:#000000;stroke-width:0.5;stroke-linecap:butt;stroke-linejoin:round;stroke-miterlimit:10;stroke-opacity:1;stroke-dasharray:none" /><path
         d="m 522.836,141.941 -4,0"
         id="path3152"
         style="fill:none;stroke:#000000;stroke-width:0.5;stroke-linecap:butt;stroke-linejoin:round;stroke-miterlimit:10;stroke-opacity:1;stroke-dasharray:none" /><text
         transform="matrix(1,0,0,-1,54.810513,138.63036)"
         id="text3154"><tspan
           x="0 7.632 11.448"
           y="0"
           id="tspan3156"
           style="font-size:12px;font-variant:normal;font-weight:normal;writing-mode:lr-tb;fill:#000000;fill-opacity:1;fill-rule:nonzero;stroke:none;font-family:CharterBT;-inkscape-font-specification:CharterBT-Roman">0.4</tspan></text>
<path
         d="m 76.434,191.312 4,0"
         id="path3158"
         style="fill:none;stroke:#000000;stroke-width:0.5;stroke-linecap:butt;stroke-linejoin:round;stroke-miterlimit:10;stroke-opacity:1;stroke-dasharray:none" /><path
         d="m 522.836,191.312 -4,0"
         id="path3160"
         style="fill:none;stroke:#000000;stroke-width:0.5;stroke-linecap:butt;stroke-linejoin:round;stroke-miterlimit:10;stroke-opacity:1;stroke-dasharray:none" /><text
         transform="matrix(1,0,0,-1,54.904263,188.00179)"
         id="text3162"><tspan
           x="0 7.632 11.448"
           y="0"
           id="tspan3164"
           style="font-size:12px;font-variant:normal;font-weight:normal;writing-mode:lr-tb;fill:#000000;fill-opacity:1;fill-rule:nonzero;stroke:none;font-family:CharterBT;-inkscape-font-specification:CharterBT-Roman">0.6</tspan></text>
<path
         d="m 76.434,240.688 4,0"
         id="path3166"
         style="fill:none;stroke:#000000;stroke-width:0.5;stroke-linecap:butt;stroke-linejoin:round;stroke-miterlimit:10;stroke-opacity:1;stroke-dasharray:none" /><path
         d="m 522.836,240.688 -4,0"
         id="path3168"
         style="fill:none;stroke:#000000;stroke-width:0.5;stroke-linecap:butt;stroke-linejoin:round;stroke-miterlimit:10;stroke-opacity:1;stroke-dasharray:none" /><text
         transform="matrix(1,0,0,-1,54.966763,237.37321)"
         id="text3170"><tspan
           x="0 7.632 11.448"
           y="0"
           id="tspan3172"
           style="font-size:12px;font-variant:normal;font-weight:normal;writing-mode:lr-tb;fill:#000000;fill-opacity:1;fill-rule:nonzero;stroke:none;font-family:CharterBT;-inkscape-font-specification:CharterBT-Roman">0.8</tspan></text>
<path
         d="m 76.434,290.059 4,0"
         id="path3174"
         style="fill:none;stroke:#000000;stroke-width:0.5;stroke-linecap:butt;stroke-linejoin:round;stroke-miterlimit:10;stroke-opacity:1;stroke-dasharray:none" /><path
         d="m 522.836,290.059 -4,0"
         id="path3176"
         style="fill:none;stroke:#000000;stroke-width:0.5;stroke-linecap:butt;stroke-linejoin:round;stroke-miterlimit:10;stroke-opacity:1;stroke-dasharray:none" /><text
         transform="matrix(1,0,0,-1,55.451138,286.74464)"
         id="text3178"><tspan
           x="0 7.632 11.448"
           y="0"
           id="tspan3180"
           style="font-size:12px;font-variant:normal;font-weight:normal;writing-mode:lr-tb;fill:#000000;fill-opacity:1;fill-rule:nonzero;stroke:none;font-family:CharterBT;-inkscape-font-specification:CharterBT-Roman">1.0</tspan></text>
<path
         d="m 76.434,339.43 4,0"
         id="path3182"
         style="fill:none;stroke:#000000;stroke-width:0.5;stroke-linecap:butt;stroke-linejoin:round;stroke-miterlimit:10;stroke-opacity:1;stroke-dasharray:none" /><path
         d="m 522.836,339.43 -4,0"
         id="path3184"
         style="fill:none;stroke:#000000;stroke-width:0.5;stroke-linecap:butt;stroke-linejoin:round;stroke-miterlimit:10;stroke-opacity:1;stroke-dasharray:none" /><text
         transform="matrix(1,0,0,-1,55.857388,336.11607)"
         id="text3186"><tspan
           x="0 7.632 11.448"
           y="0"
           id="tspan3188"
           style="font-size:12px;font-variant:normal;font-weight:normal;writing-mode:lr-tb;fill:#000000;fill-opacity:1;fill-rule:nonzero;stroke:none;font-family:CharterBT;-inkscape-font-specification:CharterBT-Roman">1.2</tspan></text>
<path
         d="m 76.434,388.801 4,0"
         id="path3190"
         style="fill:none;stroke:#000000;stroke-width:0.5;stroke-linecap:butt;stroke-linejoin:round;stroke-miterlimit:10;stroke-opacity:1;stroke-dasharray:none" /><path
         d="m 522.836,388.801 -4,0"
         id="path3192"
         style="fill:none;stroke:#000000;stroke-width:0.5;stroke-linecap:butt;stroke-linejoin:round;stroke-miterlimit:10;stroke-opacity:1;stroke-dasharray:none" /><text
         transform="matrix(1,0,0,-1,55.326138,385.4875)"
         id="text3194"><tspan
           x="0 7.632 11.448"
           y="0"
           id="tspan3196"
           style="font-size:12px;font-variant:normal;font-weight:normal;writing-mode:lr-tb;fill:#000000;fill-opacity:1;fill-rule:nonzero;stroke:none;font-family:CharterBT;-inkscape-font-specification:CharterBT-Roman">1.4</tspan></text>
<path
         d="m 14.211,217.348 0.004,0.011 0.008,0.012 0.007,0.02 0.008,0.023 0.008,0.02 0.008,0.023 0.008,0.02 0.011,0.019 0.004,0.024 0.004,0.011 0.004,0.008 0.008,0.023 0,0.008 0.008,0.016 0,0.012 0.004,0.007 0,0.008 0.004,0.004 0,0.024 0.003,0.007 c 0,0.02 0,0.231 -0.253,0.231 -0.192,0 -0.235,-0.125 -0.274,-0.258 C 12.406,214.484 11.629,213.07 8,213.07 l -3.086,0 c -0.305,0 -0.34,0 -0.469,0.02 -0.211,0.019 -0.277,0.043 -0.277,0.211 0,0.058 0,0.105 0.105,0.484 l 1.442,5.789 2.097,0 c 1.805,0 1.805,-0.445 1.805,-0.976 0,-0.149 0,-0.407 -0.156,-1.036 -0.035,-0.105 -0.059,-0.175 -0.059,-0.234 0,-0.105 0.082,-0.234 0.274,-0.234 0.176,0 0.234,0.105 0.32,0.422 l 1.207,4.961 c 0,0.128 -0.109,0.234 -0.262,0.234 -0.183,0 -0.23,-0.129 -0.289,-0.387 -0.445,-1.609 -0.832,-2.094 -2.781,-2.094 l -1.988,0 1.273,5.106 c 0.184,0.742 0.215,0.824 1.141,0.824 l 2.984,0 c 2.586,0 3.223,-0.613 3.223,-2.351 0,-0.508 0,-0.551 -0.082,-1.125 0,-0.125 -0.024,-0.274 -0.024,-0.383 0,-0.106 0.067,-0.25 0.25,-0.25 0.239,0 0.262,0.129 0.305,0.531 l 0.426,3.664 c 0.059,0.566 -0.043,0.566 -0.574,0.566 l -10.696,0 c -0.425,0 -0.636,0 -0.636,-0.421 0,-0.231 0.191,-0.231 0.589,-0.231 0.782,0 1.376,0 1.376,-0.379 0,-0.09 0,-0.129 -0.11,-0.515 l -2.789,-11.2 c -0.211,-0.828 -0.258,-0.996 -1.934,-0.996 -0.355,0 -0.589,0 -0.589,-0.406 0,-0.25 0.191,-0.25 0.589,-0.25 l 10.997,0 c 0.492,0 0.511,0.02 0.66,0.356 l 1.949,4.578 z"
         id="path3198"
         style="fill:#000000;fill-opacity:1;fill-rule:nonzero;stroke:none" /><path
         d="m 21.449,227.453 0,0.844 -2.902,0 0,-21.18 2.902,0 0,0.844 -2.054,0 0,19.492 2.054,0 z"
         id="path3200"
         style="fill:#000000;fill-opacity:1;fill-rule:nonzero;stroke:none" /><path
         d="m 35.219,224.461 0.09,0.156 0.101,0.141 0.098,0.129 0.09,0.125 0.093,0.117 0.094,0.109 0.09,0.102 0.094,0.094 0.179,0.164 0.09,0.074 0.09,0.066 0.082,0.059 0.09,0.055 0.086,0.05 0.086,0.047 0.086,0.039 0.078,0.039 0.086,0.032 0.082,0.027 0.078,0.027 0.164,0.039 0.074,0.012 0.082,0.012 0.078,0.012 0.153,0.019 0.152,0.008 0.149,0.008 c 0.25,0.023 0.273,0.379 0.273,0.41 0,0.164 -0.105,0.25 -0.273,0.25 -0.551,0 -1.168,-0.071 -1.743,-0.071 -0.699,0 -1.421,0.071 -2.101,0.071 -0.121,0 -0.395,0 -0.395,-0.406 0,-0.231 0.192,-0.254 0.336,-0.254 0.574,-0.039 0.977,-0.25 0.977,-0.696 0,-0.32 -0.317,-0.785 -0.317,-0.804 l -6.507,-10.336 -1.442,11.199 c 0,0.359 0.485,0.637 1.465,0.637 0.297,0 0.531,0 0.531,0.425 0,0.188 -0.176,0.235 -0.3,0.235 -0.844,0 -1.758,-0.071 -2.622,-0.071 -0.386,0 -0.789,0.024 -1.168,0.024 -0.378,0 -0.789,0.047 -1.144,0.047 -0.149,0 -0.402,0 -0.402,-0.406 0,-0.254 0.187,-0.254 0.527,-0.254 1.187,0 1.207,-0.192 1.277,-0.715 l 1.668,-13.074 c 0.063,-0.426 0.153,-0.485 0.422,-0.485 0.336,0 0.426,0.106 0.598,0.379 l 7.625,12.133 z"
         id="path3202"
         style="fill:#000000;fill-opacity:1;fill-rule:nonzero;stroke:none" /><path
         d="m 46.016,207.332 0,0.02 -0.004,0.003 0,0.016 -0.004,0.008 0,0.004 -0.012,0.023 -0.008,0.024 -0.019,0.019 -0.008,0.016 -0.008,0.012 -0.012,0.011 -0.015,0.02 -0.004,0.008 -0.031,0.031 -0.008,0.015 -0.012,0.008 -0.008,0.008 -0.008,0.012 -0.007,0.008 -0.012,0.015 -0.024,0.024 -0.011,0.015 -0.012,0.012 -0.016,0.012 -0.011,0.012 -0.012,0.015 -0.016,0.016 -0.015,0.011 -0.012,0.02 -0.016,0.012 -0.019,0.015 -0.016,0.02 c -2.644,2.668 -3.32,6.668 -3.32,9.91 0,3.688 0.801,7.375 3.41,10.016 0.27,0.261 0.27,0.304 0.27,0.367 0,0.148 -0.078,0.207 -0.207,0.207 -0.211,0 -2.118,-1.438 -3.368,-4.125 -1.082,-2.332 -1.336,-4.684 -1.336,-6.465 0,-1.656 0.235,-4.211 1.395,-6.609 1.273,-2.606 3.098,-3.981 3.309,-3.981 0.129,0 0.207,0.063 0.207,0.215 z"
         id="path3204"
         style="fill:#000000;fill-opacity:1;fill-rule:nonzero;stroke:none" /><path
         d="m 51.586,220.883 1.992,0 c 0.418,0 0.633,0 0.633,0.426 0,0.234 -0.215,0.234 -0.59,0.234 l -1.867,0 c 0.762,3.008 0.867,3.434 0.867,3.559 0,0.359 -0.25,0.574 -0.609,0.574 -0.067,0 -0.66,-0.024 -0.852,-0.766 l -0.824,-3.367 -1.992,0 c -0.426,0 -0.641,0 -0.641,-0.402 0,-0.258 0.176,-0.258 0.602,-0.258 l 1.859,0 c -1.523,-6.012 -1.609,-6.371 -1.609,-6.758 0,-1.145 0.804,-1.945 1.949,-1.945 2.16,0 3.367,3.09 3.367,3.261 0,0.211 -0.168,0.211 -0.25,0.211 -0.195,0 -0.215,-0.062 -0.32,-0.297 -0.91,-2.199 -2.031,-2.707 -2.75,-2.707 -0.449,0 -0.66,0.274 -0.66,0.973 0,0.504 0.039,0.656 0.129,1.016 l 1.566,6.246 z"
         id="path3206"
         style="fill:#000000;fill-opacity:1;fill-rule:nonzero;stroke:none" /><path
         d="m 60.992,217.707 0,0.156 -0.004,0.168 -0.004,0.164 -0.004,0.176 -0.019,0.356 -0.023,0.375 -0.036,0.39 -0.047,0.403 -0.054,0.414 -0.071,0.429 -0.082,0.434 -0.097,0.437 -0.117,0.446 -0.125,0.453 -0.149,0.453 -0.172,0.457 -0.09,0.223 -0.093,0.226 -0.102,0.227 -0.105,0.222 c -1.27,2.606 -3.09,3.981 -3.305,3.981 -0.121,0 -0.211,-0.078 -0.211,-0.207 0,-0.063 0,-0.106 0.398,-0.488 2.079,-2.094 3.293,-5.465 3.293,-9.895 0,-3.617 -0.789,-7.348 -3.421,-10.019 -0.27,-0.25 -0.27,-0.297 -0.27,-0.356 0,-0.129 0.09,-0.215 0.211,-0.215 0.215,0 2.113,1.442 3.371,4.129 1.078,2.328 1.328,4.68 1.328,6.461 z"
         id="path3208"
         style="fill:#000000;fill-opacity:1;fill-rule:nonzero;stroke:none" /><path
         d="m 65.605,207.961 -2.054,0 0,-0.844 2.906,0 0,21.18 -2.906,0 0,-0.844 2.054,0 0,-19.492 z"
         id="path3210"
         style="fill:#000000;fill-opacity:1;fill-rule:nonzero;stroke:none" /><path
         d="m 299.41,27.828 1.992,0 c 0.418,0 0.633,0 0.633,0.426 0,0.23 -0.215,0.23 -0.594,0.23 l -1.863,0 c 0.758,3.012 0.867,3.438 0.867,3.563 0,0.359 -0.254,0.57 -0.609,0.57 -0.066,0 -0.66,-0.019 -0.852,-0.762 l -0.824,-3.371 -1.992,0 c -0.426,0 -0.641,0 -0.641,-0.398 0,-0.258 0.176,-0.258 0.602,-0.258 l 1.855,0 c -1.519,-6.012 -1.605,-6.371 -1.605,-6.758 0,-1.144 0.805,-1.945 1.949,-1.945 2.156,0 3.367,3.09 3.367,3.258 0,0.215 -0.168,0.215 -0.254,0.215 -0.195,0 -0.211,-0.063 -0.316,-0.297 -0.91,-2.199 -2.035,-2.711 -2.75,-2.711 -0.449,0 -0.66,0.277 -0.66,0.976 0,0.504 0.039,0.657 0.125,1.016 l 1.57,6.246 z"
         id="path3212"
         style="fill:#000000;fill-opacity:1;fill-rule:nonzero;stroke:none" /><path
         d="m 533.305,383.855 -0.063,0.543 0,5.719 c 0,0.707 0.047,0.852 1.031,0.852 l 1.887,0 c 3.371,0 3.371,-2.246 3.371,-3.281 0,-0.997 0,-3.29 -3.371,-3.29 l -2.918,0 0.063,-0.543 3.578,0 c 2.539,0 4.832,1.715 4.832,3.833 0,2.074 -2.098,3.941 -5,3.941 l -7.477,0 0,-0.66 0.508,0 c 1.633,0 1.672,-0.231 1.672,-0.996 l 0,-11.161 c 0,-0.765 -0.039,-0.996 -1.672,-0.996 l -0.508,0 0,-0.656 c 0.739,0.067 2.305,0.067 3.11,0.067 0.804,0 2.398,0 3.136,-0.067 l 0,0.656 -0.504,0 c -1.632,0 -1.675,0.231 -1.675,0.996 l 0,5.043 z"
         id="path3214"
         style="fill:#000000;fill-opacity:1;fill-rule:nonzero;stroke:none" /><path
         d="m 549.379,378.766 0.008,-0.082 0.011,-0.075 0.016,-0.082 0.02,-0.074 0.019,-0.082 0.024,-0.078 0.023,-0.074 0.031,-0.078 0.031,-0.075 0.036,-0.074 0.039,-0.078 0.039,-0.066 0.043,-0.067 0.047,-0.07 0.046,-0.066 0.051,-0.059 0.055,-0.063 0.055,-0.058 0.058,-0.055 0.059,-0.051 0.066,-0.05 0.067,-0.043 0.07,-0.043 0.07,-0.039 0.078,-0.036 0.075,-0.027 0.082,-0.027 0.082,-0.02 0.082,-0.015 0.086,-0.016 0.09,-0.008 0.093,-0.004 c 0.438,0 1.735,0.301 1.735,2.016 l 0,1.183 -0.532,0 0,-1.183 c 0,-1.231 -0.527,-1.356 -0.765,-1.356 -0.696,0 -0.781,0.946 -0.781,1.055 l 0,4.238 c 0,0.891 0,1.715 -0.758,2.5 -0.832,0.821 -1.887,1.161 -2.903,1.161 -1.746,0 -3.203,-0.993 -3.203,-2.391 0,-0.633 0.426,-0.996 0.973,-0.996 0.594,0 0.98,0.422 0.98,0.976 0,0.25 -0.109,0.95 -1.086,0.977 0.575,0.738 1.606,0.969 2.289,0.969 1.04,0 2.243,-0.825 2.243,-2.711 l 0,-3.348 c 0,-2.016 -1.52,-2.726 -2.477,-2.726 -1.039,0 -1.906,0.742 -1.906,1.796 0,1.161 0.89,2.926 4.383,3.047 l 0,0.45 c -1.075,-0.063 -2.559,-0.129 -3.895,-0.766 -1.586,-0.719 -2.117,-1.82 -2.117,-2.75 0,-1.715 2.055,-2.246 3.391,-2.246 1.398,0 2.371,0.844 2.777,1.84 z"
         id="path3216"
         style="fill:#000000;fill-opacity:1;fill-rule:nonzero;stroke:none" /><path
         d="m 555.176,379.973 0,0.05 0.004,0.02 0,0.043 0.004,0.023 0,0.024 0.007,0.027 0.008,0.055 0.004,0.031 0.004,0.035 0.008,0.031 0.015,0.071 0.012,0.031 0.035,0.117 0.02,0.039 0.015,0.035 0.016,0.043 0.024,0.04 0.019,0.042 0.024,0.04 0.023,0.042 0.027,0.036 0.028,0.043 0.031,0.039 0.035,0.043 c 0.828,-0.59 1.691,-0.661 2.094,-0.661 l 0,0.485 c -1.844,0 -1.844,2.125 -1.844,2.613 0,0.574 0.027,1.25 0.34,1.774 0.172,0.257 0.656,0.847 1.504,0.847 1.844,0 1.844,-2.117 1.844,-2.601 0,-0.571 -0.02,-1.25 -0.336,-1.782 -0.168,-0.25 -0.661,-0.851 -1.508,-0.851 l 0,-0.485 c 1.969,0 3.433,1.465 3.433,3.098 0,0.785 -0.339,1.567 -0.863,2.055 0.758,0.715 1.516,0.824 1.902,0.824 0.04,0 0.149,0 0.215,-0.023 -0.238,-0.086 -0.34,-0.317 -0.34,-0.571 0,-0.359 0.274,-0.609 0.614,-0.609 0.211,0 0.609,0.144 0.609,0.629 0,0.359 -0.254,1.035 -1.074,1.035 -0.426,0 -1.356,-0.125 -2.246,-0.988 -0.891,0.695 -1.781,0.754 -2.25,0.754 -1.973,0 -3.43,-1.457 -3.43,-3.086 0,-0.93 0.465,-1.739 0.996,-2.184 -0.273,-0.316 -0.66,-1.016 -0.66,-1.758 0,-0.652 0.281,-1.457 0.941,-1.883 -1.277,-0.363 -1.957,-1.273 -1.957,-2.121 0,-1.523 2.102,-2.691 4.684,-2.691 l 0.023,0.484 c -2.144,0 -3.601,1.082 -3.601,2.207 0,0.977 0.805,1.758 1.738,1.821 l 1.25,0 c 1.821,0 4.192,0 4.192,-1.821 0,-1.144 -1.5,-2.207 -3.579,-2.207 l -0.023,-0.484 c 2.496,0 4.703,1.082 4.703,2.734 0,0.743 -0.297,1.825 -1.371,2.414 -1.125,0.59 -2.351,0.59 -3.648,0.59 -0.532,0 -1.442,0 -1.59,0.024 -0.676,0.082 -1.125,0.742 -1.125,1.418 z"
         id="path3218"
         style="fill:#000000;fill-opacity:1;fill-rule:nonzero;stroke:none" /><path
         d="m 565.895,382.055 0.023,0.445 c 0.121,3.152 1.902,3.68 2.633,3.68 2.176,0 2.387,-2.856 2.387,-3.68 l -5.02,0 -0.023,-0.445 5.914,0 c 0.464,0 0.523,0 0.523,0.445 0,2.09 -1.141,4.145 -3.781,4.145 -2.465,0 -4.414,-2.176 -4.414,-4.829 0,-2.836 2.222,-4.89 4.664,-4.89 2.586,0 3.531,2.351 3.531,2.75 0,0.211 -0.164,0.258 -0.27,0.258 -0.191,0 -0.234,-0.125 -0.281,-0.297 -0.734,-2.18 -2.644,-2.18 -2.859,-2.18 -1.063,0 -1.902,0.633 -2.387,1.414 -0.64,1.016 -0.64,2.422 -0.64,3.184 z"
         id="path3220"
         style="fill:#000000;fill-opacity:1;fill-rule:nonzero;stroke:none" /><path
         d="m 586.199,390.719 0,0.203 -0.004,0.019 0,0.063 -0.004,0.012 -0.003,0.031 0,0.023 -0.008,0.024 -0.008,0.019 -0.008,0.024 -0.023,0.047 -0.016,0.011 -0.012,0.012 -0.015,0.012 -0.02,0.011 -0.016,0.008 -0.011,0.004 -0.008,0.004 -0.016,0 -0.007,0.004 -0.012,0.004 -0.012,0 -0.016,0.004 -0.011,0 -0.016,0.004 -0.031,0 -0.012,0.004 -0.09,0 -0.019,0.004 -0.086,0 c -1.313,-1.356 -3.176,-1.356 -3.852,-1.356 l 0,-0.66 c 0.426,0 1.676,0 2.766,0.555 l 0,-10.973 c 0,-0.766 -0.059,-1.02 -1.965,-1.02 l -0.68,0 0,-0.656 c 0.746,0.067 2.586,0.067 3.434,0.067 0.848,0 2.691,0 3.434,-0.067 l 0,0.656 -0.68,0 c -1.906,0 -1.973,0.231 -1.973,1.02 l 0,11.883 z"
         id="path3222"
         style="fill:#000000;fill-opacity:1;fill-rule:nonzero;stroke:none" /><path
         d="m 533.305,288.668 -0.063,0.547 0,5.719 c 0,0.703 0.047,0.847 1.031,0.847 l 1.887,0 c 3.371,0 3.371,-2.242 3.371,-3.281 0,-0.996 0,-3.285 -3.371,-3.285 l -2.918,0 0.063,-0.547 3.578,0 c 2.539,0 4.832,1.715 4.832,3.832 0,2.074 -2.098,3.941 -5,3.941 l -7.477,0 0,-0.66 0.508,0 c 1.633,0 1.672,-0.226 1.672,-0.992 l 0,-11.164 c 0,-0.766 -0.039,-0.992 -1.672,-0.992 l -0.508,0 0,-0.66 c 0.739,0.066 2.305,0.066 3.11,0.066 0.804,0 2.398,0 3.136,-0.066 l 0,0.66 -0.504,0 c -1.632,0 -1.675,0.226 -1.675,0.992 l 0,5.043 z"
         id="path3224"
         style="fill:#000000;fill-opacity:1;fill-rule:nonzero;stroke:none" /><path
         d="m 549.379,283.578 0.008,-0.078 0.011,-0.078 0.016,-0.082 0.02,-0.074 0.019,-0.082 0.024,-0.075 0.023,-0.078 0.031,-0.078 0.031,-0.074 0.036,-0.074 0.039,-0.075 0.039,-0.07 0.043,-0.066 0.047,-0.071 0.046,-0.066 0.051,-0.059 0.055,-0.058 0.055,-0.063 0.058,-0.054 0.059,-0.051 0.066,-0.051 0.067,-0.043 0.07,-0.043 0.07,-0.039 0.078,-0.031 0.075,-0.031 0.164,-0.047 0.082,-0.016 0.086,-0.012 0.09,-0.011 0.093,-0.004 c 0.438,0 1.735,0.304 1.735,2.015 l 0,1.184 -0.532,0 0,-1.184 c 0,-1.226 -0.527,-1.355 -0.765,-1.355 -0.696,0 -0.781,0.949 -0.781,1.055 l 0,4.238 c 0,0.894 0,1.715 -0.758,2.5 -0.832,0.82 -1.887,1.16 -2.903,1.16 -1.746,0 -3.203,-0.988 -3.203,-2.387 0,-0.636 0.426,-1 0.973,-1 0.594,0 0.98,0.426 0.98,0.977 0,0.25 -0.109,0.949 -1.086,0.98 0.575,0.735 1.606,0.969 2.289,0.969 1.04,0 2.243,-0.824 2.243,-2.715 l 0,-3.343 c 0,-2.016 -1.52,-2.731 -2.477,-2.731 -1.039,0 -1.906,0.742 -1.906,1.797 0,1.16 0.89,2.926 4.383,3.051 l 0,0.445 c -1.075,-0.059 -2.559,-0.129 -3.895,-0.766 -1.586,-0.718 -2.117,-1.82 -2.117,-2.75 0,-1.714 2.055,-2.246 3.391,-2.246 1.398,0 2.371,0.848 2.777,1.84 z"
         id="path3226"
         style="fill:#000000;fill-opacity:1;fill-rule:nonzero;stroke:none" /><path
         d="m 555.176,284.789 0,0.051 0.004,0.015 0,0.043 0.004,0.024 0,0.023 0.007,0.028 0.004,0.027 0.004,0.031 0.004,0.028 0.004,0.035 0.008,0.035 0.008,0.031 0.007,0.035 0.012,0.035 0.012,0.04 0.012,0.035 0.011,0.039 0.02,0.039 0.015,0.039 0.016,0.043 0.024,0.035 0.019,0.043 0.024,0.039 0.023,0.043 0.027,0.039 0.028,0.043 0.031,0.035 0.035,0.043 c 0.828,-0.59 1.691,-0.656 2.094,-0.656 l 0,0.484 c -1.844,0 -1.844,2.121 -1.844,2.61 0,0.574 0.027,1.25 0.34,1.773 0.172,0.258 0.656,0.852 1.504,0.852 1.844,0 1.844,-2.118 1.844,-2.606 0,-0.566 -0.02,-1.25 -0.336,-1.781 -0.168,-0.25 -0.661,-0.848 -1.508,-0.848 l 0,-0.484 c 1.969,0 3.433,1.461 3.433,3.094 0,0.785 -0.339,1.57 -0.863,2.054 0.758,0.719 1.516,0.825 1.902,0.825 0.04,0 0.149,0 0.215,-0.02 -0.238,-0.086 -0.34,-0.32 -0.34,-0.57 0,-0.364 0.274,-0.614 0.614,-0.614 0.211,0 0.609,0.145 0.609,0.629 0,0.364 -0.254,1.039 -1.074,1.039 -0.426,0 -1.356,-0.128 -2.246,-0.992 -0.891,0.696 -1.781,0.758 -2.25,0.758 -1.973,0 -3.43,-1.461 -3.43,-3.09 0,-0.93 0.465,-1.738 0.996,-2.183 -0.273,-0.317 -0.66,-1.016 -0.66,-1.758 0,-0.653 0.281,-1.457 0.941,-1.883 -1.277,-0.359 -1.957,-1.27 -1.957,-2.121 0,-1.524 2.102,-2.692 4.684,-2.692 l 0.023,0.485 c -2.144,0 -3.601,1.086 -3.601,2.207 0,0.976 0.805,1.762 1.738,1.82 l 1.25,0 c 1.821,0 4.192,0 4.192,-1.82 0,-1.145 -1.5,-2.207 -3.579,-2.207 l -0.023,-0.485 c 2.496,0 4.703,1.086 4.703,2.735 0,0.742 -0.297,1.824 -1.371,2.414 -1.125,0.594 -2.351,0.594 -3.648,0.594 -0.532,0 -1.442,0 -1.59,0.019 -0.676,0.086 -1.125,0.742 -1.125,1.422 z"
         id="path3228"
         style="fill:#000000;fill-opacity:1;fill-rule:nonzero;stroke:none" /><path
         d="m 565.895,286.867 0.023,0.445 c 0.121,3.157 1.902,3.684 2.633,3.684 2.176,0 2.387,-2.859 2.387,-3.684 l -5.02,0 -0.023,-0.445 5.914,0 c 0.464,0 0.523,0 0.523,0.445 0,2.094 -1.141,4.145 -3.781,4.145 -2.465,0 -4.414,-2.176 -4.414,-4.828 0,-2.836 2.222,-4.891 4.664,-4.891 2.586,0 3.531,2.352 3.531,2.75 0,0.215 -0.164,0.262 -0.27,0.262 -0.191,0 -0.234,-0.129 -0.281,-0.297 -0.734,-2.183 -2.644,-2.183 -2.859,-2.183 -1.063,0 -1.902,0.632 -2.387,1.418 -0.64,1.015 -0.64,2.417 -0.64,3.179 z"
         id="path3230"
         style="fill:#000000;fill-opacity:1;fill-rule:nonzero;stroke:none" /><path
         d="m 582.664,283.605 2.246,2.18 c 3.305,2.922 4.578,4.067 4.578,6.184 0,2.418 -1.906,4.117 -4.492,4.117 -2.398,0 -3.969,-1.957 -3.969,-3.84 0,-1.187 1.063,-1.187 1.129,-1.187 0.36,0 1.102,0.253 1.102,1.121 0,0.554 -0.379,1.105 -1.125,1.105 -0.164,0 -0.211,0 -0.27,-0.019 0.485,1.379 1.621,2.16 2.856,2.16 1.926,0 2.84,-1.723 2.84,-3.457 0,-1.692 -1.063,-3.367 -2.223,-4.68 l -4.066,-4.535 c -0.243,-0.231 -0.243,-0.27 -0.243,-0.781 l 7.864,0 0.597,3.687 -0.531,0 c -0.105,-0.64 -0.254,-1.57 -0.465,-1.89 -0.156,-0.165 -1.551,-0.165 -2.012,-0.165 l -3.816,0 z"
         id="path3232"
         style="fill:#000000;fill-opacity:1;fill-rule:nonzero;stroke:none" /><path
         d="m 533.305,264.75 -0.063,0.543 0,5.723 c 0,0.703 0.047,0.847 1.031,0.847 l 1.887,0 c 3.371,0 3.371,-2.246 3.371,-3.281 0,-0.996 0,-3.289 -3.371,-3.289 l -2.918,0 0.063,-0.543 3.578,0 c 2.539,0 4.832,1.715 4.832,3.832 0,2.074 -2.098,3.941 -5,3.941 l -7.477,0 0,-0.66 0.508,0 c 1.633,0 1.672,-0.23 1.672,-0.992 l 0,-11.164 c 0,-0.766 -0.039,-0.996 -1.672,-0.996 l -0.508,0 0,-0.656 c 0.739,0.066 2.305,0.066 3.11,0.066 0.804,0 2.398,0 3.136,-0.066 l 0,0.656 -0.504,0 c -1.632,0 -1.675,0.23 -1.675,0.996 l 0,5.043 z"
         id="path3234"
         style="fill:#000000;fill-opacity:1;fill-rule:nonzero;stroke:none" /><path
         d="m 549.379,259.66 0.008,-0.078 0.011,-0.078 0.016,-0.082 0.02,-0.074 0.019,-0.082 0.024,-0.078 0.023,-0.075 0.031,-0.078 0.031,-0.074 0.036,-0.074 0.039,-0.075 0.039,-0.07 0.043,-0.066 0.047,-0.071 0.046,-0.066 0.051,-0.059 0.055,-0.062 0.055,-0.059 0.058,-0.054 0.059,-0.051 0.066,-0.051 0.067,-0.043 0.07,-0.043 0.07,-0.039 0.078,-0.031 0.075,-0.031 0.082,-0.028 0.082,-0.019 0.082,-0.016 0.086,-0.015 0.09,-0.008 0.093,-0.004 c 0.438,0 1.735,0.301 1.735,2.015 l 0,1.184 -0.532,0 0,-1.184 c 0,-1.23 -0.527,-1.355 -0.765,-1.355 -0.696,0 -0.781,0.949 -0.781,1.055 l 0,4.238 c 0,0.894 0,1.715 -0.758,2.5 -0.832,0.82 -1.887,1.16 -2.903,1.16 -1.746,0 -3.203,-0.988 -3.203,-2.391 0,-0.632 0.426,-0.996 0.973,-0.996 0.594,0 0.98,0.426 0.98,0.977 0,0.25 -0.109,0.949 -1.086,0.976 0.575,0.739 1.606,0.973 2.289,0.973 1.04,0 2.243,-0.828 2.243,-2.715 l 0,-3.347 c 0,-2.016 -1.52,-2.727 -2.477,-2.727 -1.039,0 -1.906,0.742 -1.906,1.797 0,1.16 0.89,2.926 4.383,3.051 l 0,0.445 c -1.075,-0.059 -2.559,-0.129 -3.895,-0.766 -1.586,-0.718 -2.117,-1.82 -2.117,-2.75 0,-1.714 2.055,-2.246 3.391,-2.246 1.398,0 2.371,0.848 2.777,1.84 z"
         id="path3236"
         style="fill:#000000;fill-opacity:1;fill-rule:nonzero;stroke:none" /><path
         d="m 555.176,260.867 0,0.051 0.004,0.02 0,0.042 0.004,0.024 0,0.023 0.007,0.028 0.008,0.054 0.004,0.032 0.004,0.035 0.008,0.031 0.015,0.07 0.024,0.071 0.023,0.078 0.02,0.039 0.031,0.078 0.024,0.039 0.019,0.043 0.024,0.039 0.023,0.043 0.055,0.078 0.031,0.039 0.035,0.043 c 0.828,-0.59 1.691,-0.66 2.094,-0.66 l 0,0.488 c -1.844,0 -1.844,2.121 -1.844,2.61 0,0.574 0.027,1.25 0.34,1.773 0.172,0.258 0.656,0.848 1.504,0.848 1.844,0 1.844,-2.117 1.844,-2.602 0,-0.57 -0.02,-1.25 -0.336,-1.781 -0.168,-0.25 -0.661,-0.848 -1.508,-0.848 l 0,-0.488 c 1.969,0 3.433,1.465 3.433,3.098 0,0.785 -0.339,1.57 -0.863,2.054 0.758,0.719 1.516,0.825 1.902,0.825 0.04,0 0.149,0 0.215,-0.024 -0.238,-0.082 -0.34,-0.316 -0.34,-0.57 0,-0.36 0.274,-0.61 0.614,-0.61 0.211,0 0.609,0.145 0.609,0.629 0,0.36 -0.254,1.036 -1.074,1.036 -0.426,0 -1.356,-0.125 -2.246,-0.989 -0.891,0.696 -1.781,0.758 -2.25,0.758 -1.973,0 -3.43,-1.461 -3.43,-3.09 0,-0.929 0.465,-1.738 0.996,-2.183 -0.273,-0.317 -0.66,-1.016 -0.66,-1.758 0,-0.653 0.281,-1.457 0.941,-1.883 -1.277,-0.359 -1.957,-1.27 -1.957,-2.121 0,-1.524 2.102,-2.691 4.684,-2.691 l 0.023,0.484 c -2.144,0 -3.601,1.086 -3.601,2.207 0,0.976 0.805,1.762 1.738,1.82 l 1.25,0 c 1.821,0 4.192,0 4.192,-1.82 0,-1.145 -1.5,-2.207 -3.579,-2.207 l -0.023,-0.484 c 2.496,0 4.703,1.082 4.703,2.734 0,0.742 -0.297,1.824 -1.371,2.414 -1.125,0.59 -2.351,0.59 -3.648,0.59 -0.532,0 -1.442,0 -1.59,0.023 -0.676,0.086 -1.125,0.742 -1.125,1.418 z"
         id="path3238"
         style="fill:#000000;fill-opacity:1;fill-rule:nonzero;stroke:none" /><path
         d="m 565.895,262.949 0.023,0.446 c 0.121,3.156 1.902,3.683 2.633,3.683 2.176,0 2.387,-2.859 2.387,-3.683 l -5.02,0 -0.023,-0.446 5.914,0 c 0.464,0 0.523,0 0.523,0.446 0,2.089 -1.141,4.144 -3.781,4.144 -2.465,0 -4.414,-2.176 -4.414,-4.828 0,-2.836 2.222,-4.891 4.664,-4.891 2.586,0 3.531,2.352 3.531,2.75 0,0.215 -0.164,0.262 -0.27,0.262 -0.191,0 -0.234,-0.129 -0.281,-0.301 -0.734,-2.179 -2.644,-2.179 -2.859,-2.179 -1.063,0 -1.902,0.632 -2.387,1.414 -0.64,1.019 -0.64,2.422 -0.64,3.183 z"
         id="path3240"
         style="fill:#000000;fill-opacity:1;fill-rule:nonzero;stroke:none" /><path
         d="m 586.117,265.508 0.164,0.054 0.157,0.063 0.156,0.066 0.148,0.071 0.149,0.078 0.144,0.078 0.141,0.086 0.136,0.094 0.133,0.093 0.133,0.098 0.121,0.102 0.121,0.109 0.114,0.109 0.109,0.114 0.109,0.117 0.102,0.121 0.094,0.125 0.09,0.125 0.082,0.129 0.082,0.137 0.078,0.136 0.066,0.137 0.059,0.137 0.058,0.144 0.094,0.289 0.039,0.153 0.031,0.152 0.024,0.152 0.019,0.153 0.008,0.152 0.004,0.16 c 0,1.735 -1.867,2.926 -3.898,2.926 -2.141,0 -3.746,-1.277 -3.746,-2.887 0,-0.699 0.46,-1.105 1.078,-1.105 0.652,0 1.078,0.469 1.078,1.086 0,1.054 -0.996,1.054 -1.305,1.054 0.649,1.039 2.047,1.317 2.813,1.317 0.863,0 2.031,-0.465 2.031,-2.371 0,-0.258 -0.047,-1.485 -0.594,-2.418 -0.633,-1.016 -1.355,-1.078 -1.883,-1.102 -0.172,-0.023 -0.676,-0.058 -0.828,-0.058 -0.168,-0.024 -0.32,-0.043 -0.32,-0.258 0,-0.231 0.152,-0.231 0.512,-0.231 l 0.929,0 c 1.742,0 2.528,-1.441 2.528,-3.523 0,-2.875 -1.465,-3.492 -2.399,-3.492 -0.91,0 -2.496,0.359 -3.238,1.609 0.742,-0.101 1.394,0.363 1.394,1.168 0,0.762 -0.57,1.184 -1.183,1.184 -0.508,0 -1.188,-0.293 -1.188,-1.231 0,-1.926 1.969,-3.32 4.282,-3.32 2.582,0 4.507,1.926 4.507,4.082 0,1.742 -1.332,3.39 -3.535,3.836 z"
         id="path3242"
         style="fill:#000000;fill-opacity:1;fill-rule:nonzero;stroke:none" /><path
         d="m 240.184,388.789 0,-345.195"
         id="path3244"
         style="fill:none;stroke:#000000;stroke-width:0.80000001;stroke-linecap:butt;stroke-linejoin:miter;stroke-miterlimit:4;stroke-opacity:1;stroke-dasharray:1.6, 0.8;stroke-dashoffset:0" /><path
         d="m 149.629,133.93 -0.063,0.543 0,5.722 c 0,0.703 0.047,0.848 1.032,0.848 l 1.89,0 c 3.367,0 3.367,-2.246 3.367,-3.281 0,-0.996 0,-3.289 -3.367,-3.289 l -2.922,0 0.063,-0.543 3.582,0 c 2.539,0 4.828,1.715 4.828,3.832 0,2.074 -2.094,3.941 -5,3.941 l -7.473,0 0,-0.66 0.504,0 c 1.633,0 1.672,-0.231 1.672,-0.992 l 0,-11.164 c 0,-0.766 -0.039,-0.996 -1.672,-0.996 l -0.504,0 0,-0.657 c 0.735,0.067 2.305,0.067 3.106,0.067 0.805,0 2.398,0 3.14,-0.067 l 0,0.657 -0.507,0 c -1.633,0 -1.676,0.23 -1.676,0.996 l 0,5.043 z"
         id="path3246"
         style="fill:#000000;fill-opacity:1;fill-rule:nonzero;stroke:none" /><path
         d="m 165.703,128.84 0.008,-0.078 0.012,-0.078 0.019,-0.082 0.016,-0.075 0.019,-0.082 0.024,-0.078 0.023,-0.074 0.031,-0.078 0.036,-0.074 0.031,-0.075 0.039,-0.074 0.039,-0.07 0.043,-0.067 0.047,-0.07 0.047,-0.066 0.051,-0.059 0.054,-0.062 0.055,-0.059 0.058,-0.055 0.125,-0.101 0.067,-0.043 0.07,-0.043 0.071,-0.039 0.156,-0.063 0.078,-0.027 0.082,-0.02 0.086,-0.015 0.082,-0.016 0.09,-0.008 0.093,-0.004 c 0.438,0 1.735,0.301 1.735,2.016 l 0,1.184 -0.531,0 0,-1.184 c 0,-1.23 -0.528,-1.355 -0.766,-1.355 -0.695,0 -0.781,0.949 -0.781,1.054 l 0,4.239 c 0,0.894 0,1.714 -0.758,2.5 -0.832,0.82 -1.887,1.16 -2.902,1.16 -1.743,0 -3.204,-0.989 -3.204,-2.391 0,-0.633 0.426,-0.996 0.977,-0.996 0.59,0 0.977,0.426 0.977,0.977 0,0.25 -0.106,0.949 -1.086,0.976 0.574,0.738 1.609,0.973 2.289,0.973 1.043,0 2.246,-0.828 2.246,-2.715 l 0,-3.348 c 0,-2.015 -1.524,-2.726 -2.481,-2.726 -1.039,0 -1.906,0.742 -1.906,1.797 0,1.16 0.891,2.925 4.387,3.05 l 0,0.446 c -1.078,-0.059 -2.563,-0.129 -3.895,-0.766 -1.586,-0.719 -2.121,-1.82 -2.121,-2.75 0,-1.715 2.055,-2.246 3.391,-2.246 1.398,0 2.371,0.844 2.777,1.84 z"
         id="path3248"
         style="fill:#000000;fill-opacity:1;fill-rule:nonzero;stroke:none" /><path
         d="m 171.504,130.047 0,0.051 0.004,0.019 0,0.043 0.004,0.024 0,0.023 0.011,0.082 0.004,0.031 0.004,0.035 0.008,0.032 0.012,0.035 0.015,0.07 0.012,0.035 0.012,0.039 0.047,0.118 0.039,0.078 0.023,0.043 0.02,0.039 0.027,0.043 0.024,0.039 0.031,0.039 0.027,0.039 0.035,0.043 c 0.828,-0.59 1.692,-0.66 2.098,-0.66 l 0,0.488 c -1.848,0 -1.848,2.121 -1.848,2.609 0,0.575 0.028,1.25 0.34,1.774 0.172,0.258 0.656,0.847 1.508,0.847 1.84,0 1.84,-2.117 1.84,-2.601 0,-0.57 -0.016,-1.25 -0.336,-1.781 -0.164,-0.25 -0.66,-0.848 -1.504,-0.848 l 0,-0.488 c 1.969,0 3.43,1.465 3.43,3.097 0,0.786 -0.34,1.571 -0.864,2.055 0.758,0.719 1.52,0.824 1.907,0.824 0.039,0 0.144,0 0.211,-0.023 -0.239,-0.082 -0.34,-0.317 -0.34,-0.57 0,-0.36 0.273,-0.61 0.613,-0.61 0.211,0 0.613,0.145 0.613,0.629 0,0.359 -0.258,1.035 -1.078,1.035 -0.426,0 -1.355,-0.125 -2.242,-0.988 -0.895,0.695 -1.785,0.758 -2.25,0.758 -1.973,0 -3.434,-1.461 -3.434,-3.09 0,-0.93 0.465,-1.738 0.996,-2.184 -0.273,-0.316 -0.66,-1.015 -0.66,-1.758 0,-0.652 0.282,-1.457 0.942,-1.882 -1.278,-0.36 -1.957,-1.27 -1.957,-2.121 0,-1.524 2.101,-2.692 4.687,-2.692 l 0.02,0.485 c -2.145,0 -3.602,1.086 -3.602,2.207 0,0.976 0.805,1.761 1.738,1.82 l 1.25,0 c 1.821,0 4.196,0 4.196,-1.82 0,-1.145 -1.504,-2.207 -3.582,-2.207 l -0.02,-0.485 c 2.496,0 4.703,1.082 4.703,2.735 0,0.742 -0.3,1.824 -1.375,2.414 -1.121,0.589 -2.351,0.589 -3.648,0.589 -0.531,0 -1.442,0 -1.59,0.024 -0.676,0.086 -1.121,0.742 -1.121,1.418 z"
         id="path3250"
         style="fill:#000000;fill-opacity:1;fill-rule:nonzero;stroke:none" /><path
         d="m 182.223,132.129 0.019,0.445 c 0.125,3.156 1.906,3.684 2.633,3.684 2.176,0 2.391,-2.86 2.391,-3.684 l -5.024,0 -0.019,-0.445 5.914,0 c 0.461,0 0.523,0 0.523,0.445 0,2.09 -1.144,4.145 -3.785,4.145 -2.461,0 -4.414,-2.176 -4.414,-4.828 0,-2.836 2.223,-4.891 4.664,-4.891 2.586,0 3.535,2.352 3.535,2.75 0,0.215 -0.168,0.262 -0.273,0.262 -0.192,0 -0.235,-0.129 -0.282,-0.301 -0.734,-2.18 -2.644,-2.18 -2.855,-2.18 -1.062,0 -1.906,0.633 -2.391,1.414 -0.636,1.02 -0.636,2.422 -0.636,3.184 z"
         id="path3252"
         style="fill:#000000;fill-opacity:1;fill-rule:nonzero;stroke:none" /><path
         d="m 202.445,134.688 0.16,0.054 0.157,0.063 0.16,0.066 0.148,0.07 0.149,0.079 0.144,0.078 0.141,0.086 0.266,0.187 0.132,0.098 0.125,0.101 0.118,0.11 0.113,0.109 0.113,0.113 0.106,0.118 0.101,0.121 0.094,0.125 0.09,0.125 0.086,0.129 0.156,0.273 0.066,0.137 0.063,0.136 0.058,0.145 0.094,0.289 0.039,0.152 0.055,0.305 0.016,0.152 0.007,0.153 0.004,0.16 c 0,1.734 -1.867,2.922 -3.898,2.922 -2.137,0 -3.746,-1.274 -3.746,-2.883 0,-0.699 0.465,-1.106 1.082,-1.106 0.648,0 1.074,0.469 1.074,1.086 0,1.055 -0.996,1.055 -1.305,1.055 0.649,1.039 2.051,1.316 2.813,1.316 0.863,0 2.035,-0.464 2.035,-2.371 0,-0.257 -0.047,-1.484 -0.598,-2.418 -0.633,-1.015 -1.355,-1.078 -1.883,-1.101 -0.168,-0.024 -0.675,-0.059 -0.828,-0.059 -0.168,-0.023 -0.32,-0.043 -0.32,-0.258 0,-0.23 0.152,-0.23 0.512,-0.23 l 0.929,0 c 1.747,0 2.528,-1.441 2.528,-3.523 0,-2.875 -1.465,-3.493 -2.399,-3.493 -0.91,0 -2.496,0.36 -3.234,1.61 0.738,-0.102 1.394,0.363 1.394,1.168 0,0.761 -0.57,1.183 -1.187,1.183 -0.508,0 -1.187,-0.293 -1.187,-1.23 0,-1.926 1.968,-3.32 4.281,-3.32 2.582,0 4.508,1.925 4.508,4.082 0,1.742 -1.332,3.39 -3.532,3.836 z"
         id="path3254"
         style="fill:#000000;fill-opacity:1;fill-rule:nonzero;stroke:none" /><path
         d="m 278.898,133.93 -0.066,0.543 0,5.722 c 0,0.703 0.047,0.848 1.035,0.848 l 1.887,0 c 3.367,0 3.367,-2.246 3.367,-3.281 0,-0.996 0,-3.289 -3.367,-3.289 l -2.922,0 0.066,-0.543 3.579,0 c 2.539,0 4.832,1.715 4.832,3.832 0,2.074 -2.098,3.941 -5,3.941 l -7.477,0 0,-0.66 0.508,0 c 1.633,0 1.668,-0.231 1.668,-0.992 l 0,-11.164 c 0,-0.766 -0.035,-0.996 -1.668,-0.996 l -0.508,0 0,-0.657 c 0.734,0.067 2.305,0.067 3.109,0.067 0.805,0 2.399,0 3.137,-0.067 l 0,0.657 -0.504,0 c -1.633,0 -1.676,0.23 -1.676,0.996 l 0,5.043 z"
         id="path3256"
         style="fill:#000000;fill-opacity:1;fill-rule:nonzero;stroke:none" /><path
         d="m 294.969,128.84 0.008,-0.078 0.015,-0.078 0.016,-0.082 0.015,-0.075 0.024,-0.082 0.019,-0.078 0.028,-0.074 0.027,-0.078 0.07,-0.149 0.039,-0.074 0.036,-0.07 0.043,-0.067 0.046,-0.07 0.047,-0.066 0.051,-0.059 0.059,-0.062 0.054,-0.059 0.059,-0.055 0.059,-0.05 0.062,-0.051 0.07,-0.043 0.067,-0.043 0.074,-0.039 0.074,-0.031 0.078,-0.032 0.082,-0.027 0.079,-0.02 0.171,-0.031 0.09,-0.008 0.094,-0.004 c 0.437,0 1.734,0.301 1.734,2.016 l 0,1.184 -0.531,0 0,-1.184 c 0,-1.23 -0.527,-1.355 -0.766,-1.355 -0.699,0 -0.781,0.949 -0.781,1.054 l 0,4.239 c 0,0.894 0,1.714 -0.758,2.5 -0.835,0.82 -1.886,1.16 -2.906,1.16 -1.742,0 -3.199,-0.989 -3.199,-2.391 0,-0.633 0.426,-0.996 0.973,-0.996 0.589,0 0.976,0.426 0.976,0.977 0,0.25 -0.105,0.949 -1.082,0.976 0.574,0.738 1.606,0.973 2.285,0.973 1.043,0 2.246,-0.828 2.246,-2.715 l 0,-3.348 c 0,-2.015 -1.523,-2.726 -2.476,-2.726 -1.039,0 -1.906,0.742 -1.906,1.797 0,1.16 0.886,2.925 4.382,3.05 l 0,0.446 c -1.074,-0.059 -2.558,-0.129 -3.894,-0.766 -1.586,-0.719 -2.117,-1.82 -2.117,-2.75 0,-1.715 2.054,-2.246 3.39,-2.246 1.399,0 2.371,0.844 2.774,1.84 z"
         id="path3258"
         style="fill:#000000;fill-opacity:1;fill-rule:nonzero;stroke:none" /><path
         d="m 300.77,130.047 0,0.051 0.003,0.019 0,0.043 0.004,0.024 0,0.023 0.012,0.082 0.008,0.031 0.004,0.035 0.008,0.032 0.023,0.105 0.016,0.035 0.023,0.078 0.016,0.04 0.019,0.039 0.016,0.039 0.023,0.039 0.02,0.043 0.023,0.039 0.024,0.043 0.054,0.078 0.032,0.039 0.035,0.043 c 0.828,-0.59 1.691,-0.66 2.094,-0.66 l 0,0.488 c -1.844,0 -1.844,2.121 -1.844,2.609 0,0.575 0.023,1.25 0.34,1.774 0.168,0.258 0.652,0.847 1.504,0.847 1.839,0 1.839,-2.117 1.839,-2.601 0,-0.57 -0.015,-1.25 -0.332,-1.781 -0.168,-0.25 -0.66,-0.848 -1.507,-0.848 l 0,-0.488 c 1.968,0 3.433,1.465 3.433,3.097 0,0.786 -0.34,1.571 -0.863,2.055 0.754,0.719 1.515,0.824 1.902,0.824 0.039,0 0.145,0 0.215,-0.023 -0.238,-0.082 -0.34,-0.317 -0.34,-0.57 0,-0.36 0.27,-0.61 0.61,-0.61 0.214,0 0.613,0.145 0.613,0.629 0,0.359 -0.254,1.035 -1.074,1.035 -0.426,0 -1.36,-0.125 -2.246,-0.988 -0.895,0.695 -1.782,0.758 -2.25,0.758 -1.973,0 -3.43,-1.461 -3.43,-3.09 0,-0.93 0.461,-1.738 0.992,-2.184 -0.269,-0.316 -0.656,-1.015 -0.656,-1.758 0,-0.652 0.281,-1.457 0.937,-1.882 -1.273,-0.36 -1.953,-1.27 -1.953,-2.121 0,-1.524 2.098,-2.692 4.684,-2.692 l 0.023,0.485 c -2.144,0 -3.601,1.086 -3.601,2.207 0,0.976 0.8,1.761 1.738,1.82 l 1.25,0 c 1.82,0 4.191,0 4.191,-1.82 0,-1.145 -1.5,-2.207 -3.578,-2.207 l -0.023,-0.485 c 2.496,0 4.703,1.082 4.703,2.735 0,0.742 -0.297,1.824 -1.375,2.414 -1.121,0.589 -2.352,0.589 -3.649,0.589 -0.531,0 -1.441,0 -1.589,0.024 -0.676,0.086 -1.121,0.742 -1.121,1.418 z"
         id="path3260"
         style="fill:#000000;fill-opacity:1;fill-rule:nonzero;stroke:none" /><path
         d="m 311.488,132.129 0.024,0.445 c 0.121,3.156 1.902,3.684 2.629,3.684 2.179,0 2.39,-2.86 2.39,-3.684 l -5.019,0 -0.024,-0.445 5.914,0 c 0.465,0 0.524,0 0.524,0.445 0,2.09 -1.145,4.145 -3.785,4.145 -2.461,0 -4.414,-2.176 -4.414,-4.828 0,-2.836 2.226,-4.891 4.668,-4.891 2.582,0 3.531,2.352 3.531,2.75 0,0.215 -0.164,0.262 -0.274,0.262 -0.191,0 -0.23,-0.129 -0.277,-0.301 -0.738,-2.18 -2.645,-2.18 -2.859,-2.18 -1.063,0 -1.903,0.633 -2.391,1.414 -0.637,1.02 -0.637,2.422 -0.637,3.184 z"
         id="path3262"
         style="fill:#000000;fill-opacity:1;fill-rule:nonzero;stroke:none" /><path
         d="m 331.793,140.793 0,0.203 -0.004,0.02 0,0.062 -0.004,0.012 -0.008,0.031 0,0.024 -0.007,0.023 -0.004,0.02 -0.008,0.023 -0.024,0.047 -0.015,0.012 -0.012,0.011 -0.016,0.012 -0.019,0.012 -0.016,0.007 -0.023,0.008 -0.012,0 -0.008,0.004 -0.011,0.004 -0.016,0 -0.012,0.004 -0.012,0 -0.015,0.004 -0.031,0 -0.012,0.004 -0.09,0 -0.023,0.004 -0.082,0 c -1.317,-1.356 -3.176,-1.356 -3.856,-1.356 l 0,-0.656 c 0.426,0 1.676,0 2.77,0.551 l 0,-10.973 c 0,-0.765 -0.059,-1.019 -1.965,-1.019 l -0.68,0 0,-0.657 c 0.746,0.067 2.586,0.067 3.43,0.067 0.851,0 2.691,0 3.437,-0.067 l 0,0.657 -0.679,0 c -1.907,0 -1.973,0.23 -1.973,1.019 l 0,11.883 z"
         id="path3264"
         style="fill:#000000;fill-opacity:1;fill-rule:nonzero;stroke:none" /><g
         transform="matrix(1,0,0,-1,0,432)"
         id="g3266"><path
           d="m 211.895,297.273 57.597,0"
           id="path3268"
           style="fill:none;stroke:#000000;stroke-width:0.80000001;stroke-linecap:butt;stroke-linejoin:miter;stroke-miterlimit:4;stroke-opacity:1;stroke-dasharray:none" /></g><g
         transform="matrix(1,0,0,-1,0,432)"
         id="g3270"><path
           d="m 219.895,297.273 3.199,-3.199 -11.199,3.199 11.199,3.2 -3.199,-3.2 z"
           id="path3272"
           style="fill:#000000;fill-opacity:1;fill-rule:evenodd;stroke:#000000;stroke-width:0.80000001;stroke-linecap:butt;stroke-linejoin:miter;stroke-miterlimit:4;stroke-opacity:1;stroke-dasharray:none" /></g><g
         transform="matrix(-1,0,0,1,0,432)"
         id="g3274"><path
           d="m -261.492,-297.273 3.199,-3.2 -11.199,3.2 11.199,3.199 -3.199,-3.199 z"
           id="path3276"
           style="fill:#000000;fill-opacity:1;fill-rule:evenodd;stroke:#000000;stroke-width:0.80000001;stroke-linecap:butt;stroke-linejoin:miter;stroke-miterlimit:4;stroke-opacity:1;stroke-dasharray:none" /></g><path
         d="m 243.133,134.727 c 0,-1.618 -1.309,-2.93 -2.93,-2.93 -1.617,0 -2.926,1.312 -2.926,2.93 0,1.617 1.309,2.925 2.926,2.925 1.621,0 2.93,-1.308 2.93,-2.925 z"
         id="path3278"
         style="fill:#000000;fill-opacity:1;fill-rule:nonzero;stroke:none" /></g></g></svg>