<?xml version="1.0" encoding="UTF-8" standalone="no"?>
<!-- Created with matplotlib (http://matplotlib.org/) -->

<svg
   xmlns:dc="http://purl.org/dc/elements/1.1/"
   xmlns:cc="http://creativecommons.org/ns#"
   xmlns:rdf="http://www.w3.org/1999/02/22-rdf-syntax-ns#"
   xmlns:svg="http://www.w3.org/2000/svg"
   xmlns="http://www.w3.org/2000/svg"
   xmlns:xlink="http://www.w3.org/1999/xlink"
   xmlns:sodipodi="http://sodipodi.sourceforge.net/DTD/sodipodi-0.dtd"
   xmlns:inkscape="http://www.inkscape.org/namespaces/inkscape"
   height="432pt"
   version="1.1"
   viewBox="0 0 576 432"
   width="576pt"
   id="svg2"
   inkscape:version="0.48.5 r10040"
   sodipodi:docname="max_dual_1.svg">
  <metadata
     id="metadata337">
    <rdf:RDF>
      <cc:Work
         rdf:about="">
        <dc:format>image/svg+xml</dc:format>
        <dc:type
           rdf:resource="http://purl.org/dc/dcmitype/StillImage" />
      </cc:Work>
    </rdf:RDF>
  </metadata>
  <sodipodi:namedview
     pagecolor="#ffffff"
     bordercolor="#666666"
     borderopacity="1"
     objecttolerance="10"
     gridtolerance="10"
     guidetolerance="10"
     inkscape:pageopacity="0"
     inkscape:pageshadow="2"
     inkscape:window-width="1920"
     inkscape:window-height="1059"
     id="namedview335"
     showgrid="false"
     inkscape:zoom="1.2361274"
     inkscape:cx="241.49704"
     inkscape:cy="252.52129"
     inkscape:window-x="-4"
     inkscape:window-y="-4"
     inkscape:window-maximized="1"
     inkscape:current-layer="svg2" />
  <defs
     id="defs4">
    <style
       type="text/css"
       id="style6">
*{stroke-linecap:butt;stroke-linejoin:round;}
  </style>
  </defs>
  <g
     id="figure_1">
    <g
       id="patch_1">
      <path
         d=" M0 432 L576 432 L576 0 L0 0 z "
         style="fill:#ffffff;"
         id="path10" />
    </g>
    <g
       id="axes_1">
      <g
         id="patch_2">
        <path
           d=" M72 378 L518.4 378 L518.4 43.2 L72 43.2 z "
           style="fill:#ffffff;"
           id="path14" />
      </g>
      <g
         id="line2d_1">
        <path
           clip-path="url(#p332b41defa)"
           d=" M72.0004 375.134 L72.4428 372.825 L73.3276 372.034 L74.6547 371.387 L76.4242 370.806 L79.5209 370.074 L83.9447 369.29 L90.5803 368.367 L100.313 367.262 L114.469 365.899 L136.588 364.012 L233.026 356.009 L258.242 353.586 L279.918 351.283 L298.94 349.044 L315.751 346.85 L331.234 344.608 L344.948 342.404 L357.334 340.198 L368.836 337.928 L379.453 335.604 L389.185 333.242 L398.033 330.863 L405.996 328.497 L413.516 326.03 L420.152 323.629 L426.345 321.166 L432.096 318.653 L437.405 316.105 L442.271 313.544 L447.137 310.731 L451.561 307.917 L455.542 305.139 L459.524 302.088 L463.063 299.108 L466.602 295.831 L469.698 292.68 L472.795 289.217 L475.891 285.385 L478.546 281.755 L481.2 277.746 L483.854 273.288 L486.066 269.163 L488.278 264.595 L490.49 259.498 L492.702 253.76 L494.471 248.61 L496.241 242.858 L498.01 236.375 L499.78 228.993 L501.549 220.48 L502.877 213.165 L504.204 204.849 L505.531 195.281 L506.858 184.111 L508.185 170.833 L509.512 154.688 L510.397 141.763 L511.282 126.501 L512.166 108.098 L513.051 85.3053 L513.936 56.0401 L513.936 56.0401"
           style="fill:none;stroke:#0000ff;stroke-linecap:square;"
           id="path17" />
      </g>
      <g
         id="patch_3">
        <path
           d=" M72 43.2 L518.4 43.2"
           style="fill:none;stroke:#000000;stroke-linecap:square;stroke-linejoin:miter;"
           id="path20" />
      </g>
      <g
         id="patch_4">
        <path
           d=" M518.4 378 L518.4 43.2"
           style="fill:none;stroke:#000000;stroke-linecap:square;stroke-linejoin:miter;"
           id="path23" />
      </g>
      <g
         id="patch_5">
        <path
           d=" M72 378 L518.4 378"
           style="fill:none;stroke:#000000;stroke-linecap:square;stroke-linejoin:miter;"
           id="path26" />
      </g>
      <g
         id="patch_6">
        <path
           d=" M72 378 L72 43.2"
           style="fill:none;stroke:#000000;stroke-linecap:square;stroke-linejoin:miter;"
           id="path29" />
      </g>
      <g
         id="matplotlib.axis_1">
        <g
           id="xtick_1">
          <g
             id="line2d_2">
            <defs
               id="defs34">
              <path
                 d=" M0 0 L0 -4"
                 id="m93b0483c22"
                 style="stroke:#000000;stroke-width:0.5;" />
            </defs>
            <g
               id="g37">
              <use
                 style="stroke:#000000;stroke-width:0.5;"
                 x="72.0"
                 xlink:href="#m93b0483c22"
                 y="378.0"
                 id="use39" />
            </g>
          </g>
          <g
             id="line2d_3">
            <defs
               id="defs42">
              <path
                 d=" M0 0 L0 4"
                 id="m741efc42ff"
                 style="stroke:#000000;stroke-width:0.5;" />
            </defs>
            <g
               id="g45">
              <use
                 style="stroke:#000000;stroke-width:0.5;"
                 x="72.0"
                 xlink:href="#m741efc42ff"
                 y="43.2"
                 id="use47" />
            </g>
          </g>
          <g
             id="text_1">
            <!-- −1.0 -->
            <defs
               id="defs50">
              <path
                 d=" M10.5938 35.5 L73.1875 35.5 L73.1875 27.2031 L10.5938 27.2031 z "
                 id="BitstreamVeraSans-Roman-2212" />
              <path
                 d=" M31.7812 66.4062 Q24.1719 66.4062 20.3281 58.9062 Q16.5 51.4219 16.5 36.375 Q16.5 21.3906 20.3281 13.8906 Q24.1719 6.39062 31.7812 6.39062 Q39.4531 6.39062 43.2812 13.8906 Q47.125 21.3906 47.125 36.375 Q47.125 51.4219 43.2812 58.9062 Q39.4531 66.4062 31.7812 66.4062 M31.7812 74.2188 Q44.0469 74.2188 50.5156 64.5156 Q56.9844 54.8281 56.9844 36.375 Q56.9844 17.9688 50.5156 8.26562 Q44.0469 -1.42188 31.7812 -1.42188 Q19.5312 -1.42188 13.0625 8.26562 Q6.59375 17.9688 6.59375 36.375 Q6.59375 54.8281 13.0625 64.5156 Q19.5312 74.2188 31.7812 74.2188"
                 id="BitstreamVeraSans-Roman-30" />
              <path
                 d=" M12.4062 8.29688 L28.5156 8.29688 L28.5156 63.9219 L10.9844 60.4062 L10.9844 69.3906 L28.4219 72.9062 L38.2812 72.9062 L38.2812 8.29688 L54.3906 8.29688 L54.3906 0 L12.4062 0 z "
                 id="BitstreamVeraSans-Roman-31" />
              <path
                 d=" M10.6875 12.4062 L21 12.4062 L21 0 L10.6875 0 z "
                 id="BitstreamVeraSans-Roman-2e" />
            </defs>
            <g
               transform="translate(60.7203125 389.5984375)scale(0.1 -0.1)"
               id="g56">
              <use
                 xlink:href="#BitstreamVeraSans-Roman-2212"
                 id="use58" />
              <use
                 x="83.7890625"
                 xlink:href="#BitstreamVeraSans-Roman-31"
                 id="use60" />
              <use
                 x="147.412109375"
                 xlink:href="#BitstreamVeraSans-Roman-2e"
                 id="use62" />
              <use
                 x="179.19921875"
                 xlink:href="#BitstreamVeraSans-Roman-30"
                 id="use64" />
            </g>
          </g>
        </g>
        <g
           id="xtick_2">
          <g
             id="line2d_4">
            <g
               id="g68">
              <use
                 style="stroke:#000000;stroke-width:0.5;"
                 x="161.28"
                 xlink:href="#m93b0483c22"
                 y="378.0"
                 id="use70" />
            </g>
          </g>
          <g
             id="line2d_5">
            <g
               id="g73">
              <use
                 style="stroke:#000000;stroke-width:0.5;"
                 x="161.28"
                 xlink:href="#m741efc42ff"
                 y="43.2"
                 id="use75" />
            </g>
          </g>
          <g
             id="text_2">
            <!-- −0.8 -->
            <defs
               id="defs78">
              <path
                 d=" M31.7812 34.625 Q24.75 34.625 20.7188 30.8594 Q16.7031 27.0938 16.7031 20.5156 Q16.7031 13.9219 20.7188 10.1562 Q24.75 6.39062 31.7812 6.39062 Q38.8125 6.39062 42.8594 10.1719 Q46.9219 13.9688 46.9219 20.5156 Q46.9219 27.0938 42.8906 30.8594 Q38.875 34.625 31.7812 34.625 M21.9219 38.8125 Q15.5781 40.375 12.0312 44.7188 Q8.5 49.0781 8.5 55.3281 Q8.5 64.0625 14.7188 69.1406 Q20.9531 74.2188 31.7812 74.2188 Q42.6719 74.2188 48.875 69.1406 Q55.0781 64.0625 55.0781 55.3281 Q55.0781 49.0781 51.5312 44.7188 Q48 40.375 41.7031 38.8125 Q48.8281 37.1562 52.7969 32.3125 Q56.7812 27.4844 56.7812 20.5156 Q56.7812 9.90625 50.3125 4.23438 Q43.8438 -1.42188 31.7812 -1.42188 Q19.7344 -1.42188 13.25 4.23438 Q6.78125 9.90625 6.78125 20.5156 Q6.78125 27.4844 10.7812 32.3125 Q14.7969 37.1562 21.9219 38.8125 M18.3125 54.3906 Q18.3125 48.7344 21.8438 45.5625 Q25.3906 42.3906 31.7812 42.3906 Q38.1406 42.3906 41.7188 45.5625 Q45.3125 48.7344 45.3125 54.3906 Q45.3125 60.0625 41.7188 63.2344 Q38.1406 66.4062 31.7812 66.4062 Q25.3906 66.4062 21.8438 63.2344 Q18.3125 60.0625 18.3125 54.3906"
                 id="BitstreamVeraSans-Roman-38" />
            </defs>
            <g
               transform="translate(150.01046875 389.5984375)scale(0.1 -0.1)"
               id="g81">
              <use
                 xlink:href="#BitstreamVeraSans-Roman-2212"
                 id="use83" />
              <use
                 x="83.7890625"
                 xlink:href="#BitstreamVeraSans-Roman-30"
                 id="use85" />
              <use
                 x="147.412109375"
                 xlink:href="#BitstreamVeraSans-Roman-2e"
                 id="use87" />
              <use
                 x="179.19921875"
                 xlink:href="#BitstreamVeraSans-Roman-38"
                 id="use89" />
            </g>
          </g>
        </g>
        <g
           id="xtick_3">
          <g
             id="line2d_6">
            <g
               id="g93">
              <use
                 style="stroke:#000000;stroke-width:0.5;"
                 x="250.56"
                 xlink:href="#m93b0483c22"
                 y="378.0"
                 id="use95" />
            </g>
          </g>
          <g
             id="line2d_7">
            <g
               id="g98">
              <use
                 style="stroke:#000000;stroke-width:0.5;"
                 x="250.56"
                 xlink:href="#m741efc42ff"
                 y="43.2"
                 id="use100" />
            </g>
          </g>
          <g
             id="text_3">
            <!-- −0.6 -->
            <defs
               id="defs103">
              <path
                 d=" M33.0156 40.375 Q26.375 40.375 22.4844 35.8281 Q18.6094 31.2969 18.6094 23.3906 Q18.6094 15.5312 22.4844 10.9531 Q26.375 6.39062 33.0156 6.39062 Q39.6562 6.39062 43.5312 10.9531 Q47.4062 15.5312 47.4062 23.3906 Q47.4062 31.2969 43.5312 35.8281 Q39.6562 40.375 33.0156 40.375 M52.5938 71.2969 L52.5938 62.3125 Q48.875 64.0625 45.0938 64.9844 Q41.3125 65.9219 37.5938 65.9219 Q27.8281 65.9219 22.6719 59.3281 Q17.5312 52.7344 16.7969 39.4062 Q19.6719 43.6562 24.0156 45.9219 Q28.375 48.1875 33.5938 48.1875 Q44.5781 48.1875 50.9531 41.5156 Q57.3281 34.8594 57.3281 23.3906 Q57.3281 12.1562 50.6875 5.35938 Q44.0469 -1.42188 33.0156 -1.42188 Q20.3594 -1.42188 13.6719 8.26562 Q6.98438 17.9688 6.98438 36.375 Q6.98438 53.6562 15.1875 63.9375 Q23.3906 74.2188 37.2031 74.2188 Q40.9219 74.2188 44.7031 73.4844 Q48.4844 72.75 52.5938 71.2969"
                 id="BitstreamVeraSans-Roman-36" />
            </defs>
            <g
               transform="translate(239.263125 389.5984375)scale(0.1 -0.1)"
               id="g106">
              <use
                 xlink:href="#BitstreamVeraSans-Roman-2212"
                 id="use108" />
              <use
                 x="83.7890625"
                 xlink:href="#BitstreamVeraSans-Roman-30"
                 id="use110" />
              <use
                 x="147.412109375"
                 xlink:href="#BitstreamVeraSans-Roman-2e"
                 id="use112" />
              <use
                 x="179.19921875"
                 xlink:href="#BitstreamVeraSans-Roman-36"
                 id="use114" />
            </g>
          </g>
        </g>
        <g
           id="xtick_4">
          <g
             id="line2d_8">
            <g
               id="g118">
              <use
                 style="stroke:#000000;stroke-width:0.5;"
                 x="339.84"
                 xlink:href="#m93b0483c22"
                 y="378.0"
                 id="use120" />
            </g>
          </g>
          <g
             id="line2d_9">
            <g
               id="g123">
              <use
                 style="stroke:#000000;stroke-width:0.5;"
                 x="339.84"
                 xlink:href="#m741efc42ff"
                 y="43.2"
                 id="use125" />
            </g>
          </g>
          <g
             id="text_4">
            <!-- −0.4 -->
            <defs
               id="defs128">
              <path
                 d=" M37.7969 64.3125 L12.8906 25.3906 L37.7969 25.3906 z  M35.2031 72.9062 L47.6094 72.9062 L47.6094 25.3906 L58.0156 25.3906 L58.0156 17.1875 L47.6094 17.1875 L47.6094 0 L37.7969 0 L37.7969 17.1875 L4.89062 17.1875 L4.89062 26.7031 z "
                 id="BitstreamVeraSans-Roman-34" />
            </defs>
            <g
               transform="translate(328.50875 389.5984375)scale(0.1 -0.1)"
               id="g131">
              <use
                 xlink:href="#BitstreamVeraSans-Roman-2212"
                 id="use133" />
              <use
                 x="83.7890625"
                 xlink:href="#BitstreamVeraSans-Roman-30"
                 id="use135" />
              <use
                 x="147.412109375"
                 xlink:href="#BitstreamVeraSans-Roman-2e"
                 id="use137" />
              <use
                 x="179.19921875"
                 xlink:href="#BitstreamVeraSans-Roman-34"
                 id="use139" />
            </g>
          </g>
        </g>
        <g
           id="xtick_5">
          <g
             id="line2d_10">
            <g
               id="g143">
              <use
                 style="stroke:#000000;stroke-width:0.5;"
                 x="429.12"
                 xlink:href="#m93b0483c22"
                 y="378.0"
                 id="use145" />
            </g>
          </g>
          <g
             id="line2d_11">
            <g
               id="g148">
              <use
                 style="stroke:#000000;stroke-width:0.5;"
                 x="429.12"
                 xlink:href="#m741efc42ff"
                 y="43.2"
                 id="use150" />
            </g>
          </g>
          <g
             id="text_5">
            <!-- −0.2 -->
            <defs
               id="defs153">
              <path
                 d=" M19.1875 8.29688 L53.6094 8.29688 L53.6094 0 L7.32812 0 L7.32812 8.29688 Q12.9375 14.1094 22.625 23.8906 Q32.3281 33.6875 34.8125 36.5312 Q39.5469 41.8438 41.4219 45.5312 Q43.3125 49.2188 43.3125 52.7812 Q43.3125 58.5938 39.2344 62.25 Q35.1562 65.9219 28.6094 65.9219 Q23.9688 65.9219 18.8125 64.3125 Q13.6719 62.7031 7.8125 59.4219 L7.8125 69.3906 Q13.7656 71.7812 18.9375 73 Q24.125 74.2188 28.4219 74.2188 Q39.75 74.2188 46.4844 68.5469 Q53.2188 62.8906 53.2188 53.4219 Q53.2188 48.9219 51.5312 44.8906 Q49.8594 40.875 45.4062 35.4062 Q44.1875 33.9844 37.6406 27.2188 Q31.1094 20.4531 19.1875 8.29688"
                 id="BitstreamVeraSans-Roman-32" />
            </defs>
            <g
               transform="translate(418.0090625 389.5984375)scale(0.1 -0.1)"
               id="g156">
              <use
                 xlink:href="#BitstreamVeraSans-Roman-2212"
                 id="use158" />
              <use
                 x="83.7890625"
                 xlink:href="#BitstreamVeraSans-Roman-30"
                 id="use160" />
              <use
                 x="147.412109375"
                 xlink:href="#BitstreamVeraSans-Roman-2e"
                 id="use162" />
              <use
                 x="179.19921875"
                 xlink:href="#BitstreamVeraSans-Roman-32"
                 id="use164" />
            </g>
          </g>
        </g>
        <g
           id="xtick_6">
          <g
             id="line2d_12">
            <g
               id="g168">
              <use
                 style="stroke:#000000;stroke-width:0.5;"
                 x="518.4"
                 xlink:href="#m93b0483c22"
                 y="378.0"
                 id="use170" />
            </g>
          </g>
          <g
             id="line2d_13">
            <g
               id="g173">
              <use
                 style="stroke:#000000;stroke-width:0.5;"
                 x="518.4"
                 xlink:href="#m741efc42ff"
                 y="43.2"
                 id="use175" />
            </g>
          </g>
          <g
             id="text_6">
            <!-- 0.0 -->
            <g
               transform="translate(511.11015625 389.5984375)scale(0.1 -0.1)"
               id="g178">
              <use
                 xlink:href="#BitstreamVeraSans-Roman-30"
                 id="use180" />
              <use
                 x="63.623046875"
                 xlink:href="#BitstreamVeraSans-Roman-2e"
                 id="use182" />
              <use
                 x="95.41015625"
                 xlink:href="#BitstreamVeraSans-Roman-30"
                 id="use184" />
            </g>
          </g>
        </g>
      </g>
      <g
         id="matplotlib.axis_2">
        <g
           id="ytick_1">
          <g
             id="line2d_14">
            <defs
               id="defs189">
              <path
                 d=" M0 0 L4 0"
                 id="m728421d6d4"
                 style="stroke:#000000;stroke-width:0.5;" />
            </defs>
            <g
               id="g192">
              <use
                 style="stroke:#000000;stroke-width:0.5;"
                 x="72.0"
                 xlink:href="#m728421d6d4"
                 y="378.0"
                 id="use194" />
            </g>
          </g>
          <g
             id="line2d_15">
            <defs
               id="defs197">
              <path
                 d=" M0 0 L-4 0"
                 id="mcb0005524f"
                 style="stroke:#000000;stroke-width:0.5;" />
            </defs>
            <g
               id="g200">
              <use
                 style="stroke:#000000;stroke-width:0.5;"
                 x="518.4"
                 xlink:href="#mcb0005524f"
                 y="378.0"
                 id="use202" />
            </g>
          </g>
          <g
             id="text_7">
            <!-- 0 -->
            <g
               transform="translate(62.9609375 380.759375)scale(0.1 -0.1)"
               id="g205">
              <use
                 xlink:href="#BitstreamVeraSans-Roman-30"
                 id="use207" />
            </g>
          </g>
        </g>
        <g
           id="ytick_2">
          <g
             id="line2d_16">
            <g
               id="g211">
              <use
                 style="stroke:#000000;stroke-width:0.5;"
                 x="72.0"
                 xlink:href="#m728421d6d4"
                 y="330.171428571"
                 id="use213" />
            </g>
          </g>
          <g
             id="line2d_17">
            <g
               id="g216">
              <use
                 style="stroke:#000000;stroke-width:0.5;"
                 x="518.4"
                 xlink:href="#mcb0005524f"
                 y="330.171428571"
                 id="use218" />
            </g>
          </g>
          <g
             id="text_8">
            <!-- 1 -->
            <g
               transform="translate(63.659375 332.930803571)scale(0.1 -0.1)"
               id="g221">
              <use
                 xlink:href="#BitstreamVeraSans-Roman-31"
                 id="use223" />
            </g>
          </g>
        </g>
        <g
           id="ytick_3">
          <g
             id="line2d_18">
            <g
               id="g227">
              <use
                 style="stroke:#000000;stroke-width:0.5;"
                 x="72.0"
                 xlink:href="#m728421d6d4"
                 y="282.342857143"
                 id="use229" />
            </g>
          </g>
          <g
             id="line2d_19">
            <g
               id="g232">
              <use
                 style="stroke:#000000;stroke-width:0.5;"
                 x="518.4"
                 xlink:href="#mcb0005524f"
                 y="282.342857143"
                 id="use234" />
            </g>
          </g>
          <g
             id="text_9">
            <!-- 2 -->
            <g
               transform="translate(63.371875 285.102232143)scale(0.1 -0.1)"
               id="g237">
              <use
                 xlink:href="#BitstreamVeraSans-Roman-32"
                 id="use239" />
            </g>
          </g>
        </g>
        <g
           id="ytick_4">
          <g
             id="line2d_20">
            <g
               id="g243">
              <use
                 style="stroke:#000000;stroke-width:0.5;"
                 x="72.0"
                 xlink:href="#m728421d6d4"
                 y="234.514285714"
                 id="use245" />
            </g>
          </g>
          <g
             id="line2d_21">
            <g
               id="g248">
              <use
                 style="stroke:#000000;stroke-width:0.5;"
                 x="518.4"
                 xlink:href="#mcb0005524f"
                 y="234.514285714"
                 id="use250" />
            </g>
          </g>
          <g
             id="text_10">
            <!-- 3 -->
            <defs
               id="defs253">
              <path
                 d=" M40.5781 39.3125 Q47.6562 37.7969 51.625 33 Q55.6094 28.2188 55.6094 21.1875 Q55.6094 10.4062 48.1875 4.48438 Q40.7656 -1.42188 27.0938 -1.42188 Q22.5156 -1.42188 17.6562 -0.515625 Q12.7969 0.390625 7.625 2.20312 L7.625 11.7188 Q11.7188 9.32812 16.5938 8.10938 Q21.4844 6.89062 26.8125 6.89062 Q36.0781 6.89062 40.9375 10.5469 Q45.7969 14.2031 45.7969 21.1875 Q45.7969 27.6406 41.2812 31.2656 Q36.7656 34.9062 28.7188 34.9062 L20.2188 34.9062 L20.2188 43.0156 L29.1094 43.0156 Q36.375 43.0156 40.2344 45.9219 Q44.0938 48.8281 44.0938 54.2969 Q44.0938 59.9062 40.1094 62.9062 Q36.1406 65.9219 28.7188 65.9219 Q24.6562 65.9219 20.0156 65.0312 Q15.375 64.1562 9.8125 62.3125 L9.8125 71.0938 Q15.4375 72.6562 20.3438 73.4375 Q25.25 74.2188 29.5938 74.2188 Q40.8281 74.2188 47.3594 69.1094 Q53.9062 64.0156 53.9062 55.3281 Q53.9062 49.2656 50.4375 45.0938 Q46.9688 40.9219 40.5781 39.3125"
                 id="BitstreamVeraSans-Roman-33" />
            </defs>
            <g
               transform="translate(63.2015625 237.273660714)scale(0.1 -0.1)"
               id="g256">
              <use
                 xlink:href="#BitstreamVeraSans-Roman-33"
                 id="use258" />
            </g>
          </g>
        </g>
        <g
           id="ytick_5">
          <g
             id="line2d_22">
            <g
               id="g262">
              <use
                 style="stroke:#000000;stroke-width:0.5;"
                 x="72.0"
                 xlink:href="#m728421d6d4"
                 y="186.685714286"
                 id="use264" />
            </g>
          </g>
          <g
             id="line2d_23">
            <g
               id="g267">
              <use
                 style="stroke:#000000;stroke-width:0.5;"
                 x="518.4"
                 xlink:href="#mcb0005524f"
                 y="186.685714286"
                 id="use269" />
            </g>
          </g>
          <g
             id="text_11">
            <!-- 4 -->
            <g
               transform="translate(62.6875 189.445089286)scale(0.1 -0.1)"
               id="g272">
              <use
                 xlink:href="#BitstreamVeraSans-Roman-34"
                 id="use274" />
            </g>
          </g>
        </g>
        <g
           id="ytick_6">
          <g
             id="line2d_24">
            <g
               id="g278">
              <use
                 style="stroke:#000000;stroke-width:0.5;"
                 x="72.0"
                 xlink:href="#m728421d6d4"
                 y="138.857142857"
                 id="use280" />
            </g>
          </g>
          <g
             id="line2d_25">
            <g
               id="g283">
              <use
                 style="stroke:#000000;stroke-width:0.5;"
                 x="518.4"
                 xlink:href="#mcb0005524f"
                 y="138.857142857"
                 id="use285" />
            </g>
          </g>
          <g
             id="text_12">
            <!-- 5 -->
            <defs
               id="defs288">
              <path
                 d=" M10.7969 72.9062 L49.5156 72.9062 L49.5156 64.5938 L19.8281 64.5938 L19.8281 46.7344 Q21.9688 47.4688 24.1094 47.8281 Q26.2656 48.1875 28.4219 48.1875 Q40.625 48.1875 47.75 41.5 Q54.8906 34.8125 54.8906 23.3906 Q54.8906 11.625 47.5625 5.09375 Q40.2344 -1.42188 26.9062 -1.42188 Q22.3125 -1.42188 17.5469 -0.640625 Q12.7969 0.140625 7.71875 1.70312 L7.71875 11.625 Q12.1094 9.23438 16.7969 8.0625 Q21.4844 6.89062 26.7031 6.89062 Q35.1562 6.89062 40.0781 11.3281 Q45.0156 15.7656 45.0156 23.3906 Q45.0156 31 40.0781 35.4375 Q35.1562 39.8906 26.7031 39.8906 Q22.75 39.8906 18.8125 39.0156 Q14.8906 38.1406 10.7969 36.2812 z "
                 id="BitstreamVeraSans-Roman-35" />
            </defs>
            <g
               transform="translate(63.2828125 141.616517857)scale(0.1 -0.1)"
               id="g291">
              <use
                 xlink:href="#BitstreamVeraSans-Roman-35"
                 id="use293" />
            </g>
          </g>
        </g>
        <g
           id="ytick_7">
          <g
             id="line2d_26">
            <g
               id="g297">
              <use
                 style="stroke:#000000;stroke-width:0.5;"
                 x="72.0"
                 xlink:href="#m728421d6d4"
                 y="91.0285714286"
                 id="use299" />
            </g>
          </g>
          <g
             id="line2d_27">
            <g
               id="g302">
              <use
                 style="stroke:#000000;stroke-width:0.5;"
                 x="518.4"
                 xlink:href="#mcb0005524f"
                 y="91.0285714286"
                 id="use304" />
            </g>
          </g>
          <g
             id="text_13">
            <!-- 6 -->
            <g
               transform="translate(62.965625 93.7879464286)scale(0.1 -0.1)"
               id="g307">
              <use
                 xlink:href="#BitstreamVeraSans-Roman-36"
                 id="use309" />
            </g>
          </g>
        </g>
        <g
           id="ytick_8">
          <g
             id="line2d_28">
            <g
               id="g313">
              <use
                 style="stroke:#000000;stroke-width:0.5;"
                 x="72.0"
                 xlink:href="#m728421d6d4"
                 y="43.2"
                 id="use315" />
            </g>
          </g>
          <g
             id="line2d_29">
            <g
               id="g318">
              <use
                 style="stroke:#000000;stroke-width:0.5;"
                 x="518.4"
                 xlink:href="#mcb0005524f"
                 y="43.2"
                 id="use320" />
            </g>
          </g>
          <g
             id="text_14">
            <!-- 7 -->
            <defs
               id="defs323">
              <path
                 d=" M8.20312 72.9062 L55.0781 72.9062 L55.0781 68.7031 L28.6094 0 L18.3125 0 L43.2188 64.5938 L8.20312 64.5938 z "
                 id="BitstreamVeraSans-Roman-37" />
            </defs>
            <g
               transform="translate(63.3125 45.959375)scale(0.1 -0.1)"
               id="g326">
              <use
                 xlink:href="#BitstreamVeraSans-Roman-37"
                 id="use328" />
            </g>
          </g>
        </g>
      </g>
    </g>
  </g>
  <defs
     id="defs330">
    <clipPath
       id="p332b41defa">
      <rect
         height="334.8"
         width="446.4"
         x="72.0"
         y="43.2"
         id="rect333" />
    </clipPath>
  </defs>
  <g
     transform="matrix(0.4,0,0,0.4,163.85904,264.46936)"
     id="g3371"
     style="stroke-linecap:butt;stroke-linejoin:round">
    <g
       style="font-style:normal;font-variant:normal;font-weight:normal;font-stretch:normal;letter-spacing:normal;word-spacing:normal;text-anchor:start;fill:none;stroke:#000000;stroke-linecap:butt;stroke-linejoin:miter;stroke-miterlimit:10.43299961;stroke-opacity:1;stroke-dasharray:none;stroke-dashoffset:0"
       word-spacing="normal"
       letter-spacing="normal"
       font-size-adjust="none"
       font-stretch="normal"
       font-weight="normal"
       font-variant="normal"
       font-style="normal"
       stroke-miterlimit="10.433"
       xml:space="preserve"
       transform="matrix(1.0629921,0,0,-1.0629921,-186.02362,789.27165)"
       id="g3373"><path
         style="fill:#000000;stroke-width:0;stroke-linecap:butt;stroke-linejoin:round"
         inkscape:connector-curvature="0"
         id="path3375"
         d="m 507.58,430.67 0.3,0.31 0.28,0.32 0.27,0.33 0.26,0.33 0.26,0.34 0.24,0.33 0.23,0.34 0.22,0.34 0.21,0.34 0.19,0.34 0.19,0.34 0.18,0.33 0.17,0.33 0.16,0.32 0.15,0.32 0.14,0.3 0.13,0.3 0.13,0.29 0.11,0.28 0.1,0.27 0.1,0.25 0.08,0.25 0.08,0.22 0.07,0.21 0.06,0.2 0.05,0.17 0.04,0.16 0.04,0.14 0.03,0.11 0.02,0.1 0.01,0.07 0,0.05 c 0,0.45 -0.42,0.45 -0.59,0.45 -0.5,0 -0.5,-0.09 -0.74,-0.86 -0.62,-2.31 -1.78,-4.44 -3.25,-6.31 -0.03,0.51 -0.09,2.86 -0.17,3.17 -0.51,3.45 -3.12,5.67 -6.61,5.67 l -0.04,-0.97 c 2.79,0 3.59,-2.69 3.87,-4.84 0.2,-1.5 0.14,-3.97 0.31,-5.81 h 0 c -3.42,-2.8 -6.37,-3.11 -7.7,-3.11 -2.3,0 -3.59,1.53 -3.59,3.87 0,1 0.5,4.8 2.31,7.2 1.59,2.1 3.58,2.69 4.8,2.69 l 0.04,0.97 c -5.12,0 -10.04,-4.76 -10.04,-9.64 0,-3.2 2.34,-6.06 6.37,-6.06 3.22,0 6.11,1.45 8.05,2.95 0.81,-2.55 2.59,-2.95 3.62,-2.95 2.03,0 3.28,1.7 3.28,2.44 0,0.42 -0.42,0.42 -0.59,0.42 -0.45,0 -0.52,-0.14 -0.59,-0.36 -0.49,-1.31 -1.57,-1.53 -1.99,-1.53 -0.48,0 -1.08,0 -1.25,4.28 z" /><polyline
         style="fill:#000000;fill-rule:nonzero;stroke-width:0;stroke-linecap:butt;stroke-linejoin:round"
         id="polyline3377"
         points="462,418 541.92,418 541.92,420.04 462,420.04 " /><path
         style="fill:#000000;stroke-width:0;stroke-linecap:butt;stroke-linejoin:round"
         inkscape:connector-curvature="0"
         id="path3379"
         d="m 490.58,409.04 0.07,0.25 0.08,0.24 0.04,0.11 0.04,0.12 0.05,0.11 0.05,0.12 0.06,0.11 0.06,0.1 0.07,0.11 0.07,0.1 0.07,0.1 0.09,0.09 0.09,0.09 0.09,0.09 0.1,0.09 0.12,0.08 0.11,0.07 0.13,0.08 0.14,0.06 0.14,0.07 0.15,0.06 0.17,0.05 0.17,0.05 0.19,0.05 0.19,0.03 0.21,0.04 0.21,0.03 0.12,0.01 0.11,0.01 0.12,0.01 0.13,0.01 0.12,0 0.13,0.01 c 0.17,0 0.7,0.03 0.7,0.76 0,0.2 -0.17,0.49 -0.53,0.49 -1.14,0 -2.44,-0.14 -3.62,-0.14 -0.83,0 -2.85,0.14 -3.69,0.14 -0.17,0 -0.7,0 -0.7,-0.77 0,-0.45 0.45,-0.48 0.78,-0.48 1.62,-0.04 2.22,-0.57 2.22,-1.44 0,-0.27 -0.04,-0.45 -0.14,-0.83 l -3.8,-15.19 -8.85,18.11 c -0.28,0.6 -0.34,0.6 -1.18,0.6 h -4.77 c -0.67,0 -1.12,0 -1.12,-0.77 0,-0.48 0.42,-0.48 1.15,-0.48 0.74,0 1.5,-0.04 2.22,-0.18 l -4.65,-18.64 c -0.32,-1.32 -0.91,-2.37 -3.63,-2.48 -0.25,0 -0.73,-0.03 -0.73,-0.74 0,-0.37 0.28,-0.51 0.51,-0.51 1.16,0 2.44,0.14 3.63,0.14 0.84,0 2.86,-0.14 3.7,-0.14 0.34,0 0.69,0.17 0.69,0.73 0,0.49 -0.42,0.52 -0.8,0.52 -2.2,0.08 -2.2,0.98 -2.2,1.47 0,0.14 0,0.31 0.14,0.87 l 4.47,17.83 10.17,-20.83 c 0.28,-0.56 0.42,-0.59 0.76,-0.59 0.57,0 0.57,0.11 0.74,0.73 z" /><path
         style="fill:#000000;stroke-width:0;stroke-linecap:butt;stroke-linejoin:round"
         inkscape:connector-curvature="0"
         id="path3381"
         d="m 515.12,400.15 0.03,0.09 0.02,0.09 0.03,0.1 0.02,0.11 0.03,0.1 0.03,0.11 0.05,0.21 0.06,0.22 0.05,0.23 0.06,0.22 0.02,0.1 0.03,0.11 0.02,0.1 0.02,0.1 0.03,0.1 0.02,0.1 0.02,0.09 0.02,0.08 0.02,0.08 0.01,0.08 0.02,0.07 0.01,0.06 0.01,0.06 0.01,0.05 0.01,0.05 0.01,0.04 0,0.01 0,0.01 0,0.02 0,0.01 c 0,0.68 -0.55,1.1 -1.14,1.1 -0.67,0 -1.3,-0.42 -1.5,-1.01 -0.11,-0.27 -0.45,-1.74 -0.7,-2.61 -0.49,-1.98 -0.49,-2.05 -1,-4 -0.46,-1.92 -0.53,-2.2 -0.56,-3.2 0.14,-0.71 -0.15,-1.36 -0.99,-2.41 -0.44,-0.56 -1.14,-1.16 -2.33,-1.16 -1.36,0 -3.14,0.49 -3.14,3.21 0,1.78 0.99,4.36 1.67,6.14 0.6,1.53 0.74,1.84 0.74,2.44 0,1.67 -1.42,2.95 -3.31,2.95 -3.52,0 -5.08,-4.74 -5.08,-5.33 0,-0.45 0.48,-0.45 0.59,-0.45 0.49,0 0.52,0.17 0.63,0.56 0.87,2.89 2.37,4.25 3.76,4.25 0.6,0 0.86,-0.39 0.86,-1.22 0,-0.8 -0.31,-1.56 -0.48,-2.01 -1.99,-5.1 -1.99,-5.8 -1.99,-6.88 0,-4.11 3.74,-4.62 5.61,-4.62 0.67,0 2.38,0 3.94,2.32 0.8,-1.56 2.72,-2.32 4.84,-2.32 3.11,0 4.64,2.67 5.33,4.1 1.5,2.93 2.44,7.29 2.44,8.9 0,2.6 -1.49,2.75 -1.74,2.75 -0.9,0 -1.87,-0.96 -1.87,-1.86 0,-0.58 0.34,-0.86 0.58,-1.08 0.84,-0.69 1.29,-1.67 1.29,-2.78 0,-0.46 -1.46,-9.07 -5.89,-9.07 -2.82,0 -2.82,2.52 -2.82,3.11 0,0.94 0.14,1.5 0.64,3.49 z" /><path
         style="fill:#000000;stroke-width:0;stroke-linecap:butt;stroke-linejoin:round"
         inkscape:connector-curvature="0"
         id="path3383"
         d="m 535.46,399.55 0,0.05 0,0.06 -0.01,0.05 -0.01,0.05 -0.01,0.05 -0.01,0.06 -0.02,0.05 -0.02,0.04 -0.02,0.05 -0.02,0.05 -0.03,0.04 -0.02,0.04 -0.03,0.05 -0.03,0.04 -0.04,0.03 -0.03,0.04 -0.04,0.04 -0.04,0.03 -0.04,0.03 -0.04,0.03 -0.04,0.03 -0.05,0.02 -0.05,0.03 -0.05,0.02 -0.05,0.02 -0.05,0.01 -0.05,0.02 -0.06,0.01 -0.05,0.01 -0.06,0 -0.06,0.01 -0.06,0 c -0.69,0 -1.52,-0.67 -1.52,-1.49 0,-0.7 0.55,-1.07 1.06,-1.07 0.83,0 1.55,0.75 1.55,1.5 z" /><path
         style="fill:#000000;stroke-width:0;stroke-linecap:butt;stroke-linejoin:round"
         inkscape:connector-curvature="0"
         id="path3385"
         d="m 536.63,387.59 0,0.02 0,0.02 0,0.01 0,0.01 0,0.02 -0.01,0.01 0,0.01 -0.01,0.02 0,0.01 -0.01,0.01 0,0.01 -0.01,0.01 0,0.01 -0.01,0.01 -0.01,0.01 0,0.01 -0.01,0.01 -0.01,0.01 -0.01,0.01 -0.01,0.01 -0.02,0.01 -0.02,0.01 -0.02,0.02 -0.02,0.01 -0.02,0.01 -0.02,0 -0.02,0.01 -0.02,0.01 -0.03,0 -0.02,0.01 -0.02,0 -0.02,0.01 -0.02,0 -0.02,0 -0.02,0 -0.02,0.01 -0.02,0 -0.01,0 -0.02,0 -0.01,0 -0.01,0 -0.01,0 0,0 c -0.42,0 -0.46,-0.1 -0.6,-0.58 -0.43,-1.36 -1.54,-2.78 -2.79,-2.78 -0.58,0 -0.75,0.39 -0.75,0.94 0,0.53 0.12,0.79 0.32,1.28 0.21,0.48 0.4,0.98 0.52,1.34 0.11,0.22 1.08,2.53 1.42,3.44 0.21,0.5 0.36,0.81 0.36,1.23 0,1.21 -1.15,2.21 -2.72,2.21 -2.62,0 -4.01,-3.19 -4.01,-3.86 0,-0.36 0.4,-0.36 0.53,-0.36 0.42,0 0.44,0.12 0.56,0.5 0.55,1.76 1.75,2.86 2.81,2.86 0.49,0 0.75,-0.27 0.75,-0.94 0,-0.1 0,-0.42 -0.14,-0.91 -0.18,-0.43 -1.29,-3.11 -1.65,-3.95 -0.18,-0.42 -0.18,-0.47 -0.55,-1.31 -0.13,-0.36 -0.27,-0.71 -0.27,-1.13 0,-1.3 1.22,-2.2 2.72,-2.2 2.61,0 4,3.25 4,3.87 z" /></g>  </g>
  <g
     transform="matrix(0.4,0,0,0.4,-85.769285,71.531035)"
     id="g3328"
     style="stroke-linecap:butt;stroke-linejoin:round">
    <g
       style="font-style:normal;font-variant:normal;font-weight:normal;font-stretch:normal;letter-spacing:normal;word-spacing:normal;text-anchor:start;fill:none;stroke:#000000;stroke-linecap:butt;stroke-linejoin:miter;stroke-miterlimit:10.43299961;stroke-opacity:1;stroke-dasharray:none;stroke-dashoffset:0"
       id="content"
       transform="matrix(1.0629921,0,0,-1.0629921,-186.02362,789.27165)"
       xml:space="preserve"
       stroke-miterlimit="10.433"
       font-style="normal"
       font-variant="normal"
       font-weight="normal"
       font-stretch="normal"
       font-size-adjust="none"
       letter-spacing="normal"
       word-spacing="normal"><path
         style="fill:#000000;stroke-width:0;stroke-linecap:butt;stroke-linejoin:round"
         inkscape:connector-curvature="0"
         d="m 477.87,442.16 h 3.4 c 0.71,0 1.16,0 1.16,0.77 0,0.48 -0.45,0.48 -1.08,0.48 h -3.25 c 0.81,4.43 1.08,6.04 1.36,7.05 0.17,0.77 0.94,1.5 1.78,1.5 0.03,0 0.97,0 1.64,-0.42 -1.43,-0.45 -1.53,-1.72 -1.53,-1.92 0,-0.77 0.6,-1.28 1.39,-1.28 0.94,0 1.99,0.79 1.99,2.12 0,1.59 -1.71,2.47 -3.49,2.47 -1.53,0 -3.23,-0.88 -4.19,-2.61 -0.68,-1.3 -0.96,-2.86 -1.7,-6.91 h -2.75 c -0.7,0 -1.15,0 -1.15,-0.76 0,-0.49 0.45,-0.49 1.07,-0.49 h 2.58 c -0.03,-0.21 -2.22,-12.75 -3.06,-16.48 -0.17,-0.77 -0.77,-3.41 -2.44,-3.41 -0.03,0 -0.87,0 -1.53,0.41 1.42,0.45 1.53,1.72 1.53,1.92 0,0.77 -0.59,1.28 -1.39,1.28 -0.94,0 -1.98,-0.79 -1.98,-2.12 0,-1.56 1.64,-2.47 3.37,-2.47 2.24,0 3.77,2.3 4.19,3.06 1.25,2.35 2.05,6.63 2.12,7.05 z"
         id="path3331" /><path
         style="fill:#000000;stroke-width:0;stroke-linecap:butt;stroke-linejoin:round"
         inkscape:connector-curvature="0"
         d="m 492.98,438.91 0,0.05 -0.01,0.06 0,0.05 -0.01,0.05 -0.01,0.05 -0.01,0.05 -0.02,0.05 -0.02,0.05 -0.02,0.05 -0.02,0.05 -0.03,0.04 -0.02,0.04 -0.03,0.04 -0.03,0.05 -0.04,0.03 -0.03,0.04 -0.04,0.04 -0.04,0.03 -0.04,0.03 -0.04,0.03 -0.04,0.03 -0.05,0.02 -0.05,0.03 -0.05,0.02 -0.05,0.02 -0.05,0.01 -0.05,0.02 -0.06,0.01 -0.05,0.01 -0.06,0 -0.06,0.01 -0.06,0 c -0.69,0 -1.52,-0.67 -1.52,-1.49 0,-0.7 0.55,-1.07 1.06,-1.07 0.83,0 1.55,0.75 1.55,1.5 z"
         id="path3333" /><path
         style="fill:#000000;stroke-width:0;stroke-linecap:butt;stroke-linejoin:round"
         inkscape:connector-curvature="0"
         d="m 494.15,426.95 0,0.02 0,0.01 0,0.02 0,0.01 -0.01,0.02 0,0.01 0,0.01 -0.01,0.02 0,0.01 -0.01,0.01 0,0.01 -0.01,0.01 0,0.01 -0.01,0.01 -0.01,0.01 -0.01,0.01 0,0.01 -0.01,0.01 -0.01,0.01 -0.01,0.01 -0.02,0.01 -0.02,0.01 -0.02,0.01 -0.02,0.02 -0.02,0.01 -0.02,0 -0.02,0.01 -0.02,0.01 -0.03,0 -0.02,0.01 -0.02,0 -0.02,0.01 -0.02,0 -0.02,0 -0.02,0 -0.02,0 -0.02,0.01 -0.01,0 -0.02,0 -0.01,0 -0.01,0 -0.01,0 0,0 c -0.43,0 -0.46,-0.1 -0.6,-0.58 -0.43,-1.36 -1.54,-2.78 -2.79,-2.78 -0.58,0 -0.75,0.39 -0.75,0.94 0,0.53 0.12,0.79 0.32,1.28 0.21,0.48 0.39,0.98 0.52,1.34 0.11,0.22 1.08,2.53 1.42,3.44 0.2,0.5 0.36,0.81 0.36,1.23 0,1.21 -1.16,2.21 -2.72,2.21 -2.62,0 -4.01,-3.19 -4.01,-3.86 0,-0.36 0.4,-0.36 0.53,-0.36 0.42,0 0.44,0.12 0.56,0.5 0.55,1.76 1.75,2.86 2.81,2.86 0.49,0 0.75,-0.27 0.75,-0.94 0,-0.1 0,-0.42 -0.14,-0.91 -0.19,-0.44 -1.29,-3.11 -1.65,-3.95 -0.18,-0.42 -0.18,-0.47 -0.55,-1.31 -0.13,-0.36 -0.27,-0.71 -0.27,-1.13 0,-1.3 1.22,-2.2 2.72,-2.2 2.61,0 4,3.25 4,3.87 z"
         id="path3335" /><polyline
         style="fill:#000000;fill-rule:nonzero;stroke-width:0;stroke-linecap:butt;stroke-linejoin:round"
         points="462,418 501.48,418 501.48,420.04 462,420.04 "
         id="polyline3337" /><path
         style="fill:#000000;stroke-width:0;stroke-linecap:butt;stroke-linejoin:round"
         inkscape:connector-curvature="0"
         d="m 475.6,399.01 0.33,-0.76 0.33,-0.77 0.33,-0.78 0.33,-0.78 0.32,-0.78 0.32,-0.76 0.16,-0.37 0.15,-0.36 0.15,-0.36 0.14,-0.34 0.14,-0.34 0.14,-0.32 0.13,-0.31 0.13,-0.3 0.12,-0.29 0.12,-0.27 0.11,-0.25 0.1,-0.23 0.1,-0.22 0.09,-0.19 0.08,-0.18 0.07,-0.15 0.07,-0.13 0.06,-0.11 0.05,-0.08 0.04,-0.06 c 0.65,-0.82 1.29,-0.82 1.84,-0.82 h 0.7 c 0.66,0 1.02,0 1.02,0.4 0,0.19 -0.11,0.28 -0.19,0.36 -0.4,0.38 -0.76,1.19 -0.9,1.5 l -8.5,20.06 c -0.24,0.63 -0.94,2.21 -4.63,2.21 -0.42,0 -0.91,0 -0.91,-0.5 0,-0.41 0.35,-0.46 0.52,-0.49 0.73,-0.09 1.39,-0.2 2.27,-2.19 l 4.14,-9.76 -10.27,-9.27 c -0.42,-0.34 -0.7,-0.62 -0.7,-1.22 0,-0.82 0.7,-1.18 1.19,-1.18 0.65,0 1.07,0.45 1.18,0.56 z"
         id="path3339" /><path
         style="fill:#000000;stroke-width:0;stroke-linecap:butt;stroke-linejoin:round"
         inkscape:connector-curvature="0"
         d="m 495.02,399.55 0,0.05 -0.01,0.06 0,0.05 -0.01,0.05 -0.01,0.05 -0.01,0.06 -0.02,0.05 -0.02,0.04 -0.02,0.05 -0.02,0.05 -0.03,0.04 -0.02,0.04 -0.03,0.05 -0.03,0.04 -0.04,0.03 -0.03,0.04 -0.04,0.04 -0.04,0.03 -0.04,0.03 -0.04,0.03 -0.04,0.03 -0.05,0.02 -0.05,0.03 -0.05,0.02 -0.05,0.02 -0.05,0.01 -0.05,0.02 -0.06,0.01 -0.06,0.01 -0.05,0 -0.06,0.01 -0.06,0 c -0.69,0 -1.52,-0.67 -1.52,-1.49 0,-0.7 0.55,-1.07 1.06,-1.07 0.83,0 1.55,0.75 1.55,1.5 z"
         id="path3341" /><path
         style="fill:#000000;stroke-width:0;stroke-linecap:butt;stroke-linejoin:round"
         inkscape:connector-curvature="0"
         d="m 496.19,387.59 0,0.02 0,0.02 0,0.01 0,0.01 -0.01,0.02 0,0.01 0,0.01 -0.01,0.02 0,0.01 -0.01,0.01 0,0.01 -0.01,0.01 0,0.01 -0.01,0.01 -0.01,0.01 -0.01,0.01 0,0.01 -0.01,0.01 -0.01,0.01 -0.01,0.01 -0.02,0.01 -0.02,0.01 -0.02,0.02 -0.02,0.01 -0.02,0.01 -0.02,0 -0.02,0.01 -0.03,0.01 -0.02,0 -0.02,0.01 -0.02,0 -0.02,0.01 -0.02,0 -0.02,0 -0.02,0 -0.02,0.01 -0.02,0 -0.01,0 -0.02,0 -0.01,0 -0.01,0 -0.01,0 0,0 c -0.43,0 -0.46,-0.1 -0.6,-0.58 -0.44,-1.36 -1.54,-2.78 -2.79,-2.78 -0.58,0 -0.75,0.39 -0.75,0.94 0,0.53 0.12,0.79 0.32,1.28 0.21,0.48 0.39,0.98 0.52,1.34 0.11,0.22 1.08,2.53 1.42,3.44 0.2,0.5 0.36,0.81 0.36,1.23 0,1.21 -1.16,2.21 -2.72,2.21 -2.62,0 -4.01,-3.19 -4.01,-3.86 0,-0.36 0.4,-0.36 0.53,-0.36 0.42,0 0.43,0.12 0.56,0.5 0.55,1.76 1.75,2.86 2.81,2.86 0.49,0 0.75,-0.27 0.75,-0.94 0,-0.1 0,-0.42 -0.14,-0.91 -0.19,-0.43 -1.3,-3.11 -1.65,-3.95 -0.18,-0.42 -0.18,-0.47 -0.55,-1.31 -0.13,-0.36 -0.27,-0.71 -0.27,-1.13 0,-1.3 1.22,-2.2 2.72,-2.2 2.61,0 4,3.25 4,3.87 z"
         id="path3343" /></g>  </g>
</svg>
