<?xml version="1.0" encoding="UTF-8" standalone="no"?>
<!-- Created with matplotlib (http://matplotlib.org/) -->

<svg
   xmlns:dc="http://purl.org/dc/elements/1.1/"
   xmlns:cc="http://creativecommons.org/ns#"
   xmlns:rdf="http://www.w3.org/1999/02/22-rdf-syntax-ns#"
   xmlns:svg="http://www.w3.org/2000/svg"
   xmlns="http://www.w3.org/2000/svg"
   xmlns:xlink="http://www.w3.org/1999/xlink"
   xmlns:sodipodi="http://sodipodi.sourceforge.net/DTD/sodipodi-0.dtd"
   xmlns:inkscape="http://www.inkscape.org/namespaces/inkscape"
   height="432pt"
   version="1.1"
   viewBox="0 0 576 432"
   width="576pt"
   id="svg14783"
   inkscape:version="0.48.5 r10040"
   sodipodi:docname="solve_f1_f2.svg">
  <metadata
     id="metadata15069">
    <rdf:RDF>
      <cc:Work
         rdf:about="">
        <dc:format>image/svg+xml</dc:format>
        <dc:type
           rdf:resource="http://purl.org/dc/dcmitype/StillImage" />
      </cc:Work>
    </rdf:RDF>
  </metadata>
  <sodipodi:namedview
     pagecolor="#ffffff"
     bordercolor="#666666"
     borderopacity="1"
     objecttolerance="10"
     gridtolerance="10"
     guidetolerance="10"
     inkscape:pageopacity="0"
     inkscape:pageshadow="2"
     inkscape:window-width="1920"
     inkscape:window-height="1059"
     id="namedview15067"
     showgrid="false"
     inkscape:zoom="1.5740741"
     inkscape:cx="252"
     inkscape:cy="270"
     inkscape:window-x="-4"
     inkscape:window-y="-4"
     inkscape:window-maximized="1"
     inkscape:current-layer="svg14783" />
  <defs
     id="defs14785">
    <style
       type="text/css"
       id="style14787">
*{stroke-linecap:butt;stroke-linejoin:round;}
  </style>
  </defs>
  <g
     id="figure_1">
    <g
       id="patch_1">
      <path
         d=" M0 432 L576 432 L576 0 L0 0 z "
         style="fill:#ffffff;"
         id="path14791" />
    </g>
    <g
       id="axes_1">
      <g
         id="patch_2">
        <path
           d=" M72 378 L518.4 378 L518.4 43.2 L72 43.2 z "
           style="fill:#ffffff;"
           id="path14795" />
      </g>
      <g
         id="line2d_1">
        <path
           clip-path="url(#p332b41defa)"
           d=" M94.32 378 L116.64 378 L138.96 378 L161.28 378 L183.6 378 L205.92 378 L228.24 373.982 L250.56 347.198 L272.88 320.414 L295.2 293.63 L317.52 268.186 L339.84 244.08 L362.16 222.653 L384.48 199.886 L406.8 179.798 L429.12 159.71 L451.44 139.622 L473.76 119.534 L496.08 99.4464"
           style="fill:none;stroke:#0000ff;stroke-linecap:square;"
           id="path14798" />
      </g>
      <g
         id="line2d_2">
        <path
           clip-path="url(#p332b41defa)"
           d=" M94.32 351.216 L116.64 324.432 L138.96 297.648 L161.28 270.864 L183.6 244.08 L205.92 217.296 L228.24 194.53 L250.56 194.53 L272.88 194.53 L295.2 194.53 L317.52 193.19 L339.84 190.512 L362.16 185.155 L384.48 181.138 L406.8 174.442 L429.12 167.746 L451.44 161.05 L473.76 154.354 L496.08 147.658"
           style="fill:none;stroke:#008000;stroke-linecap:square;"
           id="path14801" />
      </g>
      <g
         id="patch_3">
        <path
           d=" M72 43.2 L518.4 43.2"
           style="fill:none;stroke:#000000;stroke-linecap:square;stroke-linejoin:miter;"
           id="path14804" />
      </g>
      <g
         id="patch_4">
        <path
           d=" M518.4 378 L518.4 43.2"
           style="fill:none;stroke:#000000;stroke-linecap:square;stroke-linejoin:miter;"
           id="path14807" />
      </g>
      <g
         id="patch_5">
        <path
           d=" M72 378 L518.4 378"
           style="fill:none;stroke:#000000;stroke-linecap:square;stroke-linejoin:miter;"
           id="path14810" />
      </g>
      <g
         id="patch_6">
        <path
           d=" M72 378 L72 43.2"
           style="fill:none;stroke:#000000;stroke-linecap:square;stroke-linejoin:miter;"
           id="path14813" />
      </g>
      <g
         id="matplotlib.axis_1">
        <g
           id="xtick_1">
          <g
             id="line2d_3">
            <defs
               id="defs14818">
              <path
                 d=" M0 0 L0 -4"
                 id="m93b0483c22"
                 style="stroke:#000000;stroke-width:0.5;" />
            </defs>
            <g
               id="g14821">
              <use
                 style="stroke:#000000;stroke-width:0.5;"
                 x="72.0"
                 xlink:href="#m93b0483c22"
                 y="378.0"
                 id="use14823" />
            </g>
          </g>
          <g
             id="line2d_4">
            <defs
               id="defs14826">
              <path
                 d=" M0 0 L0 4"
                 id="m741efc42ff"
                 style="stroke:#000000;stroke-width:0.5;" />
            </defs>
            <g
               id="g14829">
              <use
                 style="stroke:#000000;stroke-width:0.5;"
                 x="72.0"
                 xlink:href="#m741efc42ff"
                 y="43.2"
                 id="use14831" />
            </g>
          </g>
          <g
             id="text_1">
            <!-- 0.0 -->
            <defs
               id="defs14834">
              <path
                 d=" M31.7812 66.4062 Q24.1719 66.4062 20.3281 58.9062 Q16.5 51.4219 16.5 36.375 Q16.5 21.3906 20.3281 13.8906 Q24.1719 6.39062 31.7812 6.39062 Q39.4531 6.39062 43.2812 13.8906 Q47.125 21.3906 47.125 36.375 Q47.125 51.4219 43.2812 58.9062 Q39.4531 66.4062 31.7812 66.4062 M31.7812 74.2188 Q44.0469 74.2188 50.5156 64.5156 Q56.9844 54.8281 56.9844 36.375 Q56.9844 17.9688 50.5156 8.26562 Q44.0469 -1.42188 31.7812 -1.42188 Q19.5312 -1.42188 13.0625 8.26562 Q6.59375 17.9688 6.59375 36.375 Q6.59375 54.8281 13.0625 64.5156 Q19.5312 74.2188 31.7812 74.2188"
                 id="BitstreamVeraSans-Roman-30" />
              <path
                 d=" M10.6875 12.4062 L21 12.4062 L21 0 L10.6875 0 z "
                 id="BitstreamVeraSans-Roman-2e" />
            </defs>
            <g
               transform="translate(64.71015625 389.5984375)scale(0.1 -0.1)"
               id="g14838">
              <use
                 xlink:href="#BitstreamVeraSans-Roman-30"
                 id="use14840" />
              <use
                 x="63.623046875"
                 xlink:href="#BitstreamVeraSans-Roman-2e"
                 id="use14842" />
              <use
                 x="95.41015625"
                 xlink:href="#BitstreamVeraSans-Roman-30"
                 id="use14844" />
            </g>
          </g>
        </g>
        <g
           id="xtick_2">
          <g
             id="line2d_5">
            <g
               id="g14848">
              <use
                 style="stroke:#000000;stroke-width:0.5;"
                 x="183.6"
                 xlink:href="#m93b0483c22"
                 y="378.0"
                 id="use14850" />
            </g>
          </g>
          <g
             id="line2d_6">
            <g
               id="g14853">
              <use
                 style="stroke:#000000;stroke-width:0.5;"
                 x="183.6"
                 xlink:href="#m741efc42ff"
                 y="43.2"
                 id="use14855" />
            </g>
          </g>
          <g
             id="text_2">
            <!-- 0.5 -->
            <defs
               id="defs14858">
              <path
                 d=" M10.7969 72.9062 L49.5156 72.9062 L49.5156 64.5938 L19.8281 64.5938 L19.8281 46.7344 Q21.9688 47.4688 24.1094 47.8281 Q26.2656 48.1875 28.4219 48.1875 Q40.625 48.1875 47.75 41.5 Q54.8906 34.8125 54.8906 23.3906 Q54.8906 11.625 47.5625 5.09375 Q40.2344 -1.42188 26.9062 -1.42188 Q22.3125 -1.42188 17.5469 -0.640625 Q12.7969 0.140625 7.71875 1.70312 L7.71875 11.625 Q12.1094 9.23438 16.7969 8.0625 Q21.4844 6.89062 26.7031 6.89062 Q35.1562 6.89062 40.0781 11.3281 Q45.0156 15.7656 45.0156 23.3906 Q45.0156 31 40.0781 35.4375 Q35.1562 39.8906 26.7031 39.8906 Q22.75 39.8906 18.8125 39.0156 Q14.8906 38.1406 10.7969 36.2812 z "
                 id="BitstreamVeraSans-Roman-35" />
            </defs>
            <g
               transform="translate(176.41484375 389.5984375)scale(0.1 -0.1)"
               id="g14861">
              <use
                 xlink:href="#BitstreamVeraSans-Roman-30"
                 id="use14863" />
              <use
                 x="63.623046875"
                 xlink:href="#BitstreamVeraSans-Roman-2e"
                 id="use14865" />
              <use
                 x="95.41015625"
                 xlink:href="#BitstreamVeraSans-Roman-35"
                 id="use14867" />
            </g>
          </g>
        </g>
        <g
           id="xtick_3">
          <g
             id="line2d_7">
            <g
               id="g14871">
              <use
                 style="stroke:#000000;stroke-width:0.5;"
                 x="295.2"
                 xlink:href="#m93b0483c22"
                 y="378.0"
                 id="use14873" />
            </g>
          </g>
          <g
             id="line2d_8">
            <g
               id="g14876">
              <use
                 style="stroke:#000000;stroke-width:0.5;"
                 x="295.2"
                 xlink:href="#m741efc42ff"
                 y="43.2"
                 id="use14878" />
            </g>
          </g>
          <g
             id="text_3">
            <!-- 1.0 -->
            <defs
               id="defs14881">
              <path
                 d=" M12.4062 8.29688 L28.5156 8.29688 L28.5156 63.9219 L10.9844 60.4062 L10.9844 69.3906 L28.4219 72.9062 L38.2812 72.9062 L38.2812 8.29688 L54.3906 8.29688 L54.3906 0 L12.4062 0 z "
                 id="BitstreamVeraSans-Roman-31" />
            </defs>
            <g
               transform="translate(288.1296875 389.5984375)scale(0.1 -0.1)"
               id="g14884">
              <use
                 xlink:href="#BitstreamVeraSans-Roman-31"
                 id="use14886" />
              <use
                 x="63.623046875"
                 xlink:href="#BitstreamVeraSans-Roman-2e"
                 id="use14888" />
              <use
                 x="95.41015625"
                 xlink:href="#BitstreamVeraSans-Roman-30"
                 id="use14890" />
            </g>
          </g>
        </g>
        <g
           id="xtick_4">
          <g
             id="line2d_9">
            <g
               id="g14894">
              <use
                 style="stroke:#000000;stroke-width:0.5;"
                 x="406.8"
                 xlink:href="#m93b0483c22"
                 y="378.0"
                 id="use14896" />
            </g>
          </g>
          <g
             id="line2d_10">
            <g
               id="g14899">
              <use
                 style="stroke:#000000;stroke-width:0.5;"
                 x="406.8"
                 xlink:href="#m741efc42ff"
                 y="43.2"
                 id="use14901" />
            </g>
          </g>
          <g
             id="text_4">
            <!-- 1.5 -->
            <g
               transform="translate(399.834375 389.5984375)scale(0.1 -0.1)"
               id="g14904">
              <use
                 xlink:href="#BitstreamVeraSans-Roman-31"
                 id="use14906" />
              <use
                 x="63.623046875"
                 xlink:href="#BitstreamVeraSans-Roman-2e"
                 id="use14908" />
              <use
                 x="95.41015625"
                 xlink:href="#BitstreamVeraSans-Roman-35"
                 id="use14910" />
            </g>
          </g>
        </g>
        <g
           id="xtick_5">
          <g
             id="line2d_11">
            <g
               id="g14914">
              <use
                 style="stroke:#000000;stroke-width:0.5;"
                 x="518.4"
                 xlink:href="#m93b0483c22"
                 y="378.0"
                 id="use14916" />
            </g>
          </g>
          <g
             id="line2d_12">
            <g
               id="g14919">
              <use
                 style="stroke:#000000;stroke-width:0.5;"
                 x="518.4"
                 xlink:href="#m741efc42ff"
                 y="43.2"
                 id="use14921" />
            </g>
          </g>
          <g
             id="text_5">
            <!-- 2.0 -->
            <defs
               id="defs14924">
              <path
                 d=" M19.1875 8.29688 L53.6094 8.29688 L53.6094 0 L7.32812 0 L7.32812 8.29688 Q12.9375 14.1094 22.625 23.8906 Q32.3281 33.6875 34.8125 36.5312 Q39.5469 41.8438 41.4219 45.5312 Q43.3125 49.2188 43.3125 52.7812 Q43.3125 58.5938 39.2344 62.25 Q35.1562 65.9219 28.6094 65.9219 Q23.9688 65.9219 18.8125 64.3125 Q13.6719 62.7031 7.8125 59.4219 L7.8125 69.3906 Q13.7656 71.7812 18.9375 73 Q24.125 74.2188 28.4219 74.2188 Q39.75 74.2188 46.4844 68.5469 Q53.2188 62.8906 53.2188 53.4219 Q53.2188 48.9219 51.5312 44.8906 Q49.8594 40.875 45.4062 35.4062 Q44.1875 33.9844 37.6406 27.2188 Q31.1094 20.4531 19.1875 8.29688"
                 id="BitstreamVeraSans-Roman-32" />
            </defs>
            <g
               transform="translate(511.146875 389.5984375)scale(0.1 -0.1)"
               id="g14927">
              <use
                 xlink:href="#BitstreamVeraSans-Roman-32"
                 id="use14929" />
              <use
                 x="63.623046875"
                 xlink:href="#BitstreamVeraSans-Roman-2e"
                 id="use14931" />
              <use
                 x="95.41015625"
                 xlink:href="#BitstreamVeraSans-Roman-30"
                 id="use14933" />
            </g>
          </g>
        </g>
      </g>
      <g
         id="matplotlib.axis_2">
        <g
           id="ytick_1">
          <g
             id="line2d_13">
            <defs
               id="defs14938">
              <path
                 d=" M0 0 L4 0"
                 id="m728421d6d4"
                 style="stroke:#000000;stroke-width:0.5;" />
            </defs>
            <g
               id="g14941">
              <use
                 style="stroke:#000000;stroke-width:0.5;"
                 x="72.0"
                 xlink:href="#m728421d6d4"
                 y="378.0"
                 id="use14943" />
            </g>
          </g>
          <g
             id="line2d_14">
            <defs
               id="defs14946">
              <path
                 d=" M0 0 L-4 0"
                 id="mcb0005524f"
                 style="stroke:#000000;stroke-width:0.5;" />
            </defs>
            <g
               id="g14949">
              <use
                 style="stroke:#000000;stroke-width:0.5;"
                 x="518.4"
                 xlink:href="#mcb0005524f"
                 y="378.0"
                 id="use14951" />
            </g>
          </g>
          <g
             id="text_6">
            <!-- 0.0 -->
            <g
               transform="translate(53.4203125 380.759375)scale(0.1 -0.1)"
               id="g14954">
              <use
                 xlink:href="#BitstreamVeraSans-Roman-30"
                 id="use14956" />
              <use
                 x="63.623046875"
                 xlink:href="#BitstreamVeraSans-Roman-2e"
                 id="use14958" />
              <use
                 x="95.41015625"
                 xlink:href="#BitstreamVeraSans-Roman-30"
                 id="use14960" />
            </g>
          </g>
        </g>
        <g
           id="ytick_2">
          <g
             id="line2d_15">
            <g
               id="g14964">
              <use
                 style="stroke:#000000;stroke-width:0.5;"
                 x="72.0"
                 xlink:href="#m728421d6d4"
                 y="311.04"
                 id="use14966" />
            </g>
          </g>
          <g
             id="line2d_16">
            <g
               id="g14969">
              <use
                 style="stroke:#000000;stroke-width:0.5;"
                 x="518.4"
                 xlink:href="#mcb0005524f"
                 y="311.04"
                 id="use14971" />
            </g>
          </g>
          <g
             id="text_7">
            <!-- 0.5 -->
            <g
               transform="translate(53.6296875 313.799375)scale(0.1 -0.1)"
               id="g14974">
              <use
                 xlink:href="#BitstreamVeraSans-Roman-30"
                 id="use14976" />
              <use
                 x="63.623046875"
                 xlink:href="#BitstreamVeraSans-Roman-2e"
                 id="use14978" />
              <use
                 x="95.41015625"
                 xlink:href="#BitstreamVeraSans-Roman-35"
                 id="use14980" />
            </g>
          </g>
        </g>
        <g
           id="ytick_3">
          <g
             id="line2d_17">
            <g
               id="g14984">
              <use
                 style="stroke:#000000;stroke-width:0.5;"
                 x="72.0"
                 xlink:href="#m728421d6d4"
                 y="244.08"
                 id="use14986" />
            </g>
          </g>
          <g
             id="line2d_18">
            <g
               id="g14989">
              <use
                 style="stroke:#000000;stroke-width:0.5;"
                 x="518.4"
                 xlink:href="#mcb0005524f"
                 y="244.08"
                 id="use14991" />
            </g>
          </g>
          <g
             id="text_8">
            <!-- 1.0 -->
            <g
               transform="translate(53.859375 246.839375)scale(0.1 -0.1)"
               id="g14994">
              <use
                 xlink:href="#BitstreamVeraSans-Roman-31"
                 id="use14996" />
              <use
                 x="63.623046875"
                 xlink:href="#BitstreamVeraSans-Roman-2e"
                 id="use14998" />
              <use
                 x="95.41015625"
                 xlink:href="#BitstreamVeraSans-Roman-30"
                 id="use15000" />
            </g>
          </g>
        </g>
        <g
           id="ytick_4">
          <g
             id="line2d_19">
            <g
               id="g15004">
              <use
                 style="stroke:#000000;stroke-width:0.5;"
                 x="72.0"
                 xlink:href="#m728421d6d4"
                 y="177.12"
                 id="use15006" />
            </g>
          </g>
          <g
             id="line2d_20">
            <g
               id="g15009">
              <use
                 style="stroke:#000000;stroke-width:0.5;"
                 x="518.4"
                 xlink:href="#mcb0005524f"
                 y="177.12"
                 id="use15011" />
            </g>
          </g>
          <g
             id="text_9">
            <!-- 1.5 -->
            <g
               transform="translate(54.06875 179.879375)scale(0.1 -0.1)"
               id="g15014">
              <use
                 xlink:href="#BitstreamVeraSans-Roman-31"
                 id="use15016" />
              <use
                 x="63.623046875"
                 xlink:href="#BitstreamVeraSans-Roman-2e"
                 id="use15018" />
              <use
                 x="95.41015625"
                 xlink:href="#BitstreamVeraSans-Roman-35"
                 id="use15020" />
            </g>
          </g>
        </g>
        <g
           id="ytick_5">
          <g
             id="line2d_21">
            <g
               id="g15024">
              <use
                 style="stroke:#000000;stroke-width:0.5;"
                 x="72.0"
                 xlink:href="#m728421d6d4"
                 y="110.16"
                 id="use15026" />
            </g>
          </g>
          <g
             id="line2d_22">
            <g
               id="g15029">
              <use
                 style="stroke:#000000;stroke-width:0.5;"
                 x="518.4"
                 xlink:href="#mcb0005524f"
                 y="110.16"
                 id="use15031" />
            </g>
          </g>
          <g
             id="text_10">
            <!-- 2.0 -->
            <g
               transform="translate(53.49375 112.919375)scale(0.1 -0.1)"
               id="g15034">
              <use
                 xlink:href="#BitstreamVeraSans-Roman-32"
                 id="use15036" />
              <use
                 x="63.623046875"
                 xlink:href="#BitstreamVeraSans-Roman-2e"
                 id="use15038" />
              <use
                 x="95.41015625"
                 xlink:href="#BitstreamVeraSans-Roman-30"
                 id="use15040" />
            </g>
          </g>
        </g>
        <g
           id="ytick_6">
          <g
             id="line2d_23">
            <g
               id="g15044">
              <use
                 style="stroke:#000000;stroke-width:0.5;"
                 x="72.0"
                 xlink:href="#m728421d6d4"
                 y="43.2"
                 id="use15046" />
            </g>
          </g>
          <g
             id="line2d_24">
            <g
               id="g15049">
              <use
                 style="stroke:#000000;stroke-width:0.5;"
                 x="518.4"
                 xlink:href="#mcb0005524f"
                 y="43.2"
                 id="use15051" />
            </g>
          </g>
          <g
             id="text_11">
            <!-- 2.5 -->
            <g
               transform="translate(53.703125 45.959375)scale(0.1 -0.1)"
               id="g15054">
              <use
                 xlink:href="#BitstreamVeraSans-Roman-32"
                 id="use15056" />
              <use
                 x="63.623046875"
                 xlink:href="#BitstreamVeraSans-Roman-2e"
                 id="use15058" />
              <use
                 x="95.41015625"
                 xlink:href="#BitstreamVeraSans-Roman-35"
                 id="use15060" />
            </g>
          </g>
        </g>
      </g>
    </g>
  </g>
  <defs
     id="defs15062">
    <clipPath
       id="p332b41defa">
      <rect
         height="334.8"
         width="446.4"
         x="72.0"
         y="43.2"
         id="rect15065" />
    </clipPath>
  </defs>
  <g
     transform="matrix(0.4,0,0,0.4,192.48252,147.38958)"
     id="g12977"
     style="stroke-linecap:butt;stroke-linejoin:round">
    <g
       style="font-style:normal;font-variant:normal;font-weight:normal;font-stretch:normal;letter-spacing:normal;word-spacing:normal;text-anchor:start;fill:none;stroke:#000000;stroke-linecap:butt;stroke-linejoin:miter;stroke-miterlimit:10.43299961;stroke-opacity:1;stroke-dasharray:none;stroke-dashoffset:0"
       word-spacing="normal"
       letter-spacing="normal"
       font-size-adjust="none"
       font-stretch="normal"
       font-weight="normal"
       font-variant="normal"
       font-style="normal"
       stroke-miterlimit="10.433"
       xml:space="preserve"
       transform="matrix(1.0629921,0,0,-1.0629921,-186.02362,789.27165)"
       id="g12979"><path
         style="fill:#000000;stroke-width:0;stroke-linecap:butt;stroke-linejoin:round"
         inkscape:connector-curvature="0"
         id="path12981"
         d="m 473.8,426.12 h 4.28 c 1,0 1.5,0 1.5,1 0,0.55 -0.5,0.55 -1.34,0.55 h -4.14 l 1.04,5.69 c 0.21,1.04 0.91,4.57 1.21,5.17 0.45,0.95 1.29,1.7 2.34,1.7 0.19,0 1.49,0 2.44,-0.91 -2.19,-0.18 -2.69,-1.93 -2.69,-2.68 0,-1.14 0.89,-1.74 1.85,-1.74 1.29,0 2.73,1.1 2.73,2.99 0,2.29 -2.3,3.43 -4.33,3.43 -1.7,0 -4.84,-0.89 -6.33,-5.82 -0.29,-1.05 -0.45,-1.55 -1.64,-7.83 h -3.43 c -0.96,0 -1.5,0 -1.5,-0.94 0,-0.61 0.45,-0.61 1.39,-0.61 h 3.29 l -3.75,-19.67 c -0.89,-4.83 -1.73,-9.38 -4.33,-9.38 -0.2,0 -1.43,0 -2.39,0.91 2.3,0.14 2.74,1.94 2.74,2.69 0,1.14 -0.89,1.75 -1.85,1.75 -1.29,0 -2.73,-1.1 -2.73,-3 0,-2.24 2.19,-3.44 4.23,-3.44 2.74,0 4.74,2.94 5.63,4.84 1.59,3.14 2.75,9.16 2.8,9.52 z" /><path
         style="fill:#000000;stroke-width:0;stroke-linecap:butt;stroke-linejoin:round"
         inkscape:connector-curvature="0"
         id="path12983"
         d="m 491.55,420.92 0,0.04 0,0.04 0,0.05 0,0.04 0,0.03 0,0.04 0,0.04 0,0.03 -0.01,0.04 0,0.03 0,0.03 0,0.03 0,0.03 -0.01,0.03 0,0.03 0,0.02 -0.01,0.03 0,0.02 -0.01,0.03 0,0.02 -0.02,0.04 -0.01,0.04 -0.02,0.03 -0.02,0.03 -0.02,0.03 -0.02,0.03 -0.03,0.02 -0.03,0.02 -0.04,0.02 -0.03,0.01 -0.04,0.01 -0.05,0.02 -0.02,0 -0.03,0 -0.02,0.01 -0.03,0 -0.02,0.01 -0.03,0 -0.03,0 -0.03,0 -0.04,0 -0.03,0.01 -0.03,0 -0.04,0 -0.04,0 -0.03,0 -0.04,0 -0.04,0 -0.04,0 -0.05,0 -0.04,0 -0.05,0 c -2.23,-2.2 -5.39,-2.23 -6.82,-2.23 v -1.25 c 0.84,0 3.14,0 5.04,0.97 v -17.77 c 0,-1.16 0,-1.61 -3.48,-1.61 h -1.31 v -1.25 c 0.62,0.03 4.9,0.14 6.2,0.14 1.08,0 5.47,-0.11 6.23,-0.14 v 1.25 h -1.32 c -3.49,0 -3.49,0.45 -3.49,1.61 z" /></g>  </g>
  <g
     transform="matrix(0.4,0,0,0.4,126.69831,41.60608)"
     id="g15127"
     style="stroke-linecap:butt;stroke-linejoin:round">
    <g
       style="font-style:normal;font-variant:normal;font-weight:normal;font-stretch:normal;letter-spacing:normal;word-spacing:normal;text-anchor:start;fill:none;stroke:#000000;stroke-linecap:butt;stroke-linejoin:miter;stroke-miterlimit:10.43299961;stroke-opacity:1;stroke-dasharray:none;stroke-dashoffset:0"
       word-spacing="normal"
       letter-spacing="normal"
       font-size-adjust="none"
       font-stretch="normal"
       font-weight="normal"
       font-variant="normal"
       font-style="normal"
       stroke-miterlimit="10.433"
       xml:space="preserve"
       transform="matrix(1.0629921,0,0,-1.0629921,-186.02362,789.27165)"
       id="content"><path
         style="fill:#000000;stroke-width:0;stroke-linecap:butt;stroke-linejoin:round"
         inkscape:connector-curvature="0"
         id="path15130"
         d="m 473.8,426.12 h 4.28 c 1,0 1.5,0 1.5,1 0,0.55 -0.5,0.55 -1.34,0.55 h -4.14 l 1.04,5.69 c 0.21,1.04 0.91,4.57 1.21,5.17 0.45,0.95 1.29,1.7 2.34,1.7 0.19,0 1.49,0 2.44,-0.91 -2.19,-0.18 -2.69,-1.93 -2.69,-2.68 0,-1.14 0.89,-1.74 1.85,-1.74 1.29,0 2.73,1.1 2.73,2.99 0,2.29 -2.3,3.43 -4.33,3.43 -1.7,0 -4.84,-0.89 -6.33,-5.82 -0.29,-1.05 -0.45,-1.55 -1.64,-7.83 h -3.43 c -0.96,0 -1.5,0 -1.5,-0.94 0,-0.61 0.45,-0.61 1.39,-0.61 h 3.29 l -3.75,-19.67 c -0.89,-4.83 -1.73,-9.38 -4.33,-9.38 -0.2,0 -1.43,0 -2.39,0.91 2.3,0.14 2.74,1.94 2.74,2.69 0,1.14 -0.89,1.75 -1.85,1.75 -1.29,0 -2.73,-1.1 -2.73,-3 0,-2.24 2.19,-3.44 4.23,-3.44 2.74,0 4.74,2.94 5.63,4.84 1.59,3.14 2.75,9.16 2.8,9.52 z" /><path
         style="fill:#000000;stroke-width:0;stroke-linecap:butt;stroke-linejoin:round"
         inkscape:connector-curvature="0"
         id="path15132"
         d="m 497.47,405.11 h -1.18 c -0.1,-0.77 -0.46,-2.83 -0.91,-3.18 -0.27,-0.2 -2.95,-0.2 -3.44,-0.2 h -6.42 c 3.66,3.23 4.87,4.2 6.97,5.84 2.58,2.07 4.98,4.22 4.98,7.54 0,4.21 -3.68,6.79 -8.15,6.79 -4.32,0 -7.25,-3.03 -7.25,-6.23 0,-1.78 1.5,-1.96 1.86,-1.96 0.82,0 1.84,0.6 1.84,1.85 0,0.62 -0.25,1.84 -2.06,1.84 1.08,2.47 3.45,3.24 5.09,3.24 3.49,0 5.3,-2.71 5.3,-5.53 0,-3.04 -2.16,-5.44 -3.28,-6.69 l -8.39,-8.3 c -0.36,-0.31 -0.36,-0.39 -0.36,-1.36 h 14.36 z" /></g>  </g>
  <g
     transform="matrix(0.4,0,0,0.4,168.5973,268.92613)"
     id="g5985"
     style="stroke-linecap:butt;stroke-linejoin:round">
    <g
       style="font-style:normal;font-variant:normal;font-weight:normal;font-stretch:normal;letter-spacing:normal;word-spacing:normal;text-anchor:start;fill:none;stroke:#000000;stroke-linecap:butt;stroke-linejoin:miter;stroke-miterlimit:10.43299961;stroke-opacity:1;stroke-dasharray:none;stroke-dashoffset:0"
       word-spacing="normal"
       letter-spacing="normal"
       font-size-adjust="none"
       font-stretch="normal"
       font-weight="normal"
       font-variant="normal"
       font-style="normal"
       stroke-miterlimit="10.433"
       xml:space="preserve"
       transform="matrix(1.0629921,0,0,-1.0629921,-186.02362,789.27165)"
       id="content-9"><polygon
         style="fill:#000000;stroke-width:0;stroke-linecap:butt;stroke-linejoin:round"
         id="polygon5988"
         points="469.76,447.12 487.74,447.12 487.74,448.67 469.76,448.67 " /><path
         style="fill:#000000;stroke-width:0;stroke-linecap:butt;stroke-linejoin:round"
         inkscape:connector-curvature="0"
         id="path5990"
         d="m 473.8,426.12 h 4.28 c 1,0 1.5,0 1.5,1 0,0.55 -0.5,0.55 -1.34,0.55 h -4.14 l 1.04,5.69 c 0.21,1.04 0.91,4.57 1.21,5.17 0.45,0.95 1.29,1.7 2.34,1.7 0.19,0 1.49,0 2.44,-0.91 -2.19,-0.18 -2.69,-1.93 -2.69,-2.68 0,-1.14 0.89,-1.74 1.85,-1.74 1.29,0 2.73,1.1 2.73,2.99 0,2.29 -2.3,3.43 -4.33,3.43 -1.7,0 -4.84,-0.89 -6.33,-5.82 -0.29,-1.05 -0.45,-1.55 -1.64,-7.83 h -3.43 c -0.96,0 -1.5,0 -1.5,-0.94 0,-0.61 0.45,-0.61 1.39,-0.61 h 3.29 l -3.75,-19.67 c -0.89,-4.83 -1.73,-9.38 -4.33,-9.38 -0.2,0 -1.43,0 -2.39,0.91 2.3,0.14 2.74,1.94 2.74,2.69 0,1.14 -0.89,1.75 -1.85,1.75 -1.29,0 -2.73,-1.1 -2.73,-3 0,-2.24 2.19,-3.44 4.23,-3.44 2.74,0 4.74,2.94 5.63,4.84 1.59,3.14 2.75,9.16 2.8,9.52 z" /></g>  </g>
</svg>
