<?xml version="1.0" encoding="UTF-8" standalone="no"?>
<!-- Created with Inkscape (http://www.inkscape.org/) -->

<svg
   xmlns:dc="http://purl.org/dc/elements/1.1/"
   xmlns:cc="http://creativecommons.org/ns#"
   xmlns:rdf="http://www.w3.org/1999/02/22-rdf-syntax-ns#"
   xmlns:svg="http://www.w3.org/2000/svg"
   xmlns="http://www.w3.org/2000/svg"
   xmlns:sodipodi="http://sodipodi.sourceforge.net/DTD/sodipodi-0.dtd"
   xmlns:inkscape="http://www.inkscape.org/namespaces/inkscape"
   id="svg3318"
   version="1.1"
   inkscape:version="0.48.5 r10040"
   width="720"
   height="540"
   xml:space="preserve"
   sodipodi:docname="target.pdf"><metadata
     id="metadata3324"><rdf:RDF><cc:Work
         rdf:about=""><dc:format>image/svg+xml</dc:format><dc:type
           rdf:resource="http://purl.org/dc/dcmitype/StillImage" /><dc:title></dc:title></cc:Work></rdf:RDF></metadata><defs
     id="defs3322"><clipPath
       clipPathUnits="userSpaceOnUse"
       id="clipPath3338"><path
         d="m 72,388.801 446.398,0 0,-345.602 -446.398,0 0,345.602 z"
         id="path3340" /></clipPath><clipPath
       clipPathUnits="userSpaceOnUse"
       id="clipPath3346"><path
         d="m 71,42 448,0 0,115 -448,0 0,-115 z"
         id="path3348" /></clipPath><clipPath
       clipPathUnits="userSpaceOnUse"
       id="clipPath3362"><path
         d="m 71,42 448,0 0,221 -448,0 0,-221 z"
         id="path3364" /></clipPath><clipPath
       clipPathUnits="userSpaceOnUse"
       id="clipPath3378"><path
         d="m 71,42 448,0 0,323 -448,0 0,-323 z"
         id="path3380" /></clipPath></defs><sodipodi:namedview
     pagecolor="#ffffff"
     bordercolor="#666666"
     borderopacity="1"
     objecttolerance="10"
     gridtolerance="10"
     guidetolerance="10"
     inkscape:pageopacity="0"
     inkscape:pageshadow="2"
     inkscape:window-width="1920"
     inkscape:window-height="1024"
     id="namedview3320"
     showgrid="false"
     inkscape:zoom="0.43703704"
     inkscape:cx="360"
     inkscape:cy="270"
     inkscape:window-x="-4"
     inkscape:window-y="31"
     inkscape:window-maximized="1"
     inkscape:current-layer="g3326" /><g
     id="g3326"
     inkscape:groupmode="layer"
     inkscape:label="target"
     transform="matrix(1.25,0,0,-1.25,0,540)"><g
       id="g3328"><path
         d="M 0,0 576,0 576,432 0,432 0,0 z"
         style="fill:#ffffff;fill-opacity:1;fill-rule:nonzero;stroke:none"
         id="path3330" /><path
         d="m 72,388.801 446.398,0 0,-345.602 -446.398,0 0,345.602 z"
         style="fill:#ffffff;fill-opacity:1;fill-rule:nonzero;stroke:none"
         id="path3332" /></g><g
       id="g3334"><g
         id="g3336"
         clip-path="url(#clipPath3338)"><g
           id="g3342"><g
             id="g3344" /><g
             id="g3350"><g
               clip-path="url(#clipPath3346)"
               id="g3352"><g
                 id="g3354"><path
                   d="m 72,43.199 5.578,28.274 1.789,7.906 1.785,6.933 1.786,6 1.785,5.192 1.785,4.5 1.785,3.922 2.008,3.836 2.011,3.336 2.008,2.922 2.231,2.847 2.234,2.492 2.453,2.414 2.68,2.301 2.902,2.172 3.125,2.043 3.348,1.902 3.57,1.77 4.02,1.723 4.238,1.578 4.688,1.504 5.355,1.48 5.805,1.371 6.695,1.348 7.59,1.285 8.48,1.207 9.821,1.16 11.16,1.094 12.945,1.039 15.18,0.984 17.855,0.93 21.203,0.875 25.446,0.82 31.023,0.77 38.168,0.711 47.543,0.66 60.488,0.605 63.61,0.461"
                   style="fill:none;stroke:#0000ff;stroke-opacity:1;stroke-width:1;stroke-linecap:square;stroke-linejoin:round;stroke-miterlimit:4;stroke-dasharray:none"
                   id="path3356" /></g></g></g></g><g
           id="g3358"><g
             id="g3360" /><g
             id="g3366"><g
               clip-path="url(#clipPath3362)"
               id="g3368"><g
                 id="g3370"><path
                   d="m 72,43.199 9.82,50.153 2.903,13.546 2.679,11.411 2.453,9.488 2.457,8.594 2.454,7.773 2.457,7.035 2.453,6.379 2.457,5.793 2.676,5.734 2.679,5.196 2.68,4.726 2.902,4.657 2.899,4.234 3.125,4.148 3.125,3.774 3.347,3.683 3.348,3.356 3.574,3.266 3.793,3.16 4.02,3.039 4.238,2.918 4.465,2.789 4.687,2.656 4.911,2.523 5.355,2.497 5.582,2.351 6.027,2.293 6.473,2.223 6.918,2.136 7.363,2.043 8.039,1.997 8.703,1.933 9.598,1.899 10.266,1.804 11.383,1.77 12.5,1.711 13.617,1.636 15.176,1.594 16.742,1.531 18.523,1.469 20.758,1.422 23.215,1.359 26.113,1.305 29.684,1.258 33.707,1.195 38.609,1.149 25.223,0.644"
                   style="fill:none;stroke:#008000;stroke-opacity:1;stroke-width:1;stroke-linecap:square;stroke-linejoin:round;stroke-miterlimit:4;stroke-dasharray:none"
                   id="path3372" /></g></g></g></g><g
           id="g3374"><g
             id="g3376" /><g
             id="g3382"><g
               clip-path="url(#clipPath3378)"
               id="g3384"><g
                 id="g3386"><path
                   d="m 72,43.199 13.84,70.86 3.793,18.109 3.347,14.867 3.125,12.844 2.903,11.031 2.902,10.203 2.899,9.43 2.902,8.711 2.902,8.055 3.125,8.007 3.125,7.383 3.125,6.821 3.125,6.308 3.348,6.262 3.348,5.785 3.347,5.363 3.571,5.309 3.574,4.914 3.793,4.848 3.793,4.492 4.019,4.414 4.239,4.312 4.242,4 4.465,3.907 4.687,3.8 4.91,3.684 5.133,3.562 5.356,3.438 5.582,3.312 5.8,3.18 6.028,3.055 6.472,3.027 6.7,2.887 7.14,2.84 7.59,2.773 8.035,2.696 8.481,2.609 9.152,2.578 9.598,2.473 10.265,2.414 10.938,2.34 11.828,2.304 12.723,2.246 13.617,2.176 14.73,2.129 15.848,2.059 17.183,2.004 18.528,1.937 20.312,1.895 22.098,1.836 24.105,1.777 26.559,1.726 29.016,1.664 4.91,0.262"
                   style="fill:none;stroke:#ff0000;stroke-opacity:1;stroke-width:1;stroke-linecap:square;stroke-linejoin:round;stroke-miterlimit:4;stroke-dasharray:none"
                   id="path3388" /></g></g></g></g></g></g><g
       id="g3390"><path
         d="m 72,388.801 446.398,0"
         style="fill:none;stroke:#000000;stroke-opacity:1;stroke-width:1;stroke-linecap:square;stroke-linejoin:miter;stroke-miterlimit:4;stroke-dasharray:none"
         id="path3392" /><path
         d="m 518.398,43.199 0,345.602"
         style="fill:none;stroke:#000000;stroke-opacity:1;stroke-width:1;stroke-linecap:square;stroke-linejoin:miter;stroke-miterlimit:4;stroke-dasharray:none"
         id="path3394" /><path
         d="m 72,43.199 446.398,0"
         style="fill:none;stroke:#000000;stroke-opacity:1;stroke-width:1;stroke-linecap:square;stroke-linejoin:miter;stroke-miterlimit:4;stroke-dasharray:none"
         id="path3396" /><path
         d="m 72,43.199 0,345.602"
         style="fill:none;stroke:#000000;stroke-opacity:1;stroke-width:1;stroke-linecap:square;stroke-linejoin:miter;stroke-miterlimit:4;stroke-dasharray:none"
         id="path3398" /><path
         d="m 72,43.199 0,4"
         style="fill:none;stroke:#000000;stroke-opacity:1;stroke-width:0.5;stroke-linecap:butt;stroke-linejoin:round;stroke-miterlimit:4;stroke-dasharray:none"
         id="path3400" /><path
         d="m 72,388.801 0,-4"
         style="fill:none;stroke:#000000;stroke-opacity:1;stroke-width:0.5;stroke-linecap:butt;stroke-linejoin:round;stroke-miterlimit:4;stroke-dasharray:none"
         id="path3402" /><path
         d="m 72.789,38.051 c -0.609,0 -1.066,-0.301 -1.375,-0.899 -0.305,-0.601 -0.457,-1.5 -0.457,-2.707 0,-1.195 0.152,-2.097 0.457,-2.695 0.309,-0.602 0.766,-0.902 1.375,-0.902 0.613,0 1.074,0.3 1.383,0.902 0.305,0.598 0.461,1.5 0.461,2.695 0,1.207 -0.156,2.106 -0.461,2.707 -0.309,0.598 -0.77,0.899 -1.383,0.899 m 0,0.937 c 0.984,0 1.731,-0.386 2.25,-1.164 0.516,-0.777 0.777,-1.902 0.777,-3.379 0,-1.472 -0.261,-2.593 -0.777,-3.371 -0.519,-0.777 -1.266,-1.164 -2.25,-1.164 -0.98,0 -1.727,0.387 -2.246,1.164 -0.516,0.778 -0.773,1.899 -0.773,3.371 0,1.477 0.257,2.602 0.773,3.379 0.519,0.778 1.266,1.164 2.246,1.164"
         style="fill:#000000;fill-opacity:1;fill-rule:nonzero;stroke:none"
         id="path3404" /><path
         d="m 183.602,43.199 0,4"
         style="fill:none;stroke:#000000;stroke-opacity:1;stroke-width:0.5;stroke-linecap:butt;stroke-linejoin:round;stroke-miterlimit:4;stroke-dasharray:none"
         id="path3406" /><path
         d="m 183.602,388.801 0,-4"
         style="fill:none;stroke:#000000;stroke-opacity:1;stroke-width:0.5;stroke-linecap:butt;stroke-linejoin:round;stroke-miterlimit:4;stroke-dasharray:none"
         id="path3408" /><path
         d="m 182.066,38.832 4.645,0 0,-1 -3.563,0 0,-2.141 c 0.172,0.059 0.344,0.102 0.516,0.129 0.172,0.032 0.344,0.043 0.516,0.043 0.976,0 1.75,-0.265 2.32,-0.801 0.57,-0.535 0.855,-1.261 0.855,-2.171 0,-0.942 -0.293,-1.676 -0.878,-2.2 -0.586,-0.519 -1.411,-0.781 -2.477,-0.781 -0.367,0 -0.742,0.031 -1.125,0.094 -0.379,0.062 -0.773,0.156 -1.18,0.281 l 0,1.192 c 0.352,-0.192 0.715,-0.332 1.09,-0.426 0.375,-0.094 0.77,-0.141 1.188,-0.141 0.675,0 1.211,0.176 1.605,0.531 0.395,0.356 0.594,0.836 0.594,1.45 0,0.605 -0.199,1.089 -0.594,1.445 -0.394,0.355 -0.93,0.531 -1.605,0.531 -0.317,0 -0.629,-0.035 -0.946,-0.101 -0.312,-0.071 -0.632,-0.18 -0.961,-0.328 l 0,4.394 z"
         style="fill:#000000;fill-opacity:1;fill-rule:nonzero;stroke:none"
         id="path3410" /><path
         d="m 295.199,43.199 0,4"
         style="fill:none;stroke:#000000;stroke-opacity:1;stroke-width:0.5;stroke-linecap:butt;stroke-linejoin:round;stroke-miterlimit:4;stroke-dasharray:none"
         id="path3412" /><path
         d="m 295.199,388.801 0,-4"
         style="fill:none;stroke:#000000;stroke-opacity:1;stroke-width:0.5;stroke-linecap:butt;stroke-linejoin:round;stroke-miterlimit:4;stroke-dasharray:none"
         id="path3414" /><path
         d="m 290.109,31.078 1.934,0 0,6.676 -2.102,-0.422 0,1.078 2.09,0.422 1.184,0 0,-7.754 1.933,0 0,-0.996 -5.039,0 0,0.996 z"
         style="fill:#000000;fill-opacity:1;fill-rule:nonzero;stroke:none"
         id="path3416" /><path
         d="m 300.07,38.051 c -0.609,0 -1.066,-0.301 -1.375,-0.899 -0.304,-0.601 -0.457,-1.5 -0.457,-2.707 0,-1.195 0.153,-2.097 0.457,-2.695 0.309,-0.602 0.766,-0.902 1.375,-0.902 0.614,0 1.075,0.3 1.379,0.902 0.309,0.598 0.465,1.5 0.465,2.695 0,1.207 -0.156,2.106 -0.465,2.707 -0.304,0.598 -0.765,0.899 -1.379,0.899 m 0,0.937 c 0.981,0 1.731,-0.386 2.25,-1.164 0.516,-0.777 0.774,-1.902 0.774,-3.379 0,-1.472 -0.258,-2.593 -0.774,-3.371 -0.519,-0.777 -1.269,-1.164 -2.25,-1.164 -0.98,0 -1.726,0.387 -2.246,1.164 -0.515,0.778 -0.777,1.899 -0.777,3.371 0,1.477 0.262,2.602 0.777,3.379 0.52,0.778 1.266,1.164 2.246,1.164"
         style="fill:#000000;fill-opacity:1;fill-rule:nonzero;stroke:none"
         id="path3418" /><path
         d="m 406.801,43.199 0,4"
         style="fill:none;stroke:#000000;stroke-opacity:1;stroke-width:0.5;stroke-linecap:butt;stroke-linejoin:round;stroke-miterlimit:4;stroke-dasharray:none"
         id="path3420" /><path
         d="m 406.801,388.801 0,-4"
         style="fill:none;stroke:#000000;stroke-opacity:1;stroke-width:0.5;stroke-linecap:butt;stroke-linejoin:round;stroke-miterlimit:4;stroke-dasharray:none"
         id="path3422" /><path
         d="m 401.836,31.078 1.934,0 0,6.676 -2.102,-0.422 0,1.078 2.09,0.422 1.183,0 0,-7.754 1.934,0 0,-0.996 -5.039,0 0,0.996 z"
         style="fill:#000000;fill-opacity:1;fill-rule:nonzero;stroke:none"
         id="path3424" /><path
         d="m 409.277,38.832 4.649,0 0,-1 -3.563,0 0,-2.141 c 0.172,0.059 0.34,0.102 0.512,0.129 0.172,0.032 0.348,0.043 0.52,0.043 0.976,0 1.75,-0.265 2.316,-0.801 0.574,-0.535 0.859,-1.261 0.859,-2.171 0,-0.942 -0.293,-1.676 -0.879,-2.2 -0.586,-0.519 -1.414,-0.781 -2.48,-0.781 -0.367,0 -0.742,0.031 -1.121,0.094 -0.383,0.062 -0.774,0.156 -1.18,0.281 l 0,1.192 c 0.352,-0.192 0.715,-0.332 1.09,-0.426 0.375,-0.094 0.77,-0.141 1.188,-0.141 0.675,0 1.21,0.176 1.605,0.531 0.395,0.356 0.59,0.836 0.59,1.45 0,0.605 -0.195,1.089 -0.59,1.445 -0.395,0.355 -0.93,0.531 -1.605,0.531 -0.317,0 -0.633,-0.035 -0.946,-0.101 -0.316,-0.071 -0.637,-0.18 -0.965,-0.328 l 0,4.394 z"
         style="fill:#000000;fill-opacity:1;fill-rule:nonzero;stroke:none"
         id="path3426" /><path
         d="m 518.398,43.199 0,4"
         style="fill:none;stroke:#000000;stroke-opacity:1;stroke-width:0.5;stroke-linecap:butt;stroke-linejoin:round;stroke-miterlimit:4;stroke-dasharray:none"
         id="path3428" /><path
         d="m 518.398,388.801 0,-4"
         style="fill:none;stroke:#000000;stroke-opacity:1;stroke-width:0.5;stroke-linecap:butt;stroke-linejoin:round;stroke-miterlimit:4;stroke-dasharray:none"
         id="path3430" /><path
         d="m 513.906,31.078 4.129,0 0,-0.996 -5.551,0 0,0.996 c 0.446,0.465 1.059,1.09 1.832,1.871 0.778,0.785 1.266,1.289 1.465,1.516 0.379,0.426 0.641,0.785 0.793,1.082 0.153,0.293 0.227,0.582 0.227,0.867 0,0.465 -0.164,0.844 -0.489,1.137 -0.328,0.293 -0.753,0.441 -1.277,0.441 -0.371,0 -0.762,-0.062 -1.176,-0.191 -0.41,-0.129 -0.851,-0.324 -1.32,-0.59 l 0,1.199 c 0.477,0.192 0.922,0.336 1.336,0.434 0.414,0.094 0.797,0.144 1.141,0.144 0.906,0 1.625,-0.226 2.164,-0.679 0.539,-0.454 0.808,-1.059 0.808,-1.817 0,-0.359 -0.066,-0.699 -0.203,-1.023 -0.133,-0.321 -0.379,-0.699 -0.734,-1.137 -0.098,-0.113 -0.406,-0.441 -0.93,-0.984 -0.523,-0.539 -1.262,-1.297 -2.215,-2.27"
         style="fill:#000000;fill-opacity:1;fill-rule:nonzero;stroke:none"
         id="path3432" /><path
         d="m 523.051,38.051 c -0.61,0 -1.067,-0.301 -1.375,-0.899 -0.305,-0.601 -0.457,-1.5 -0.457,-2.707 0,-1.195 0.152,-2.097 0.457,-2.695 0.308,-0.602 0.765,-0.902 1.375,-0.902 0.613,0 1.074,0.3 1.379,0.902 0.308,0.598 0.465,1.5 0.465,2.695 0,1.207 -0.157,2.106 -0.465,2.707 -0.305,0.598 -0.766,0.899 -1.379,0.899 m 0,0.937 c 0.98,0 1.73,-0.386 2.25,-1.164 0.515,-0.777 0.773,-1.902 0.773,-3.379 0,-1.472 -0.258,-2.593 -0.773,-3.371 -0.52,-0.777 -1.27,-1.164 -2.25,-1.164 -0.981,0 -1.727,0.387 -2.246,1.164 -0.516,0.778 -0.778,1.899 -0.778,3.371 0,1.477 0.262,2.602 0.778,3.379 0.519,0.778 1.265,1.164 2.246,1.164"
         style="fill:#000000;fill-opacity:1;fill-rule:nonzero;stroke:none"
         id="path3434" /><path
         d="m 72,43.199 4,0"
         style="fill:none;stroke:#000000;stroke-opacity:1;stroke-width:0.5;stroke-linecap:butt;stroke-linejoin:round;stroke-miterlimit:4;stroke-dasharray:none"
         id="path3436" /><path
         d="m 518.398,43.199 -4,0"
         style="fill:none;stroke:#000000;stroke-opacity:1;stroke-width:0.5;stroke-linecap:butt;stroke-linejoin:round;stroke-miterlimit:4;stroke-dasharray:none"
         id="path3438" /><path
         d="m 54.316,47.859 c -0.605,0 -1.066,-0.3 -1.371,-0.902 -0.308,-0.598 -0.461,-1.5 -0.461,-2.703 0,-1.199 0.153,-2.098 0.461,-2.699 0.305,-0.598 0.766,-0.899 1.371,-0.899 0.618,0 1.075,0.301 1.383,0.899 0.305,0.601 0.461,1.5 0.461,2.699 0,1.203 -0.156,2.105 -0.461,2.703 -0.308,0.602 -0.765,0.902 -1.383,0.902 m 0,0.938 c 0.985,0 1.731,-0.391 2.25,-1.168 0.516,-0.774 0.778,-1.899 0.778,-3.375 0,-1.473 -0.262,-2.598 -0.778,-3.375 -0.519,-0.774 -1.265,-1.16 -2.25,-1.16 -0.976,0 -1.726,0.386 -2.246,1.16 -0.515,0.777 -0.773,1.902 -0.773,3.375 0,1.476 0.258,2.601 0.773,3.375 0.52,0.777 1.27,1.168 2.246,1.168"
         style="fill:#000000;fill-opacity:1;fill-rule:nonzero;stroke:none"
         id="path3440" /><path
         d="m 59.422,41.379 1.238,0 0,-1.488 -1.238,0 0,1.488 z"
         style="fill:#000000;fill-opacity:1;fill-rule:nonzero;stroke:none"
         id="path3442" /><path
         d="m 65.766,47.859 c -0.606,0 -1.067,-0.3 -1.371,-0.902 -0.309,-0.598 -0.461,-1.5 -0.461,-2.703 0,-1.199 0.152,-2.098 0.461,-2.699 0.304,-0.598 0.765,-0.899 1.371,-0.899 0.617,0 1.074,0.301 1.382,0.899 0.305,0.601 0.461,1.5 0.461,2.699 0,1.203 -0.156,2.105 -0.461,2.703 -0.308,0.602 -0.765,0.902 -1.382,0.902 m 0,0.938 c 0.984,0 1.73,-0.391 2.25,-1.168 0.515,-0.774 0.777,-1.899 0.777,-3.375 0,-1.473 -0.262,-2.598 -0.777,-3.375 -0.52,-0.774 -1.266,-1.16 -2.25,-1.16 -0.977,0 -1.727,0.386 -2.246,1.16 -0.516,0.777 -0.774,1.902 -0.774,3.375 0,1.476 0.258,2.601 0.774,3.375 0.519,0.777 1.269,1.168 2.246,1.168"
         style="fill:#000000;fill-opacity:1;fill-rule:nonzero;stroke:none"
         id="path3444" /><path
         d="m 72,100.801 4,0"
         style="fill:none;stroke:#000000;stroke-opacity:1;stroke-width:0.5;stroke-linecap:butt;stroke-linejoin:round;stroke-miterlimit:4;stroke-dasharray:none"
         id="path3446" /><path
         d="m 518.398,100.801 -4,0"
         style="fill:none;stroke:#000000;stroke-opacity:1;stroke-width:0.5;stroke-linecap:butt;stroke-linejoin:round;stroke-miterlimit:4;stroke-dasharray:none"
         id="path3448" /><path
         d="m 54.57,105.457 c -0.609,0 -1.066,-0.301 -1.375,-0.898 -0.304,-0.602 -0.461,-1.5 -0.461,-2.704 0,-1.199 0.157,-2.101 0.461,-2.699 0.309,-0.601 0.766,-0.902 1.375,-0.902 0.614,0 1.075,0.301 1.379,0.902 0.309,0.598 0.461,1.5 0.461,2.699 0,1.204 -0.152,2.102 -0.461,2.704 -0.304,0.597 -0.765,0.898 -1.379,0.898 m 0,0.938 c 0.981,0 1.731,-0.387 2.246,-1.165 0.52,-0.773 0.778,-1.902 0.778,-3.375 0,-1.472 -0.258,-2.597 -0.778,-3.375 -0.515,-0.773 -1.265,-1.164 -2.246,-1.164 -0.98,0 -1.73,0.391 -2.246,1.164 -0.519,0.778 -0.777,1.903 -0.777,3.375 0,1.473 0.258,2.602 0.777,3.375 0.516,0.778 1.266,1.165 2.246,1.165"
         style="fill:#000000;fill-opacity:1;fill-rule:nonzero;stroke:none"
         id="path3450" /><path
         d="m 59.672,98.977 1.238,0 0,-1.488 -1.238,0 0,1.488 z"
         style="fill:#000000;fill-opacity:1;fill-rule:nonzero;stroke:none"
         id="path3452" /><path
         d="m 63.5,106.238 4.648,0 0,-1 -3.562,0 0,-2.14 c 0.168,0.058 0.34,0.101 0.512,0.129 0.172,0.031 0.343,0.043 0.519,0.043 0.973,0 1.746,-0.266 2.317,-0.801 0.574,-0.535 0.859,-1.258 0.859,-2.172 0,-0.942 -0.293,-1.676 -0.879,-2.195 -0.59,-0.524 -1.414,-0.786 -2.48,-0.786 -0.368,0 -0.743,0.032 -1.125,0.094 -0.379,0.063 -0.77,0.156 -1.176,0.281 l 0,1.192 c 0.347,-0.192 0.711,-0.332 1.086,-0.426 0.375,-0.094 0.773,-0.141 1.191,-0.141 0.676,0 1.211,0.176 1.606,0.532 0.394,0.355 0.589,0.84 0.589,1.449 0,0.609 -0.195,1.09 -0.589,1.445 -0.395,0.356 -0.93,0.535 -1.606,0.535 -0.316,0 -0.633,-0.035 -0.949,-0.105 -0.313,-0.07 -0.633,-0.18 -0.961,-0.328 l 0,4.394 z"
         style="fill:#000000;fill-opacity:1;fill-rule:nonzero;stroke:none"
         id="path3454" /><path
         d="m 72,158.398 4,0"
         style="fill:none;stroke:#000000;stroke-opacity:1;stroke-width:0.5;stroke-linecap:butt;stroke-linejoin:round;stroke-miterlimit:4;stroke-dasharray:none"
         id="path3456" /><path
         d="m 518.398,158.398 -4,0"
         style="fill:none;stroke:#000000;stroke-opacity:1;stroke-width:0.5;stroke-linecap:butt;stroke-linejoin:round;stroke-miterlimit:4;stroke-dasharray:none"
         id="path3458" /><path
         d="m 52.52,156.086 1.933,0 0,6.672 -2.105,-0.422 0,1.078 2.093,0.422 1.184,0 0,-7.75 1.934,0 0,-0.996 -5.039,0 0,0.996 z"
         style="fill:#000000;fill-opacity:1;fill-rule:nonzero;stroke:none"
         id="path3460" /><path
         d="m 59.949,156.578 1.238,0 0,-1.488 -1.238,0 0,1.488 z"
         style="fill:#000000;fill-opacity:1;fill-rule:nonzero;stroke:none"
         id="path3462" /><path
         d="m 66.293,163.059 c -0.609,0 -1.066,-0.301 -1.375,-0.903 -0.305,-0.597 -0.457,-1.5 -0.457,-2.703 0,-1.199 0.152,-2.098 0.457,-2.699 0.309,-0.598 0.766,-0.899 1.375,-0.899 0.613,0 1.074,0.301 1.383,0.899 0.304,0.601 0.461,1.5 0.461,2.699 0,1.203 -0.157,2.106 -0.461,2.703 -0.309,0.602 -0.77,0.903 -1.383,0.903 m 0,0.937 c 0.984,0 1.73,-0.391 2.25,-1.164 0.516,-0.777 0.777,-1.902 0.777,-3.379 0,-1.473 -0.261,-2.598 -0.777,-3.371 -0.52,-0.777 -1.266,-1.164 -2.25,-1.164 -0.981,0 -1.727,0.387 -2.246,1.164 -0.516,0.773 -0.774,1.898 -0.774,3.371 0,1.477 0.258,2.602 0.774,3.379 0.519,0.773 1.265,1.164 2.246,1.164"
         style="fill:#000000;fill-opacity:1;fill-rule:nonzero;stroke:none"
         id="path3464" /><path
         d="m 72,216 4,0"
         style="fill:none;stroke:#000000;stroke-opacity:1;stroke-width:0.5;stroke-linecap:butt;stroke-linejoin:round;stroke-miterlimit:4;stroke-dasharray:none"
         id="path3466" /><path
         d="m 518.398,216 -4,0"
         style="fill:none;stroke:#000000;stroke-opacity:1;stroke-width:0.5;stroke-linecap:butt;stroke-linejoin:round;stroke-miterlimit:4;stroke-dasharray:none"
         id="path3468" /><path
         d="m 52.77,213.684 1.933,0 0,6.675 -2.101,-0.421 0,1.078 2.089,0.422 1.184,0 0,-7.754 1.934,0 0,-0.996 -5.039,0 0,0.996 z"
         style="fill:#000000;fill-opacity:1;fill-rule:nonzero;stroke:none"
         id="path3470" /><path
         d="m 60.199,214.176 1.238,0 0,-1.488 -1.238,0 0,1.488 z"
         style="fill:#000000;fill-opacity:1;fill-rule:nonzero;stroke:none"
         id="path3472" /><path
         d="m 64.027,221.438 4.645,0 0,-0.997 -3.563,0 0,-2.144 c 0.172,0.058 0.344,0.101 0.516,0.133 0.172,0.027 0.344,0.043 0.516,0.043 0.976,0 1.75,-0.27 2.32,-0.805 0.57,-0.535 0.859,-1.258 0.859,-2.172 0,-0.941 -0.293,-1.672 -0.882,-2.195 -0.586,-0.524 -1.411,-0.781 -2.477,-0.781 -0.367,0 -0.742,0.031 -1.125,0.093 -0.379,0.063 -0.774,0.157 -1.18,0.282 l 0,1.187 c 0.352,-0.191 0.715,-0.332 1.09,-0.426 0.375,-0.094 0.774,-0.14 1.192,-0.14 0.675,0 1.21,0.175 1.605,0.531 0.395,0.355 0.59,0.84 0.59,1.449 0,0.609 -0.195,1.09 -0.59,1.445 -0.395,0.356 -0.93,0.536 -1.605,0.536 -0.317,0 -0.633,-0.036 -0.95,-0.106 -0.312,-0.07 -0.633,-0.18 -0.961,-0.328 l 0,4.395 z"
         style="fill:#000000;fill-opacity:1;fill-rule:nonzero;stroke:none"
         id="path3474" /><path
         d="m 72,273.602 4,0"
         style="fill:none;stroke:#000000;stroke-opacity:1;stroke-width:0.5;stroke-linecap:butt;stroke-linejoin:round;stroke-miterlimit:4;stroke-dasharray:none"
         id="path3476" /><path
         d="m 518.398,273.602 -4,0"
         style="fill:none;stroke:#000000;stroke-opacity:1;stroke-width:0.5;stroke-linecap:butt;stroke-linejoin:round;stroke-miterlimit:4;stroke-dasharray:none"
         id="path3478" /><path
         d="m 52.895,271.285 4.132,0 0,-0.996 -5.554,0 0,0.996 c 0.449,0.465 1.058,1.09 1.836,1.871 0.773,0.782 1.261,1.289 1.461,1.516 0.378,0.426 0.644,0.785 0.792,1.082 0.153,0.293 0.227,0.582 0.227,0.867 0,0.465 -0.164,0.844 -0.488,1.137 -0.328,0.293 -0.75,0.441 -1.274,0.441 -0.371,0 -0.765,-0.062 -1.175,-0.191 -0.414,-0.129 -0.852,-0.324 -1.321,-0.59 l 0,1.199 c 0.477,0.192 0.922,0.336 1.332,0.43 0.418,0.098 0.797,0.148 1.141,0.148 0.906,0 1.629,-0.226 2.168,-0.679 0.539,-0.454 0.808,-1.059 0.808,-1.817 0,-0.359 -0.07,-0.699 -0.203,-1.023 -0.136,-0.321 -0.379,-0.699 -0.734,-1.137 -0.098,-0.117 -0.41,-0.441 -0.934,-0.984 -0.523,-0.539 -1.261,-1.297 -2.214,-2.27"
         style="fill:#000000;fill-opacity:1;fill-rule:nonzero;stroke:none"
         id="path3480" /><path
         d="m 59.508,271.777 1.238,0 0,-1.488 -1.238,0 0,1.488 z"
         style="fill:#000000;fill-opacity:1;fill-rule:nonzero;stroke:none"
         id="path3482" /><path
         d="m 65.855,278.258 c -0.609,0 -1.066,-0.301 -1.375,-0.899 -0.304,-0.601 -0.457,-1.5 -0.457,-2.707 0,-1.199 0.153,-2.097 0.457,-2.695 0.309,-0.602 0.766,-0.902 1.375,-0.902 0.614,0 1.075,0.3 1.379,0.902 0.309,0.598 0.461,1.496 0.461,2.695 0,1.207 -0.152,2.106 -0.461,2.707 -0.304,0.598 -0.765,0.899 -1.379,0.899 m 0,0.937 c 0.981,0 1.731,-0.386 2.25,-1.164 0.516,-0.777 0.774,-1.902 0.774,-3.379 0,-1.472 -0.258,-2.593 -0.774,-3.371 -0.519,-0.777 -1.269,-1.164 -2.25,-1.164 -0.98,0 -1.73,0.387 -2.246,1.164 -0.519,0.778 -0.777,1.899 -0.777,3.371 0,1.477 0.258,2.602 0.777,3.379 0.516,0.778 1.266,1.164 2.246,1.164"
         style="fill:#000000;fill-opacity:1;fill-rule:nonzero;stroke:none"
         id="path3484" /><path
         d="m 72,331.199 4,0"
         style="fill:none;stroke:#000000;stroke-opacity:1;stroke-width:0.5;stroke-linecap:butt;stroke-linejoin:round;stroke-miterlimit:4;stroke-dasharray:none"
         id="path3486" /><path
         d="m 518.398,331.199 -4,0"
         style="fill:none;stroke:#000000;stroke-opacity:1;stroke-width:0.5;stroke-linecap:butt;stroke-linejoin:round;stroke-miterlimit:4;stroke-dasharray:none"
         id="path3488" /><path
         d="m 53.145,328.883 4.132,0 0,-0.992 -5.554,0 0,0.992 c 0.449,0.465 1.062,1.09 1.836,1.871 0.777,0.785 1.265,1.293 1.461,1.519 0.378,0.426 0.644,0.786 0.792,1.079 0.153,0.296 0.231,0.586 0.231,0.871 0,0.465 -0.164,0.843 -0.492,1.136 -0.324,0.293 -0.75,0.442 -1.274,0.442 -0.371,0 -0.761,-0.067 -1.175,-0.196 -0.411,-0.128 -0.852,-0.324 -1.321,-0.585 l 0,1.195 c 0.477,0.191 0.922,0.336 1.336,0.433 0.414,0.098 0.793,0.149 1.137,0.149 0.906,0 1.629,-0.231 2.168,-0.684 0.539,-0.453 0.808,-1.054 0.808,-1.812 0,-0.363 -0.066,-0.703 -0.203,-1.024 -0.132,-0.324 -0.379,-0.703 -0.734,-1.14 -0.098,-0.114 -0.41,-0.442 -0.934,-0.981 -0.519,-0.543 -1.257,-1.301 -2.214,-2.273"
         style="fill:#000000;fill-opacity:1;fill-rule:nonzero;stroke:none"
         id="path3490" /><path
         d="m 59.762,329.379 1.238,0 0,-1.488 -1.238,0 0,1.488 z"
         style="fill:#000000;fill-opacity:1;fill-rule:nonzero;stroke:none"
         id="path3492" /><path
         d="m 63.59,336.637 4.644,0 0,-0.996 -3.562,0 0,-2.145 c 0.172,0.059 0.344,0.102 0.516,0.133 0.171,0.027 0.343,0.043 0.515,0.043 0.977,0 1.75,-0.27 2.32,-0.805 0.571,-0.535 0.856,-1.258 0.856,-2.172 0,-0.941 -0.293,-1.672 -0.879,-2.195 -0.586,-0.52 -1.41,-0.781 -2.477,-0.781 -0.371,0 -0.742,0.031 -1.125,0.093 -0.378,0.063 -0.773,0.157 -1.179,0.282 l 0,1.191 c 0.351,-0.191 0.715,-0.336 1.09,-0.43 0.375,-0.093 0.769,-0.14 1.187,-0.14 0.676,0 1.211,0.18 1.606,0.535 0.394,0.352 0.593,0.836 0.593,1.445 0,0.61 -0.199,1.09 -0.593,1.446 -0.395,0.355 -0.93,0.535 -1.606,0.535 -0.316,0 -0.629,-0.035 -0.945,-0.106 -0.313,-0.07 -0.633,-0.179 -0.961,-0.328 l 0,4.395 z"
         style="fill:#000000;fill-opacity:1;fill-rule:nonzero;stroke:none"
         id="path3494" /><path
         d="m 72,388.801 4,0"
         style="fill:none;stroke:#000000;stroke-opacity:1;stroke-width:0.5;stroke-linecap:butt;stroke-linejoin:round;stroke-miterlimit:4;stroke-dasharray:none"
         id="path3496" /><path
         d="m 518.398,388.801 -4,0"
         style="fill:none;stroke:#000000;stroke-opacity:1;stroke-width:0.5;stroke-linecap:butt;stroke-linejoin:round;stroke-miterlimit:4;stroke-dasharray:none"
         id="path3498" /><path
         d="m 55.496,390.207 c 0.566,-0.121 1.008,-0.375 1.328,-0.758 0.317,-0.383 0.477,-0.855 0.477,-1.418 0,-0.863 -0.297,-1.531 -0.891,-2.004 -0.594,-0.472 -1.437,-0.711 -2.531,-0.711 -0.367,0 -0.742,0.039 -1.133,0.11 -0.387,0.074 -0.789,0.183 -1.203,0.328 l 0,1.141 c 0.328,-0.192 0.687,-0.336 1.078,-0.434 0.391,-0.098 0.797,-0.145 1.223,-0.145 0.742,0 1.308,0.145 1.695,0.438 0.391,0.293 0.586,0.719 0.586,1.277 0,0.516 -0.184,0.918 -0.543,1.211 -0.363,0.289 -0.863,0.434 -1.508,0.434 l -1.019,0 0,0.976 1.066,0 c 0.582,0 1.027,0.114 1.336,0.348 0.309,0.23 0.461,0.566 0.461,1.004 0,0.449 -0.156,0.793 -0.477,1.035 -0.316,0.238 -0.773,0.359 -1.367,0.359 -0.324,0 -0.672,-0.035 -1.043,-0.105 -0.371,-0.07 -0.781,-0.18 -1.226,-0.328 l 0,1.055 c 0.449,0.125 0.871,0.218 1.265,0.281 0.391,0.062 0.762,0.094 1.11,0.094 0.898,0 1.609,-0.204 2.132,-0.614 0.524,-0.406 0.786,-0.957 0.786,-1.652 0,-0.484 -0.141,-0.895 -0.418,-1.231 -0.278,-0.332 -0.672,-0.562 -1.184,-0.691"
         style="fill:#000000;fill-opacity:1;fill-rule:nonzero;stroke:none"
         id="path3500" /><path
         d="m 59.547,386.977 1.234,0 0,-1.488 -1.234,0 0,1.488 z"
         style="fill:#000000;fill-opacity:1;fill-rule:nonzero;stroke:none"
         id="path3502" /><path
         d="m 65.891,393.457 c -0.61,0 -1.067,-0.301 -1.375,-0.898 -0.305,-0.602 -0.457,-1.5 -0.457,-2.704 0,-1.199 0.152,-2.101 0.457,-2.699 0.308,-0.601 0.765,-0.902 1.375,-0.902 0.613,0 1.074,0.301 1.379,0.902 0.308,0.598 0.46,1.5 0.46,2.699 0,1.204 -0.152,2.102 -0.46,2.704 -0.305,0.597 -0.766,0.898 -1.379,0.898 m 0,0.938 c 0.98,0 1.73,-0.387 2.25,-1.165 0.515,-0.773 0.773,-1.902 0.773,-3.375 0,-1.472 -0.258,-2.597 -0.773,-3.375 -0.52,-0.773 -1.27,-1.164 -2.25,-1.164 -0.981,0 -1.727,0.391 -2.246,1.164 -0.516,0.778 -0.778,1.903 -0.778,3.375 0,1.473 0.262,2.602 0.778,3.375 0.519,0.778 1.265,1.165 2.246,1.165"
         style="fill:#000000;fill-opacity:1;fill-rule:nonzero;stroke:none"
         id="path3504" /><g
         id="g3506"
         transform="matrix(1,0,0,-1,0,432)"><path
           d="M 71.66,388.293 138.238,55.398"
           style="fill:none;stroke:#000000;stroke-opacity:1;stroke-width:0.8;stroke-linecap:butt;stroke-linejoin:miter;stroke-miterlimit:4;stroke-dasharray:3.2,3.2;stroke-dashoffset:0"
           id="path3508" /></g><g
         id="g3510"
         transform="matrix(1,0,0,-1,0,432)"><path
           d="m 71.66,273.43 446.738,0"
           style="fill:none;stroke:#000000;stroke-opacity:1;stroke-width:0.8;stroke-linecap:butt;stroke-linejoin:miter;stroke-miterlimit:4;stroke-dasharray:4.8,0.8;stroke-dashoffset:0"
           id="path3512" /></g><path
         d="m 72.934,273.938 446.738,0"
         style="fill:none;stroke:#000000;stroke-opacity:1;stroke-width:0.8;stroke-linecap:butt;stroke-linejoin:miter;stroke-miterlimit:4;stroke-dasharray:4.8,0.8;stroke-dashoffset:0"
         id="path3514" /><path
         d="m 126.723,124.035 0.082,-0.215 0.086,-0.215 0.164,-0.449 0.172,-0.457 0.164,-0.469 0.168,-0.468 0.164,-0.461 0.156,-0.457 0.082,-0.223 0.078,-0.219 0.07,-0.211 0.079,-0.211 0.066,-0.199 0.074,-0.191 0.067,-0.188 0.062,-0.175 0.066,-0.168 0.059,-0.157 0.055,-0.148 0.054,-0.137 0.051,-0.125 0.051,-0.109 0.043,-0.098 0.043,-0.086 0.039,-0.066 0.035,-0.051 c 0.336,-0.469 0.547,-0.469 1.121,-0.469 l 0.465,0 c 0.211,0.024 0.234,0.149 0.234,0.215 0,0.059 -0.043,0.106 -0.109,0.195 -0.207,0.227 -0.34,0.543 -0.484,0.969 l -4.321,12.051 c -0.445,1.227 -1.593,1.508 -2.582,1.508 -0.109,0 -0.382,0 -0.382,-0.235 0,-0.171 0.167,-0.211 0.191,-0.211 0.695,-0.128 0.84,-0.253 1.371,-1.695 l 2.055,-5.758 -5.848,-5.808 c -0.25,-0.254 -0.379,-0.383 -0.379,-0.656 0,-0.36 0.297,-0.614 0.641,-0.614 0.34,0 0.519,0.235 0.695,0.449 l 5.102,6.012 z"
         style="fill:#000000;fill-opacity:1;fill-rule:nonzero;stroke:none"
         id="path3516" /><path
         d="m 151.988,124.777 0.18,0 0.035,0.004 0.027,0 0.032,0.004 0.027,0.004 0.031,0.008 0.032,0.004 0.027,0.004 0.031,0.007 0.024,0.008 0.054,0.016 0.024,0.016 0.027,0.011 0.039,0.032 0.024,0.019 0.015,0.016 0.02,0.023 0.015,0.024 0.004,0.011 0.008,0.012 0.004,0.012 0.012,0.015 0.008,0.032 0.003,0.011 0.004,0.02 0.004,0.015 0,0.016 0.004,0.02 0,0.054 c 0,0.426 -0.402,0.426 -0.695,0.426 l -12.692,0 c -0.3,0 -0.695,0 -0.695,-0.426 0,-0.418 0.395,-0.418 0.715,-0.418 l 12.652,0 z"
         style="fill:#000000;fill-opacity:1;fill-rule:nonzero;stroke:none"
         id="path3518" /><path
         d="m 152.008,120.664 0.054,0 0.059,0.004 0.09,0 0.027,0.004 0.032,0.004 0.031,0 0.027,0.004 0.027,0.008 0.028,0.003 0.027,0.008 0.031,0.012 0.024,0.008 0.027,0.008 0.047,0.023 0.02,0.02 0.019,0.015 0.024,0.016 0.015,0.023 0.02,0.02 0.015,0.023 0.004,0.012 0.008,0.012 0.004,0.015 0.012,0.012 0.004,0.016 0.004,0.011 0.003,0.02 0.004,0.015 0.004,0.02 0,0.016 0.004,0.015 0,0.055 c 0,0.426 -0.402,0.426 -0.715,0.426 l -12.652,0 c -0.32,0 -0.715,0 -0.715,-0.426 0,-0.422 0.395,-0.422 0.695,-0.422 l 12.692,0 z"
         style="fill:#000000;fill-opacity:1;fill-rule:nonzero;stroke:none"
         id="path3520" /><path
         d="m 166.004,131.406 0,0.133 -0.004,0.016 0,0.109 -0.004,0.012 0,0.027 -0.004,0.031 -0.004,0.028 -0.008,0.019 -0.003,0.02 -0.008,0.023 -0.008,0.016 -0.008,0.019 -0.012,0.012 -0.015,0.012 -0.012,0.012 -0.012,0.015 -0.039,0.016 -0.015,0.008 -0.016,0 -0.023,0.007 -0.012,0 -0.016,0.004 -0.011,0 -0.012,0.008 -0.031,0 -0.016,0.004 -0.09,0 -0.016,0.004 -0.089,0 c -1.317,-1.359 -3.172,-1.359 -3.852,-1.359 l 0,-0.657 c 0.422,0 1.672,0 2.77,0.551 l 0,-10.973 c 0,-0.765 -0.059,-1.015 -1.969,-1.015 l -0.676,0 0,-0.66 c 0.746,0.066 2.586,0.066 3.43,0.066 0.847,0 2.691,0 3.433,-0.066 l 0,0.66 -0.675,0 c -1.911,0 -1.973,0.226 -1.973,1.015 l 0,11.883 z"
         style="fill:#000000;fill-opacity:1;fill-rule:nonzero;stroke:none"
         id="path3522" /><path
         d="m 142.219,200.223 0.078,-0.215 0.086,-0.215 0.168,-0.445 0.168,-0.461 0.168,-0.469 0.328,-0.93 0.16,-0.457 0.078,-0.222 0.078,-0.219 0.149,-0.422 0.07,-0.199 0.07,-0.192 0.067,-0.187 0.066,-0.176 0.063,-0.168 0.058,-0.156 0.059,-0.149 0.055,-0.136 0.05,-0.125 0.051,-0.11 0.043,-0.097 0.043,-0.086 0.035,-0.067 0.035,-0.05 c 0.336,-0.469 0.547,-0.469 1.121,-0.469 l 0.465,0 c 0.211,0.023 0.235,0.148 0.235,0.215 0,0.058 -0.043,0.105 -0.106,0.195 -0.211,0.227 -0.34,0.543 -0.484,0.969 l -4.321,12.05 c -0.449,1.227 -1.593,1.508 -2.585,1.508 -0.106,0 -0.383,0 -0.383,-0.234 0,-0.172 0.168,-0.211 0.191,-0.211 0.695,-0.129 0.84,-0.25 1.375,-1.691 l 2.051,-5.762 -5.844,-5.809 c -0.254,-0.25 -0.379,-0.383 -0.379,-0.656 0,-0.359 0.297,-0.613 0.637,-0.613 0.34,0 0.523,0.234 0.695,0.449 l 5.106,6.012 z"
         style="fill:#000000;fill-opacity:1;fill-rule:nonzero;stroke:none"
         id="path3524" /><path
         d="m 167.484,200.965 0.176,0 0.035,0.004 0.032,0 0.027,0.004 0.031,0.007 0.027,0.004 0.063,0.008 0.055,0.016 0.023,0.008 0.027,0.011 0.024,0.012 0.027,0.012 0.02,0.015 0.023,0.016 0.02,0.02 0.019,0.015 0.032,0.047 0.003,0.012 0.012,0.012 0.004,0.011 0.008,0.02 0.004,0.011 0.004,0.016 0.004,0.012 0.004,0.019 0.003,0.016 0,0.016 0.004,0.019 0,0.055 c 0,0.426 -0.402,0.426 -0.695,0.426 l -12.688,0 c -0.3,0 -0.699,0 -0.699,-0.426 0,-0.418 0.399,-0.418 0.715,-0.418 l 12.656,0 z"
         style="fill:#000000;fill-opacity:1;fill-rule:nonzero;stroke:none"
         id="path3526" /><path
         d="m 167.5,196.852 0.055,0 0.058,0.003 0.09,0 0.031,0.004 0.028,0.004 0.031,0 0.031,0.004 0.024,0.008 0.031,0.004 0.023,0.008 0.032,0.011 0.023,0.008 0.027,0.008 0.028,0.012 0.019,0.012 0.02,0.019 0.023,0.016 0.047,0.047 0.024,0.035 0.003,0.011 0.012,0.012 0.004,0.016 0.008,0.011 0.016,0.063 0.003,0.02 0,0.015 0.004,0.016 0,0.054 c 0,0.426 -0.402,0.426 -0.711,0.426 l -12.656,0 c -0.316,0 -0.715,0 -0.715,-0.426 0,-0.421 0.399,-0.421 0.699,-0.421 l 12.688,0 z"
         style="fill:#000000;fill-opacity:1;fill-rule:nonzero;stroke:none"
         id="path3528" /><path
         d="m 177.961,195.668 2.246,2.18 c 3.301,2.922 4.578,4.066 4.578,6.183 0,2.418 -1.906,4.117 -4.492,4.117 -2.398,0 -3.965,-1.957 -3.965,-3.839 0,-1.188 1.063,-1.188 1.121,-1.188 0.367,0 1.102,0.254 1.102,1.125 0,0.551 -0.379,1.106 -1.121,1.106 -0.168,0 -0.215,0 -0.274,-0.024 0.485,1.379 1.629,2.16 2.856,2.16 1.926,0 2.847,-1.722 2.847,-3.457 0,-1.691 -1.066,-3.367 -2.226,-4.679 l -4.067,-4.536 c -0.238,-0.226 -0.238,-0.269 -0.238,-0.781 l 7.856,0 0.601,3.688 -0.531,0 c -0.109,-0.641 -0.254,-1.571 -0.465,-1.891 -0.152,-0.164 -1.547,-0.164 -2.016,-0.164 l -3.812,0 z"
         style="fill:#000000;fill-opacity:1;fill-rule:nonzero;stroke:none"
         id="path3530" /><path
         d="m 227.668,311.723 0.078,-0.211 0.086,-0.219 0.164,-0.445 0.172,-0.457 0.164,-0.469 0.168,-0.469 0.164,-0.461 0.16,-0.457 0.078,-0.226 0.078,-0.215 0.071,-0.215 0.078,-0.207 0.066,-0.199 0.075,-0.192 0.066,-0.187 0.066,-0.18 0.063,-0.164 0.058,-0.156 0.055,-0.149 0.059,-0.136 0.051,-0.125 0.05,-0.11 0.043,-0.097 0.039,-0.086 0.039,-0.067 0.036,-0.051 c 0.335,-0.468 0.546,-0.468 1.121,-0.468 l 0.464,0 c 0.211,0.019 0.235,0.148 0.235,0.211 0,0.058 -0.043,0.105 -0.106,0.195 -0.211,0.23 -0.339,0.547 -0.484,0.969 l -4.32,12.05 c -0.45,1.231 -1.598,1.512 -2.586,1.512 -0.106,0 -0.383,0 -0.383,-0.234 0,-0.176 0.168,-0.215 0.191,-0.215 0.696,-0.125 0.84,-0.25 1.371,-1.691 l 2.055,-5.762 -5.848,-5.809 c -0.25,-0.25 -0.375,-0.383 -0.375,-0.652 0,-0.363 0.297,-0.613 0.637,-0.613 0.34,0 0.524,0.234 0.695,0.445 l 5.106,6.012 z"
         style="fill:#000000;fill-opacity:1;fill-rule:nonzero;stroke:none"
         id="path3532" /><path
         d="m 252.93,312.469 0.179,0 0.036,0.004 0.027,0 0.062,0.007 0.028,0.004 0.062,0.008 0.028,0.012 0.027,0.008 0.023,0.008 0.028,0.007 0.023,0.012 0.027,0.016 0.02,0.015 0.023,0.012 0.02,0.023 0.019,0.016 0.032,0.047 0.004,0.008 0.011,0.015 0.004,0.012 0.008,0.016 0.004,0.011 0.004,0.02 0.004,0.012 0.004,0.015 0.004,0.02 0,0.015 0.004,0.016 0,0.059 c 0,0.422 -0.403,0.422 -0.696,0.422 l -12.687,0 c -0.305,0 -0.7,0 -0.7,-0.422 0,-0.418 0.395,-0.418 0.715,-0.418 l 12.653,0 z"
         style="fill:#000000;fill-opacity:1;fill-rule:nonzero;stroke:none"
         id="path3534" /><path
         d="m 252.949,308.352 0.055,0 0.058,0.003 0.09,0 0.032,0.004 0.027,0.008 0.031,0 0.031,0.004 0.024,0.008 0.031,0.004 0.024,0.008 0.031,0.007 0.023,0.008 0.028,0.012 0.046,0.023 0.02,0.016 0.023,0.02 0.02,0.015 0.019,0.024 0.008,0.007 0.008,0.012 0.008,0.008 0.008,0.016 0.004,0.011 0.011,0.012 0.004,0.012 0.008,0.015 0.004,0.016 0.004,0.012 0.004,0.019 0.008,0.032 0,0.019 0.004,0.016 0,0.054 c 0,0.426 -0.403,0.426 -0.715,0.426 l -12.653,0 c -0.32,0 -0.715,0 -0.715,-0.426 0,-0.425 0.395,-0.425 0.7,-0.425 l 12.687,0 z"
         style="fill:#000000;fill-opacity:1;fill-rule:nonzero;stroke:none"
         id="path3536" /><path
         d="m 266.863,312.992 0.164,0.055 0.157,0.062 0.152,0.067 0.152,0.07 0.153,0.078 0.144,0.078 0.141,0.086 0.265,0.188 0.129,0.097 0.121,0.102 0.125,0.105 0.227,0.227 0.102,0.117 0.101,0.121 0.098,0.125 0.09,0.125 0.082,0.129 0.082,0.137 0.074,0.137 0.066,0.132 0.063,0.141 0.058,0.145 0.051,0.144 0.039,0.145 0.039,0.148 0.032,0.156 0.023,0.153 0.019,0.152 0.012,0.152 0.004,0.161 c 0,1.734 -1.867,2.921 -3.902,2.921 -2.141,0 -3.746,-1.273 -3.746,-2.882 0,-0.7 0.468,-1.106 1.086,-1.106 0.648,0 1.074,0.469 1.074,1.086 0,1.055 -0.996,1.055 -1.309,1.055 0.649,1.039 2.051,1.316 2.817,1.316 0.863,0 2.035,-0.465 2.035,-2.371 0,-0.258 -0.047,-1.484 -0.602,-2.418 -0.629,-1.019 -1.355,-1.078 -1.879,-1.101 -0.172,-0.024 -0.675,-0.063 -0.828,-0.063 -0.168,-0.019 -0.32,-0.039 -0.32,-0.254 0,-0.23 0.152,-0.23 0.512,-0.23 l 0.929,0 c 1.739,0 2.528,-1.442 2.528,-3.524 0,-2.875 -1.465,-3.492 -2.403,-3.492 -0.906,0 -2.496,0.359 -3.234,1.609 0.738,-0.101 1.394,0.364 1.394,1.168 0,0.762 -0.57,1.184 -1.187,1.184 -0.508,0 -1.184,-0.293 -1.184,-1.23 0,-1.926 1.965,-3.321 4.278,-3.321 2.586,0 4.511,1.926 4.511,4.082 0,1.742 -1.336,3.391 -3.535,3.836 z"
         style="fill:#000000;fill-opacity:1;fill-rule:nonzero;stroke:none"
         id="path3538" /><path
         d="m 298.93,16.113 1.82,0 c 0.422,0 0.637,0 0.637,0.426 0,0.234 -0.215,0.234 -0.571,0.234 l -1.761,0 0.445,2.418 c 0.086,0.442 0.387,1.946 0.512,2.2 0.191,0.402 0.55,0.722 0.996,0.722 0.082,0 0.633,0 1.039,-0.386 -0.934,-0.079 -1.145,-0.821 -1.145,-1.141 0,-0.484 0.379,-0.738 0.786,-0.738 0.55,0 1.16,0.468 1.16,1.269 0,0.977 -0.977,1.461 -1.84,1.461 -0.723,0 -2.059,-0.379 -2.692,-2.476 -0.125,-0.446 -0.191,-0.661 -0.699,-3.329 l -1.457,0 c -0.406,0 -0.637,0 -0.637,-0.398 0,-0.262 0.192,-0.262 0.59,-0.262 l 1.399,0 -1.594,-8.363 c -0.379,-2.055 -0.734,-3.988 -1.84,-3.988 -0.086,0 -0.609,0 -1.016,0.386 0.977,0.059 1.165,0.825 1.165,1.145 0,0.484 -0.379,0.742 -0.789,0.742 -0.547,0 -1.161,-0.465 -1.161,-1.273 0,-0.953 0.934,-1.465 1.801,-1.465 1.164,0 2.016,1.25 2.395,2.058 0.675,1.336 1.168,3.895 1.187,4.047 l 1.27,6.711 z"
         style="fill:#000000;fill-opacity:1;fill-rule:nonzero;stroke:none"
         id="path3540" /><path
         d="m 32.383,228.148 7.645,0 0,-0.66 -7.645,0 0,0.66 z"
         style="fill:#000000;fill-opacity:1;fill-rule:nonzero;stroke:none"
         id="path3542" /><path
         d="m 35.836,223.145 0.008,0.031 0.004,0.027 0.011,0.051 0.016,0.051 0.023,0.093 0.012,0.04 0.016,0.039 0.012,0.039 0.023,0.07 0.016,0.027 0.011,0.032 0.012,0.023 0.016,0.027 0.023,0.047 0.012,0.02 0.015,0.019 0.016,0.016 0.012,0.015 0.031,0.032 0.016,0.011 0.019,0.016 0.016,0.008 0.019,0.012 0.039,0.015 0.02,0.004 0.019,0.012 0.024,0.004 0.023,0.008 c 0.192,0.046 0.895,0.046 1.336,0.046 2.137,0 3.09,-0.089 3.09,-1.742 0,-0.312 -0.082,-1.14 -0.164,-1.695 -0.023,-0.078 -0.07,-0.34 -0.07,-0.398 0,-0.129 0.07,-0.282 0.25,-0.282 0.242,0 0.281,0.176 0.32,0.492 l 0.574,3.684 c 0.028,0.086 0.047,0.297 0.047,0.367 0,0.227 -0.211,0.227 -0.574,0.227 l -11.758,0 c -0.512,0 -0.531,-0.024 -0.68,-0.422 l -1.265,-3.727 c -0.028,-0.046 -0.129,-0.339 -0.129,-0.386 0,-0.129 0.101,-0.235 0.254,-0.235 0.215,0 0.23,0.106 0.359,0.446 1.145,3.285 1.692,3.671 4.828,3.671 l 0.828,0 c 0.594,0 0.594,-0.089 0.594,-0.253 0,-0.133 -0.062,-0.383 -0.086,-0.446 l -2.836,-11.312 c -0.191,-0.789 -0.258,-1.016 -2.523,-1.016 -0.766,0 -0.891,0 -0.891,-0.41 0,-0.25 0.231,-0.25 0.36,-0.25 0.578,0 1.168,0.039 1.738,0.039 0.594,0 1.211,0.027 1.801,0.027 0.593,0 1.183,-0.027 1.761,-0.027 0.614,0 1.25,-0.039 1.84,-0.039 0.215,0 0.465,0 0.465,0.426 0,0.234 -0.168,0.234 -0.719,0.234 -0.531,0 -0.804,0 -1.351,0.035 -0.621,0.071 -0.789,0.129 -0.789,0.465 0,0.031 0,0.137 0.082,0.445 l 2.824,11.247 z"
         style="fill:#000000;fill-opacity:1;fill-rule:nonzero;stroke:none"
         id="path3544" /><path
         d="m 281.336,411.371 0.008,0.039 0.008,0.047 0.015,0.051 0.012,0.047 0.012,0.05 0.015,0.055 0.024,0.106 0.027,0.105 0.023,0.106 0.028,0.101 0.023,0.11 0.012,0.042 0.016,0.055 0.011,0.047 0.008,0.043 0.024,0.086 0.007,0.043 0.008,0.039 0.008,0.035 0.008,0.031 0.004,0.032 0.004,0.027 0.007,0.023 0.004,0.02 0,0.019 0.004,0.012 c 0,0.387 -0.304,0.574 -0.621,0.574 -0.25,0 -0.629,-0.164 -0.777,-0.589 -0.067,-0.149 -1.063,-4.196 -1.211,-4.747 -0.152,-0.636 -0.188,-1.015 -0.188,-1.402 0,-0.23 0,-0.273 0.016,-0.379 -0.484,-1.121 -1.121,-1.777 -1.945,-1.777 -1.696,0 -1.696,1.562 -1.696,1.926 0,0.675 0.106,1.504 1.106,4.113 0.23,0.629 0.359,0.93 0.359,1.355 0,0.95 -0.699,1.731 -1.742,1.731 -2.016,0 -2.797,-3.067 -2.797,-3.262 0,-0.211 0.215,-0.211 0.262,-0.211 0.211,0 0.226,0.047 0.336,0.387 0.57,1.961 1.394,2.621 2.137,2.621 0.187,0 0.531,-0.02 0.531,-0.695 0,-0.532 -0.238,-1.125 -0.383,-1.481 -0.93,-2.5 -1.18,-3.48 -1.18,-4.281 0,-1.926 1.414,-2.672 3,-2.672 0.367,0 1.356,0 2.207,1.485 0.547,-1.356 2.012,-1.485 2.649,-1.485 1.59,0 2.515,1.336 3.07,2.606 0.719,1.656 1.395,4.492 1.395,5.507 0,1.168 -0.571,1.481 -0.93,1.481 -0.531,0 -1.055,-0.551 -1.055,-1.016 0,-0.273 0.125,-0.398 0.309,-0.57 0.234,-0.234 0.765,-0.781 0.765,-1.801 0,-0.719 -0.613,-2.797 -1.16,-3.871 -0.554,-1.125 -1.297,-1.867 -2.336,-1.867 -0.992,0 -1.566,0.637 -1.566,1.836 0,0.601 0.148,1.258 0.234,1.547 l 0.891,3.566 z"
         style="fill:#000000;fill-opacity:1;fill-rule:nonzero;stroke:none"
         id="path3546" /><path
         d="m 307.738,411.117 0.18,0 0.031,0.004 0.035,0 0.028,0.004 0.031,0.008 0.031,0.004 0.028,0.004 0.031,0.004 0.023,0.007 0.032,0.008 0.027,0.008 0.023,0.012 0.028,0.011 0.023,0.012 0.023,0.016 0.02,0.015 0.02,0.02 0.019,0.016 0.024,0.035 0.011,0.011 0.004,0.012 0.008,0.012 0.004,0.012 0.004,0.019 0.008,0.012 0.004,0.015 0.003,0.012 0.004,0.02 0,0.015 0.008,0.016 0,0.019 0.004,0.016 0,0.039 c 0,0.426 -0.406,0.426 -0.699,0.426 l -12.688,0 c -0.3,0 -0.699,0 -0.699,-0.426 0,-0.418 0.399,-0.418 0.715,-0.418 l 12.652,0 z"
         style="fill:#000000;fill-opacity:1;fill-rule:nonzero;stroke:none"
         id="path3548" /><path
         d="m 307.758,407.004 0.054,0 0.059,0.004 0.09,0 0.062,0.008 0.024,0 0.031,0.004 0.027,0.007 0.032,0.004 0.023,0.008 0.031,0.012 0.028,0.008 0.023,0.007 0.047,0.024 0.023,0.019 0.02,0.016 0.047,0.047 0.016,0.023 0.011,0.012 0.004,0.012 0.008,0.011 0.004,0.016 0.004,0.012 0.008,0.015 0.011,0.047 0,0.02 0.008,0.015 0,0.016 0.004,0.02 0,0.035 c 0,0.426 -0.406,0.426 -0.719,0.426 l -12.652,0 c -0.316,0 -0.715,0 -0.715,-0.426 0,-0.422 0.399,-0.422 0.699,-0.422 l 12.688,0 z"
         style="fill:#000000;fill-opacity:1;fill-rule:nonzero;stroke:none"
         id="path3550" /><path
         d="m 321.75,417.746 0,0.238 -0.004,0.02 0,0.039 -0.004,0.031 -0.004,0.028 -0.004,0.019 -0.007,0.024 -0.004,0.019 -0.008,0.016 -0.012,0.019 -0.051,0.051 -0.015,0.008 -0.02,0.008 -0.023,0.007 -0.008,0 -0.012,0.004 -0.015,0.004 -0.012,0 -0.012,0.008 -0.012,0 -0.015,0.004 -0.028,0 -0.019,0.004 -0.09,0 -0.019,0.004 -0.086,0 c -1.313,-1.356 -3.176,-1.356 -3.852,-1.356 l 0,-0.66 c 0.426,0 1.676,0 2.774,0.551 l 0,-10.973 c 0,-0.765 -0.059,-1.015 -1.969,-1.015 l -0.676,0 0,-0.66 c 0.742,0.066 2.586,0.066 3.426,0.066 0.851,0 2.691,0 3.437,-0.066 l 0,0.66 -0.683,0 c -1.903,0 -1.973,0.23 -1.973,1.015 l 0,11.883 z"
         style="fill:#000000;fill-opacity:1;fill-rule:nonzero;stroke:none"
         id="path3552" /><path
         d="m 146.004,378.383 7.645,0 0,-0.66 -7.645,0 0,0.66 z"
         style="fill:#000000;fill-opacity:1;fill-rule:nonzero;stroke:none"
         id="path3554" /><path
         d="m 149.457,373.383 0.008,0.031 0.004,0.024 0.011,0.05 0.016,0.051 0.024,0.094 0.011,0.039 0.016,0.043 0.012,0.039 0.011,0.031 0.012,0.035 0.016,0.032 0.023,0.054 0.012,0.024 0.015,0.027 0.012,0.02 0.012,0.023 0.031,0.031 0.012,0.02 0.015,0.015 0.016,0.012 0.016,0.016 0.015,0.011 0.02,0.008 0.039,0.024 0.019,0.008 0.016,0.003 0.024,0.008 0.023,0.004 0.023,0.008 c 0.192,0.047 0.891,0.047 1.336,0.047 2.137,0 3.09,-0.09 3.09,-1.742 0,-0.313 -0.082,-1.141 -0.168,-1.692 -0.019,-0.082 -0.066,-0.34 -0.066,-0.402 0,-0.125 0.066,-0.277 0.25,-0.277 0.242,0 0.281,0.171 0.32,0.492 l 0.574,3.679 c 0.024,0.086 0.047,0.301 0.047,0.368 0,0.23 -0.215,0.23 -0.574,0.23 l -11.758,0 c -0.515,0 -0.531,-0.027 -0.68,-0.426 l -1.265,-3.726 c -0.027,-0.043 -0.129,-0.34 -0.129,-0.387 0,-0.125 0.102,-0.23 0.254,-0.23 0.215,0 0.23,0.105 0.359,0.445 1.145,3.281 1.692,3.668 4.828,3.668 l 0.825,0 c 0.597,0 0.597,-0.09 0.597,-0.254 0,-0.133 -0.062,-0.383 -0.086,-0.441 l -2.836,-11.317 c -0.191,-0.785 -0.257,-1.015 -2.527,-1.015 -0.762,0 -0.887,0 -0.887,-0.407 0,-0.254 0.231,-0.254 0.356,-0.254 0.578,0 1.172,0.039 1.742,0.039 0.594,0 1.211,0.032 1.801,0.032 0.59,0 1.183,-0.032 1.761,-0.032 0.614,0 1.25,-0.039 1.84,-0.039 0.215,0 0.465,0 0.465,0.426 0,0.235 -0.168,0.235 -0.719,0.235 -0.531,0 -0.804,0 -1.351,0.039 -0.621,0.066 -0.789,0.128 -0.789,0.461 0,0.031 0,0.136 0.082,0.449 l 2.824,11.246 z"
         style="fill:#000000;fill-opacity:1;fill-rule:nonzero;stroke:none"
         id="path3556" /><path
         d="m 176.93,367.605 0,0.04 -0.008,0.043 0,0.039 -0.004,0.039 0,0.039 -0.004,0.031 -0.004,0.035 -0.008,0.035 -0.004,0.032 -0.003,0.027 -0.008,0.031 -0.012,0.027 -0.008,0.028 -0.008,0.019 -0.007,0.028 -0.016,0.039 -0.016,0.019 -0.011,0.016 -0.008,0.019 -0.012,0.012 -0.016,0.012 -0.011,0.015 -0.012,0.012 -0.012,0.008 -0.031,0.016 -0.012,0.007 -0.031,0.008 -0.031,0 c -0.106,0 -0.278,-0.144 -0.297,-0.551 -0.09,-2.031 -1.484,-3.195 -2.973,-3.195 -1.324,0 -2.34,0.91 -3.386,1.82 -1.079,0.977 -2.176,1.946 -3.618,1.946 -2.316,0 -3.566,-2.328 -3.566,-4.262 0,-0.676 0.281,-0.676 0.305,-0.676 0.226,0 0.297,0.426 0.297,0.496 0.082,2.325 1.675,3.262 2.964,3.262 1.332,0 2.348,-0.91 3.387,-1.832 1.082,-0.969 2.188,-1.945 3.617,-1.945 2.317,0 3.567,2.336 3.567,4.261 z"
         style="fill:#000000;fill-opacity:1;fill-rule:nonzero;stroke:none"
         id="path3558" /><path
         d="m 191.75,369 1.82,0 c 0.426,0 0.637,0 0.637,0.422 0,0.234 -0.211,0.234 -0.57,0.234 l -1.758,0 0.445,2.422 c 0.086,0.442 0.383,1.942 0.512,2.195 0.191,0.407 0.551,0.727 0.992,0.727 0.082,0 0.637,0 1.039,-0.391 -0.929,-0.074 -1.144,-0.82 -1.144,-1.136 0,-0.485 0.379,-0.743 0.789,-0.743 0.547,0 1.16,0.469 1.16,1.274 0,0.973 -0.977,1.457 -1.844,1.457 -0.723,0 -2.055,-0.379 -2.687,-2.473 -0.125,-0.449 -0.196,-0.66 -0.696,-3.332 l -1.465,0 c -0.406,0 -0.636,0 -0.636,-0.398 0,-0.258 0.191,-0.258 0.59,-0.258 l 1.406,0 -1.594,-8.363 c -0.383,-2.055 -0.742,-3.989 -1.844,-3.989 -0.09,0 -0.613,0 -1.015,0.387 0.972,0.059 1.16,0.824 1.16,1.141 0,0.484 -0.379,0.746 -0.781,0.746 -0.555,0 -1.164,-0.469 -1.164,-1.277 0,-0.95 0.929,-1.461 1.8,-1.461 1.16,0 2.012,1.25 2.391,2.058 0.68,1.336 1.168,3.895 1.191,4.047 L 191.75,369 z"
         style="fill:#000000;fill-opacity:1;fill-rule:nonzero;stroke:none"
         id="path3560" /><path
         d="m 206.418,367.711 0.012,0.043 0.011,0.047 0.012,0.051 0.008,0.046 0.016,0.051 0.011,0.051 0.024,0.105 0.027,0.106 0.031,0.105 0.024,0.106 0.027,0.105 0.012,0.047 0.012,0.051 0.007,0.047 0.016,0.047 0.008,0.043 0.012,0.043 0.015,0.078 0.012,0.035 0.004,0.035 0.008,0.027 0.003,0.028 0.004,0.023 0,0.024 0.004,0.015 0,0.012 c 0,0.387 -0.297,0.574 -0.617,0.574 -0.254,0 -0.633,-0.164 -0.777,-0.59 -0.067,-0.148 -1.063,-4.191 -1.207,-4.746 -0.157,-0.636 -0.196,-1.015 -0.196,-1.402 0,-0.23 0,-0.273 0.02,-0.379 -0.484,-1.121 -1.121,-1.777 -1.945,-1.777 -1.696,0 -1.696,1.566 -1.696,1.926 0,0.675 0.11,1.507 1.102,4.113 0.234,0.629 0.359,0.929 0.359,1.355 0,0.949 -0.699,1.731 -1.738,1.731 -2.016,0 -2.801,-3.067 -2.801,-3.262 0,-0.211 0.215,-0.211 0.262,-0.211 0.211,0 0.234,0.047 0.34,0.387 0.57,1.965 1.394,2.621 2.136,2.621 0.188,0 0.532,-0.02 0.532,-0.695 0,-0.532 -0.235,-1.122 -0.387,-1.481 -0.93,-2.5 -1.18,-3.476 -1.18,-4.281 0,-1.926 1.414,-2.672 3,-2.672 0.367,0 1.36,0 2.207,1.484 0.555,-1.355 2.016,-1.484 2.653,-1.484 1.586,0 2.519,1.336 3.07,2.609 0.715,1.653 1.395,4.489 1.395,5.504 0,1.172 -0.575,1.481 -0.93,1.481 -0.531,0 -1.059,-0.547 -1.059,-1.016 0,-0.273 0.129,-0.394 0.317,-0.57 0.226,-0.235 0.757,-0.781 0.757,-1.797 0,-0.719 -0.605,-2.801 -1.16,-3.875 -0.55,-1.121 -1.297,-1.867 -2.328,-1.867 -1,0 -1.57,0.636 -1.57,1.836 0,0.601 0.144,1.261 0.234,1.55 l 0.887,3.563 z"
         style="fill:#000000;fill-opacity:1;fill-rule:nonzero;stroke:none"
         id="path3562" /><path
         d="m 350.812,149.938 7.645,0 0,-0.656 -7.645,0 0,0.656 z"
         style="fill:#000000;fill-opacity:1;fill-rule:nonzero;stroke:none"
         id="path3564" /><path
         d="m 354.266,144.938 0.007,0.031 0.004,0.023 0.012,0.051 0.016,0.055 0.011,0.043 0.012,0.047 0.012,0.039 0.015,0.043 0.012,0.039 0.012,0.035 0.012,0.031 0.015,0.031 0.012,0.032 0.012,0.023 0.015,0.027 0.024,0.047 0.011,0.02 0.016,0.015 0.016,0.02 0.011,0.015 0.02,0.016 0.012,0.016 0.015,0.011 0.02,0.012 0.015,0.008 0.02,0.016 0.039,0.015 0.02,0.004 0.019,0.008 0.024,0.004 0.023,0.012 c 0.191,0.046 0.895,0.046 1.336,0.046 2.137,0 3.09,-0.089 3.09,-1.746 0,-0.308 -0.082,-1.136 -0.164,-1.691 -0.024,-0.082 -0.071,-0.34 -0.071,-0.398 0,-0.129 0.071,-0.282 0.25,-0.282 0.243,0 0.282,0.176 0.321,0.492 l 0.574,3.684 c 0.027,0.086 0.047,0.297 0.047,0.363 0,0.231 -0.211,0.231 -0.574,0.231 l -11.758,0 c -0.512,0 -0.531,-0.024 -0.68,-0.426 l -1.266,-3.723 c -0.027,-0.047 -0.128,-0.339 -0.128,-0.386 0,-0.129 0.101,-0.235 0.253,-0.235 0.215,0 0.231,0.106 0.36,0.446 1.144,3.285 1.691,3.671 4.828,3.671 l 0.828,0 c 0.594,0 0.594,-0.089 0.594,-0.257 0,-0.129 -0.063,-0.383 -0.086,-0.442 l -2.836,-11.312 c -0.191,-0.789 -0.258,-1.02 -2.523,-1.02 -0.766,0 -0.891,0 -0.891,-0.406 0,-0.25 0.23,-0.25 0.359,-0.25 0.578,0 1.168,0.035 1.739,0.035 0.593,0 1.21,0.031 1.8,0.031 0.594,0 1.184,-0.031 1.762,-0.031 0.613,0 1.25,-0.035 1.84,-0.035 0.215,0 0.465,0 0.465,0.426 0,0.23 -0.168,0.23 -0.719,0.23 -0.531,0 -0.805,0 -1.352,0.039 -0.621,0.071 -0.789,0.129 -0.789,0.465 0,0.027 0,0.137 0.082,0.445 l 2.825,11.247 z"
         style="fill:#000000;fill-opacity:1;fill-rule:nonzero;stroke:none"
         id="path3566" /><path
         d="m 384.105,136.953 -0.105,-0.082 -0.203,-0.164 -0.102,-0.086 -0.09,-0.082 -0.089,-0.078 -0.09,-0.082 -0.082,-0.082 -0.082,-0.074 -0.153,-0.153 -0.07,-0.078 -0.07,-0.07 -0.063,-0.074 -0.125,-0.141 -0.054,-0.062 -0.055,-0.071 -0.051,-0.062 -0.094,-0.117 -0.043,-0.059 -0.039,-0.055 -0.035,-0.051 -0.07,-0.093 -0.028,-0.047 -0.027,-0.039 -0.047,-0.071 -0.019,-0.031 -0.02,-0.027 c -0.945,-1.465 -1.121,-2.801 -1.121,-2.817 0,-0.253 0.258,-0.253 0.426,-0.253 0.355,0 0.379,0.043 0.461,0.425 0.496,2.075 1.746,3.852 4.133,4.828 0.257,0.083 0.32,0.129 0.32,0.274 0,0.148 -0.129,0.211 -0.168,0.234 -0.934,0.356 -3.496,1.418 -4.301,4.981 -0.066,0.254 -0.09,0.312 -0.445,0.312 -0.168,0 -0.426,0 -0.426,-0.25 0,-0.043 0.192,-1.379 1.086,-2.801 0.422,-0.628 1.031,-1.371 1.941,-2.05 l -15.738,0 c -0.375,0 -0.765,0 -0.765,-0.426 0,-0.426 0.39,-0.426 0.765,-0.426 l 15.738,0 z"
         style="fill:#000000;fill-opacity:1;fill-rule:nonzero;stroke:none"
         id="path3568" /><path
         d="m 401.039,138.27 0.082,-0.211 0.086,-0.215 0.164,-0.449 0.172,-0.457 0.164,-0.469 0.168,-0.469 0.164,-0.461 0.16,-0.457 0.078,-0.227 0.078,-0.214 0.075,-0.215 0.074,-0.207 0.07,-0.199 0.071,-0.192 0.066,-0.187 0.066,-0.18 0.063,-0.164 0.058,-0.156 0.059,-0.149 0.051,-0.137 0.054,-0.125 0.051,-0.109 0.039,-0.098 0.043,-0.085 0.039,-0.067 0.036,-0.051 c 0.335,-0.468 0.546,-0.468 1.121,-0.468 l 0.464,0 c 0.211,0.019 0.235,0.148 0.235,0.21 0,0.059 -0.043,0.106 -0.106,0.196 -0.211,0.23 -0.343,0.547 -0.488,0.969 l -4.316,12.05 c -0.45,1.231 -1.598,1.512 -2.586,1.512 -0.11,0 -0.383,0 -0.383,-0.234 0,-0.176 0.168,-0.215 0.191,-0.215 0.696,-0.125 0.84,-0.25 1.371,-1.692 l 2.055,-5.761 -5.848,-5.809 c -0.25,-0.25 -0.378,-0.383 -0.378,-0.652 0,-0.364 0.304,-0.614 0.64,-0.614 0.34,0 0.528,0.235 0.696,0.446 l 5.101,6.012 z"
         style="fill:#000000;fill-opacity:1;fill-rule:nonzero;stroke:none"
         id="path3570" /><path
         d="m 415.617,139.266 0.008,0.043 0.012,0.046 0.008,0.051 0.015,0.047 0.024,0.102 0.027,0.105 0.023,0.11 0.028,0.105 0.023,0.102 0.027,0.105 0.012,0.047 0.012,0.051 0.016,0.047 0.007,0.046 0.012,0.043 0.008,0.043 0.012,0.043 0.007,0.039 0.008,0.032 0.008,0.035 0.004,0.031 0.004,0.023 0.004,0.028 0.004,0.019 0,0.016 0.008,0.016 c 0,0.386 -0.305,0.574 -0.622,0.574 -0.254,0 -0.632,-0.168 -0.781,-0.594 -0.062,-0.148 -1.062,-4.191 -1.207,-4.742 -0.152,-0.641 -0.191,-1.02 -0.191,-1.406 0,-0.227 0,-0.27 0.019,-0.375 -0.484,-1.125 -1.125,-1.778 -1.945,-1.778 -1.695,0 -1.695,1.563 -1.695,1.926 0,0.676 0.105,1.504 1.105,4.109 0.231,0.629 0.356,0.934 0.356,1.356 0,0.949 -0.696,1.73 -1.739,1.73 -2.015,0 -2.797,-3.062 -2.797,-3.257 0,-0.215 0.211,-0.215 0.258,-0.215 0.215,0 0.231,0.047 0.336,0.386 0.574,1.965 1.399,2.625 2.145,2.625 0.183,0 0.531,-0.023 0.531,-0.699 0,-0.531 -0.242,-1.121 -0.387,-1.476 -0.933,-2.504 -1.183,-3.481 -1.183,-4.285 0,-1.926 1.418,-2.668 3.004,-2.668 0.363,0 1.355,0 2.207,1.484 0.546,-1.359 2.011,-1.484 2.648,-1.484 1.59,0 2.516,1.336 3.07,2.605 0.719,1.652 1.395,4.492 1.395,5.508 0,1.168 -0.57,1.476 -0.934,1.476 -0.531,0 -1.054,-0.546 -1.054,-1.015 0,-0.27 0.128,-0.395 0.312,-0.571 0.234,-0.23 0.766,-0.781 0.766,-1.796 0,-0.719 -0.614,-2.797 -1.16,-3.875 -0.555,-1.122 -1.297,-1.864 -2.336,-1.864 -0.997,0 -1.567,0.637 -1.567,1.836 0,0.598 0.149,1.258 0.231,1.547 l 0.894,3.563 z"
         style="fill:#000000;fill-opacity:1;fill-rule:nonzero;stroke:none"
         id="path3572" /></g></g></svg>